<?xml version="1.0" standalone="no"?>
<!DOCTYPE svg PUBLIC "-//W3C//DTD SVG 1.1//EN" "http://www.w3.org/Graphics/SVG/1.1/DTD/svg11.dtd" >
<svg xmlns="http://www.w3.org/2000/svg" xmlns:xlink="http://www.w3.org/1999/xlink" version="1.1">
<metadata>
Created by FontForge 20160407 at Sat Nov 12 18:00:33 2016
 By Jimmy Wärting
Copyright (c) 2012 by Sindre Bremnes. Published by Monokrom Type Foundry.
</metadata>
<defs>
<font id="TelefonWeb" horiz-adv-x="500" >
  <font-face 
    font-family="Telefon Web"
    font-weight="400"
    font-stretch="normal"
    units-per-em="1000"
    panose-1="2 11 5 2 2 2 2 2 3 3"
    ascent="750"
    descent="-250"
    x-height="437"
    cap-height="700"
    bbox="-566 -269 1231 1000"
    underline-thickness="50"
    underline-position="-100"
    stemh="92"
    stemv="88"
    unicode-range="U+0020-FB04"
  />
<missing-glyph horiz-adv-x="666" 
 />
    <glyph glyph-name=".notdef" horiz-adv-x="666" 
 />
    <glyph glyph-name="space" unicode=" " horiz-adv-x="250" 
 />
    <glyph glyph-name="I" unicode="I" horiz-adv-x="242" 
d="M72 690c0 9 1 10 10 10h78c9 0 10 -1 10 -10v-680c0 -9 -1 -10 -10 -10h-78c-9 0 -10 1 -10 10v680z" />
    <glyph glyph-name="H" unicode="H" horiz-adv-x="592" 
d="M519 10c0 -9 -1 -10 -10 -10h-78c-9 0 -10 1 -10 10v230c0 9 -1 10 -10 10h-230c-9 0 -10 -1 -10 -10v-230c0 -9 -1 -10 -10 -10h-78c-9 0 -10 1 -10 10v680c0 9 1 10 10 10h78c9 0 10 -1 10 -10v-339c0 -9 1 -10 10 -10h230c9 0 10 1 10 10v339c0 9 1 10 10 10h78
c9 0 10 -1 10 -10v-680z" />
    <glyph glyph-name="N" unicode="N" horiz-adv-x="590" 
d="M176 433c-2 2 -4 3 -7 3c-5 0 -8 -2 -8 -6v-420c0 -9 -1 -10 -10 -10h-74c-9 0 -10 1 -10 10v698c0 5 1 7 3 7s4 -1 7 -5l337 -443c2 -2 4 -3 7 -3c5 0 8 2 8 6v420c0 9 1 10 10 10h74c9 0 10 -1 10 -10v-698c0 -5 -1 -7 -3 -7s-4 2 -7 5z" />
    <glyph glyph-name="Z" unicode="Z" horiz-adv-x="486" 
d="M178 106c-1 -3 -2 -6 -2 -9c0 -4 2 -6 6 -6h247c9 0 10 -1 10 -10v-71c0 -9 -1 -10 -10 -10h-401c-5 0 -7 2 -7 5c0 1 1 3 2 6l282 583c2 4 3 7 3 10s-2 5 -7 5h-244c-9 0 -10 1 -10 10v71c0 9 1 10 10 10h396c5 0 7 -1 7 -4c0 -1 -1 -3 -2 -6z" />
    <glyph glyph-name="D" unicode="D" horiz-adv-x="629" 
d="M246 700c85 0 143 -18 190 -47c97 -60 147 -172 147 -303c0 -145 -67 -271 -194 -324c-41 -17 -99 -26 -152 -26h-154c-9 0 -10 1 -10 10v680c0 9 1 10 10 10h163zM474 350c0 95 -28 178 -92 223c-33 24 -89 36 -145 36h-56c-9 0 -10 -1 -10 -10v-498c0 -9 1 -10 10 -10
h57c56 0 107 12 140 36c64 45 96 128 96 223z" />
    <glyph glyph-name="C" unicode="C" horiz-adv-x="622" 
d="M406 -10c-223 0 -360 164 -360 360s137 360 360 360c59 0 112 -16 160 -40c5 -3 8 -6 8 -10v-107c0 -5 -1 -7 -4 -7c-2 0 -4 1 -5 2c-41 41 -94 65 -159 65c-165 0 -252 -128 -252 -263s87 -263 252 -263c65 0 118 24 159 65c1 1 3 2 5 2c3 0 4 -2 4 -7v-107
c0 -4 -3 -7 -8 -10c-48 -24 -101 -40 -160 -40z" />
    <glyph glyph-name="T" unicode="T" horiz-adv-x="462" 
d="M26 690c0 9 1 10 10 10h390c9 0 10 -1 10 -10v-72c0 -9 -1 -10 -10 -10h-136c-9 0 -10 -1 -10 -10v-588c0 -9 -1 -10 -10 -10h-78c-9 0 -10 1 -10 10v588c0 9 -1 10 -10 10h-136c-9 0 -10 1 -10 10v72z" />
    <glyph glyph-name="G" unicode="G" horiz-adv-x="661" 
d="M406 613c-169 0 -252 -123 -252 -263c0 -141 85 -267 256 -267c35 0 74 4 99 16c3 1 5 4 5 7v169c0 9 -1 10 -10 10h-131c-9 0 -10 1 -10 10v69c0 9 1 10 10 10h227c9 0 10 -1 10 -10v-313c0 -4 -2 -8 -6 -11c-45 -37 -126 -50 -194 -50c-227 0 -364 164 -364 360
s137 360 360 360c64 0 115 -13 163 -40c5 -3 8 -6 8 -10v-107c0 -5 -1 -7 -4 -7c-2 0 -4 1 -5 2c-41 41 -97 65 -162 65z" />
    <glyph glyph-name="A" unicode="A" horiz-adv-x="562" 
d="M284 443c-1 2 -3 3 -6 3s-5 -1 -6 -3l-76 -218c-1 -4 -2 -6 -2 -6c0 -3 -1 -4 6 -4h157c5 0 7 1 7 3c0 1 -1 3 -2 7zM275 711c1 3 2 4 5 4s4 -1 5 -4l260 -701c1 -1 1 -3 1 -6s-3 -4 -8 -4h-87c-8 0 -10 1 -13 10l-40 105c-3 9 -4 10 -13 10h-214c-7 0 -11 -3 -13 -10
l-37 -105c-3 -9 -5 -10 -13 -10h-84c-5 0 -8 1 -8 4s0 5 1 6z" />
    <glyph glyph-name="V" unicode="V" horiz-adv-x="556" 
d="M272 270c1 -2 3 -3 6 -3s5 1 6 3l148 420c3 7 7 10 12 10h90c4 0 6 -1 6 -3s-1 -4 -2 -7l-255 -701c-1 -3 -2 -4 -5 -4s-4 1 -5 4l-255 701c-1 3 -2 5 -2 7s2 3 6 3h92c5 0 9 -3 12 -10z" />
    <glyph glyph-name="M" unicode="M" horiz-adv-x="766" 
d="M391 123c-3 -3 -6 -5 -8 -5c-3 0 -5 2 -8 5l-190 268c-2 2 -4 3 -7 3c-5 0 -8 -2 -8 -6v-378c0 -9 -1 -10 -10 -10h-77c-9 0 -10 1 -10 10v698c0 5 1 7 3 7s4 -1 7 -5l294 -430c3 -3 5 -4 6 -4c2 0 4 1 6 4l294 430c3 4 5 5 7 5s3 -2 3 -7v-698c0 -9 -1 -10 -10 -10h-77
c-9 0 -10 1 -10 10v378c0 4 -3 6 -8 6c-3 0 -5 -1 -7 -3z" />
    <glyph glyph-name="o" unicode="o" horiz-adv-x="519" 
d="M32 219c0 125 103 228 228 228s227 -103 227 -228s-102 -229 -227 -229s-228 104 -228 229zM122 219c0 -83 55 -149 138 -149c84 0 137 66 137 149c0 81 -53 148 -137 148c-83 0 -138 -67 -138 -148z" />
    <glyph glyph-name="i" unicode="i" horiz-adv-x="224" 
d="M68 427c0 8 1 10 10 10h68c9 0 10 -2 10 -10v-417c0 -8 -1 -10 -10 -10h-68c-9 0 -10 2 -10 10v417zM112 529c-32 0 -62 27 -62 62s27 63 62 63s62 -30 62 -62c0 -33 -29 -63 -62 -63z" />
    <glyph glyph-name="a" unicode="a" horiz-adv-x="466" 
d="M320 151c0 43 -48 71 -103 71c-59 0 -99 -32 -99 -79c0 -48 37 -81 99 -81c57 0 103 47 103 89zM32 140c0 97 78 152 168 152c56 0 96 -21 114 -35c1 -1 3 -1 4 -1c3 0 4 3 4 7v23c0 56 -32 87 -104 87c-53 0 -89 -20 -104 -32c-2 -2 -4 -3 -7 -3s-4 3 -4 8v61
c0 5 3 9 8 12c25 17 68 28 115 28c154 0 182 -85 182 -160v-277c0 -8 -1 -10 -10 -10h-63c-9 0 -10 2 -10 10v34c0 1 -1 2 -4 2c-2 0 -3 0 -4 -1c-28 -35 -70 -55 -117 -55c-87 0 -168 50 -168 150z" />
    <glyph glyph-name="d" unicode="d" horiz-adv-x="550" 
d="M398 219c0 81 -55 148 -137 148c-83 0 -139 -67 -139 -148c0 -83 56 -149 139 -149c82 0 137 66 137 149zM398 740c0 8 1 10 10 10h68c9 0 10 -2 10 -10v-730c0 -8 -1 -10 -10 -10h-68c-9 0 -10 2 -10 10v40c0 1 -1 2 -4 2c-2 0 -3 0 -4 -1c-35 -35 -80 -61 -141 -61
c-124 0 -217 104 -217 229s93 228 217 228c61 0 105 -24 141 -61c1 -1 2 -1 4 -1c3 0 4 1 4 2v353z" />
    <glyph glyph-name="b" unicode="b" horiz-adv-x="550" 
d="M428 219c0 81 -55 148 -137 148c-83 0 -139 -67 -139 -148c0 -83 56 -149 139 -149c82 0 137 66 137 149zM152 387c0 -1 1 -2 4 -2c2 0 3 0 4 1c35 35 80 61 141 61c124 0 217 -103 217 -228s-93 -229 -217 -229c-61 0 -106 24 -141 61c-1 1 -2 1 -4 1c-3 0 -4 -1 -4 -2
v-40c0 -8 -1 -10 -10 -10h-68c-9 0 -10 2 -10 10v730c0 8 1 10 10 10h68c9 0 10 -2 10 -10v-353z" />
    <glyph glyph-name="p" unicode="p" horiz-adv-x="550" 
d="M428 219c0 81 -55 148 -137 148c-83 0 -139 -67 -139 -148c0 -83 56 -149 139 -149c82 0 137 66 137 149zM152 387c0 -1 1 -2 4 -2c2 0 3 0 4 1c36 37 80 61 141 61c124 0 217 -103 217 -228s-93 -229 -217 -229c-61 0 -105 24 -141 61c-1 1 -2 1 -4 1c-3 0 -4 -1 -4 -2
v-260c0 -8 -1 -10 -10 -10h-68c-9 0 -10 2 -10 10v637c0 8 1 10 10 10h68c9 0 10 -2 10 -10v-40z" />
    <glyph glyph-name="q" unicode="q" horiz-adv-x="550" 
d="M122 219c0 -83 55 -149 137 -149c83 0 139 66 139 149c0 81 -56 148 -139 148c-82 0 -137 -67 -137 -148zM398 427c0 8 1 10 10 10h68c9 0 10 -2 10 -10v-637c0 -8 -1 -10 -10 -10h-68c-9 0 -10 2 -10 10v260c0 1 -1 2 -4 2c-2 0 -3 0 -4 -1c-35 -37 -80 -61 -141 -61
c-124 0 -217 104 -217 229s93 228 217 228c61 0 106 -24 141 -61c1 -1 2 -1 4 -1c3 0 4 1 4 2v40z" />
    <glyph glyph-name="thorn" unicode="&#xfe;" horiz-adv-x="550" 
d="M428 219c0 81 -55 148 -137 148c-83 0 -139 -67 -139 -148c0 -83 56 -149 139 -149c82 0 137 66 137 149zM152 387c0 -1 1 -2 4 -2c2 0 3 0 4 1c35 37 80 61 141 61c124 0 217 -103 217 -228s-93 -229 -217 -229c-61 0 -106 24 -141 61c-1 1 -2 1 -4 1c-3 0 -4 -1 -4 -2
v-260c0 -8 -1 -10 -10 -10h-68c-9 0 -10 2 -10 10v950c0 8 1 10 10 10h68c9 0 10 -2 10 -10v-353z" />
    <glyph glyph-name="n" unicode="n" horiz-adv-x="506" 
d="M448 10c0 -8 -1 -10 -10 -10h-68c-9 0 -10 2 -10 10v248c0 69 -25 109 -90 109c-68 0 -118 -47 -118 -128v-229c0 -8 -1 -10 -10 -10h-68c-9 0 -10 2 -10 10v417c0 9 1 10 10 10h68c9 0 10 -2 10 -10v-40c0 -1 1 -2 4 -2c2 0 3 0 4 1c38 36 70 61 131 61
c121 0 157 -74 157 -169v-268z" />
    <glyph glyph-name="u" unicode="u" horiz-adv-x="472" 
d="M236 70c53 0 94 34 94 103v254c0 8 1 10 10 10h68c9 0 10 -2 10 -10v-260c0 -98 -61 -177 -182 -177s-182 79 -182 177v260c0 8 1 10 10 10h68c9 0 10 -2 10 -10v-254c0 -69 41 -103 94 -103z" />
    <glyph glyph-name="l" unicode="l" horiz-adv-x="224" 
d="M68 740c0 8 1 10 10 10h68c9 0 10 -2 10 -10v-730c0 -8 -1 -10 -10 -10h-68c-9 0 -10 2 -10 10v730z" />
    <glyph glyph-name="t" unicode="t" horiz-adv-x="264" 
d="M34 359c-9 0 -10 2 -10 10v58c0 8 1 10 10 10h40c9 0 10 1 10 10v133c0 7 3 12 10 16l65 40c3 1 4 3 7 3s5 -3 5 -8v-184c0 -9 1 -10 10 -10h61c9 0 10 -2 10 -10v-58c0 -8 -1 -10 -10 -10h-61c-9 0 -10 -1 -10 -10v-339c0 -8 -1 -10 -10 -10h-67c-9 0 -10 2 -10 10v339
c0 9 -1 10 -10 10h-40z" />
    <glyph glyph-name="m" unicode="m" horiz-adv-x="778" 
d="M414 370c1 -1 2 -2 4 -2c1 0 3 1 4 2c30 36 73 77 140 77c121 0 158 -74 158 -169v-268c0 -8 -1 -10 -10 -10h-68c-9 0 -10 2 -10 10v248c0 69 -20 109 -85 109c-68 0 -111 -47 -111 -128v-229c0 -8 -1 -10 -10 -10h-68c-9 0 -10 2 -10 10v248c0 69 -20 109 -85 109
c-68 0 -111 -47 -111 -128v-229c0 -8 -1 -10 -10 -10h-68c-9 0 -10 2 -10 10v417c0 8 1 10 10 10h68c9 0 10 -2 10 -10v-40c0 -1 1 -2 4 -2c2 0 3 0 4 1c29 36 68 61 120 61c77 0 115 -30 134 -77z" />
    <glyph glyph-name="r" unicode="r" horiz-adv-x="319" 
d="M74 0c-9 0 -10 2 -10 10v417c0 8 1 10 10 10h68c9 0 10 -2 10 -10v-53c0 -1 1 -2 4 -2c2 0 3 0 4 1c19 36 73 74 131 74c9 0 10 -2 10 -10v-72c0 -7 -2 -11 -5 -11c-4 0 -12 2 -27 2c-76 0 -117 -65 -117 -173v-173c0 -8 -1 -10 -10 -10h-68z" />
    <glyph glyph-name="g" unicode="g" horiz-adv-x="548" 
d="M122 219c0 -83 55 -149 137 -149c83 0 139 66 139 149c0 81 -56 148 -139 148c-82 0 -137 -67 -137 -148zM120 -190c-6 3 -9 7 -9 12v74c0 7 1 10 4 10c1 0 3 -1 6 -3c31 -21 75 -41 140 -41c95 0 137 44 137 152v36c0 1 -1 2 -4 2c-2 0 -3 0 -4 -1
c-35 -37 -80 -61 -141 -61c-124 0 -217 104 -217 229s93 228 217 228c61 0 106 -24 141 -61c1 -1 2 -1 4 -1c3 0 4 1 4 2v40c0 8 1 10 10 10h68c9 0 10 -2 10 -10v-409c0 -153 -75 -236 -224 -236c-64 0 -113 13 -142 28z" />
    <glyph glyph-name="h" unicode="h" horiz-adv-x="516" 
d="M458 10c0 -8 -1 -10 -10 -10h-68c-9 0 -10 2 -10 10v248c0 69 -31 109 -96 109c-68 0 -122 -47 -122 -128v-229c0 -8 -1 -10 -10 -10h-68c-9 0 -10 2 -10 10v730c0 8 1 10 10 10h68c9 0 10 -2 10 -10v-353c0 -1 1 -2 4 -2c2 0 3 0 4 1c34 37 70 61 131 61
c121 0 167 -74 167 -169v-268z" />
    <glyph glyph-name="j" unicode="j" horiz-adv-x="218" 
d="M156 -70c0 -103 -38 -150 -121 -150c-13 0 -24 0 -31 1l-12 2c-8 3 -10 3 -10 12v59c0 7 3 9 10 8c9 -2 17 -3 25 -3c36 0 51 25 51 68v500c0 8 1 10 10 10h68c9 0 10 -2 10 -10v-497zM113 529c-32 0 -62 27 -62 62s27 63 62 63s62 -30 62 -62c0 -33 -29 -63 -62 -63z
" />
    <glyph glyph-name="f" unicode="f" horiz-adv-x="267" 
d="M172 447c0 -9 1 -10 10 -10h61c9 0 10 -2 10 -10v-58c0 -8 -1 -10 -10 -10h-61c-9 0 -10 -1 -10 -10v-339c0 -8 -1 -10 -10 -10h-68c-9 0 -10 2 -10 10v339c0 9 -1 10 -10 10h-40c-9 0 -10 2 -10 10v58c0 8 1 10 10 10h40c9 0 10 1 10 10v163c0 103 39 156 122 156
c15 0 31 -1 46 -5c8 -3 10 -4 10 -12v-59c0 -6 -2 -9 -6 -9l-4 1c-10 3 -20 4 -29 4c-33 0 -51 -25 -51 -68v-171z" />
    <glyph glyph-name="U" unicode="U" horiz-adv-x="618" 
d="M447 690c0 9 1 10 10 10h79c9 0 10 -1 10 -10v-471c0 -152 -99 -229 -236 -229s-238 77 -238 229v471c0 9 1 10 10 10h79c9 0 10 -1 10 -10v-452c0 -114 53 -153 139 -153c88 0 137 39 137 153v452z" />
    <glyph glyph-name="v" unicode="v" horiz-adv-x="425" 
d="M206 180c1 -2 3 -3 6 -3s5 1 6 3l102 247c4 8 5 10 13 10h77c10 0 10 -3 7 -10l-199 -436c-3 -6 -7 -9 -10 -9s-6 3 -9 9l-190 436c-4 8 -3 10 7 10h77c8 0 9 -2 13 -10z" />
    <glyph glyph-name="J" unicode="J" horiz-adv-x="296" 
d="M126 692c0 5 3 8 8 8h82c5 0 8 -3 8 -8v-558c0 -103 -41 -144 -124 -144c-20 0 -42 1 -62 5c-8 2 -10 3 -10 12v67c0 7 3 9 10 8c9 -2 26 -5 40 -5c36 0 48 18 48 70v545z" />
    <glyph glyph-name="c" unicode="c" horiz-adv-x="412" 
d="M368 13c-31 -15 -74 -23 -109 -23c-131 0 -227 101 -227 229s96 228 227 228c35 0 77 -8 106 -21c7 -3 8 -5 8 -10v-82c0 -5 -1 -7 -4 -7c-1 0 -3 1 -5 2c-23 23 -59 38 -103 38c-88 0 -139 -64 -139 -148c0 -86 51 -149 139 -149c47 0 83 15 107 42c1 1 2 1 4 1
c3 0 4 -2 4 -7v-83c0 -5 -1 -7 -8 -10z" />
    <glyph glyph-name="e" unicode="e" horiz-adv-x="484" 
d="M130 172c7 -63 58 -102 138 -102c40 0 104 16 127 42c1 1 3 4 6 4s4 -3 4 -10v-69c0 -5 -1 -9 -8 -14c-25 -19 -78 -33 -129 -33c-155 0 -232 101 -232 229c0 125 83 228 208 228c134 0 204 -106 204 -228v-28c0 -8 -1 -10 -10 -10h-297c-9 0 -11 -1 -11 -9zM244 368
c-66 0 -111 -48 -119 -107c0 -9 1 -10 10 -10h214c11 0 11 1 10 10c-7 60 -43 107 -115 107z" />
    <glyph glyph-name="k" unicode="k" horiz-adv-x="439" 
d="M152 275c0 -5 2 -7 6 -7s7 2 9 5l128 154c7 8 7 10 16 10h90c5 0 8 -1 8 -3c0 -1 -1 -3 -4 -7l-154 -182c-1 -1 -2 -3 -2 -5s1 -4 2 -5l167 -225c3 -5 5 -7 5 -8s-3 -2 -9 -2h-90c-9 0 -8 1 -16 10l-140 196c-2 3 -5 4 -8 4c-5 0 -8 -2 -8 -7v-193c0 -8 -1 -10 -10 -10
h-68c-9 0 -10 2 -10 10v730c0 8 1 10 10 10h68c9 0 10 -2 10 -10v-465z" />
    <glyph glyph-name="z" unicode="z" horiz-adv-x="376" 
d="M161 95c-2 -4 -3 -7 -3 -9c0 -4 2 -6 6 -6h163c9 0 10 -1 10 -10v-60c0 -9 -1 -10 -10 -10h-304c-5 0 -7 2 -7 5c0 1 1 3 2 6l190 333c2 4 3 7 3 10s-2 5 -6 5h-159c-9 0 -10 1 -10 10v58c0 9 1 10 10 10h299c5 0 7 -1 7 -4c0 -1 -1 -3 -2 -6z" />
    <glyph glyph-name="y" unicode="y" horiz-adv-x="453" 
d="M223 132c1 -2 2 -3 4 -3c1 0 3 1 4 3l117 295c4 8 5 10 13 10h75c6 0 9 -1 9 -4c0 0 -1 -2 -2 -6l-259 -637c-4 -8 -5 -10 -13 -10h-74c-6 0 -9 1 -9 4c0 0 1 2 2 6l88 218c1 1 1 3 1 5s0 4 -1 5l-168 409c-1 4 -2 6 -2 6c0 3 3 4 9 4h77c8 0 9 -2 13 -10z" />
    <glyph glyph-name="w" unicode="w" horiz-adv-x="648" 
d="M217 -9c-2 -6 -5 -9 -10 -9c-3 0 -6 3 -9 9l-188 436c-1 4 -2 6 -2 6c0 3 3 4 9 4h74c8 0 9 -2 13 -10l99 -251c1 -2 3 -3 6 -3s5 1 6 3l101 266c3 7 5 10 8 10s5 -3 8 -10l102 -266c1 -2 3 -3 6 -3s5 1 6 3l98 251c4 8 5 10 13 10h74c6 0 9 -1 9 -4c0 0 -1 -2 -2 -6
l-188 -436c-3 -6 -6 -9 -9 -9c-4 0 -7 3 -10 9l-100 253c-1 2 -3 3 -6 3s-5 -1 -6 -3z" />
    <glyph glyph-name="P" unicode="P" horiz-adv-x="511" 
d="M73 690c0 9 1 10 10 10h150c81 0 127 -15 168 -44c52 -39 81 -98 81 -177c0 -77 -26 -136 -78 -177c-41 -32 -98 -51 -167 -51h-56c-9 0 -10 -1 -10 -10v-231c0 -9 -1 -10 -10 -10h-78c-9 0 -10 1 -10 10v680zM181 612c-9 0 -10 -1 -10 -10v-253c0 -9 1 -10 10 -10h63
c85 0 135 49 135 138c0 72 -34 135 -135 135h-63z" />
    <glyph glyph-name="R" unicode="R" horiz-adv-x="545" 
d="M250 374c88 0 126 44 126 120c0 79 -50 118 -130 118h-67c-9 0 -10 -1 -10 -10v-218c0 -9 1 -10 10 -10h71zM169 10c0 -9 -1 -10 -10 -10h-75c-9 0 -12 1 -12 10v680c0 9 1 10 10 10h159c75 0 133 -16 173 -49c45 -37 64 -93 64 -157c0 -101 -62 -174 -169 -195
c-3 -1 -4 -2 -4 -4c0 -1 1 -3 2 -4l217 -281c3 -5 5 -7 5 -8s-3 -2 -9 -2h-100c-9 0 -8 1 -16 10l-223 292c-3 4 -6 6 -8 6c-3 0 -4 -3 -4 -9v-289z" />
    <glyph glyph-name="B" unicode="B" horiz-adv-x="524" 
d="M73 690c0 9 1 10 10 10h162c132 0 205 -72 205 -181c0 -73 -38 -113 -74 -134c-3 -2 -4 -4 -4 -6s1 -4 4 -5c53 -21 112 -73 112 -173c0 -124 -92 -201 -228 -201h-177c-9 0 -10 1 -10 10v680zM274 88c69 0 108 49 108 118s-44 114 -113 114h-90c-9 0 -10 -1 -10 -10
v-212c0 -9 1 -10 10 -10h95zM169 418c0 -9 1 -10 10 -10h66c60 0 105 36 105 104c0 63 -42 100 -105 100h-66c-9 0 -10 -1 -10 -10v-184z" />
    <glyph glyph-name="period" unicode="." horiz-adv-x="250" 
d="M125 -12c-33 0 -62 26 -62 62c0 35 27 62 62 62s62 -28 62 -61c0 -35 -27 -63 -62 -63z" />
    <glyph glyph-name="K" unicode="K" horiz-adv-x="562" 
d="M171 10c0 -9 -1 -10 -10 -10h-78c-9 0 -10 1 -10 10v680c0 9 1 10 10 10h78c9 0 10 -1 10 -10v-279c0 -5 2 -7 6 -7s7 2 9 5l220 281c7 8 7 10 16 10h104c5 0 8 -1 8 -3c0 -1 -1 -3 -4 -7l-244 -309c-1 -1 -2 -3 -2 -5s1 -4 2 -5l255 -361c3 -5 5 -7 5 -8s-3 -2 -9 -2
h-104c-9 0 -8 1 -16 10l-230 332c-2 3 -5 4 -8 4c-5 0 -8 -2 -8 -7v-329z" />
    <glyph glyph-name="dieresis" unicode="&#xa8;" 
d="M353 518c-31 0 -60 25 -60 60c0 33 27 61 60 61c32 0 60 -29 60 -60s-29 -61 -60 -61zM147 518c-31 0 -60 25 -60 60c0 33 28 61 60 61c33 0 60 -29 60 -60s-28 -61 -60 -61z" />
    <glyph glyph-name="S" unicode="S" horiz-adv-x="503" 
d="M252 -10c-83 0 -169 45 -209 117c-2 3 -3 5 -3 7s2 5 5 8l55 55c3 3 6 5 7 5c2 0 4 -2 7 -6c43 -71 86 -92 142 -92c68 0 106 45 106 97c0 147 -297 145 -297 349c0 100 77 180 192 180c77 0 135 -27 178 -87c2 -3 3 -6 3 -7c0 -2 -2 -5 -5 -8l-49 -49c-3 -3 -6 -5 -7 -5
c-2 0 -4 2 -7 6c-23 37 -59 58 -111 58c-59 0 -90 -37 -90 -88c0 -128 298 -128 298 -344c0 -116 -79 -196 -215 -196z" />
    <glyph glyph-name="s" unicode="s" horiz-adv-x="376" 
d="M268 334c-17 26 -42 39 -76 39c-37 0 -59 -22 -59 -50c0 -87 208 -55 208 -205c0 -60 -44 -128 -153 -128c-71 0 -119 27 -154 74c-1 2 -2 4 -2 7s1 5 4 8l41 41c3 3 5 4 7 4s4 -1 7 -5c29 -40 59 -54 99 -54c43 0 65 22 65 51c0 80 -206 54 -206 202
c0 69 52 129 140 129c56 0 103 -17 134 -60c1 -2 2 -4 2 -7s-1 -5 -4 -8l-39 -39c-3 -3 -5 -4 -7 -4s-4 1 -7 5z" />
    <glyph glyph-name="Q" unicode="Q" horiz-adv-x="797" 
d="M746 353c0 -128 -54 -195 -117 -258c-2 -2 -3 -4 -3 -6c0 -3 4 -4 13 -4l118 4c9 0 10 -1 10 -10v-69c0 -9 -1 -10 -10 -10c0 0 -181 4 -202 4c-25 0 -99 -14 -159 -14c-196 0 -350 164 -350 360s154 360 350 360s350 -161 350 -357zM154 350c0 -142 101 -263 242 -263
s242 121 242 263s-101 263 -242 263s-242 -121 -242 -263z" />
    <glyph glyph-name="hyphen" unicode="-" horiz-adv-x="300" 
d="M50 300c0 9 2 10 10 10h180c9 0 10 -1 10 -10v-60c0 -9 -1 -10 -10 -10h-180c-9 0 -10 1 -10 10v60z" />
    <glyph glyph-name="x" unicode="x" horiz-adv-x="455" 
d="M121 10c-7 -8 -8 -10 -16 -10h-80c-6 0 -9 1 -9 3s1 4 3 7l144 210c1 1 2 3 2 4s-1 3 -2 4l-139 199c-3 3 -4 6 -4 8c0 1 3 2 9 2h83c8 0 9 -2 16 -10l93 -140c1 -1 3 -2 4 -2s3 1 4 2l94 140c7 8 8 10 16 10h80c6 0 9 -1 9 -2c0 -2 -1 -5 -4 -8l-138 -199
c-1 -1 -2 -3 -2 -4s1 -3 2 -4l149 -210c3 -3 4 -6 4 -7c0 -2 -3 -3 -9 -3h-81c-8 0 -9 2 -16 10l-104 151c-1 1 -3 2 -4 2s-3 -1 -4 -2z" />
    <glyph glyph-name="Eth" unicode="&#xd0;" horiz-adv-x="629" 
d="M246 700c85 0 143 -18 190 -47c97 -60 147 -172 147 -303c0 -145 -67 -271 -194 -324c-41 -17 -99 -26 -152 -26h-154c-9 0 -10 1 -10 10v241c-1 4 -4 6 -10 6h-42c-9 0 -10 1 -10 10v64c0 9 2 10 10 10h42c9 0 10 1 10 10v339c0 9 1 10 10 10h163zM474 350
c0 95 -28 178 -92 223c-33 24 -89 36 -145 36h-56c-9 0 -10 -1 -10 -10v-248c0 -9 1 -10 10 -10h97c9 0 10 -1 10 -10v-64c0 -9 -1 -10 -10 -10h-97c-9 0 -10 -1 -10 -10v-146c0 -9 1 -10 10 -10h57c56 0 107 12 140 36c64 45 96 128 96 223z" />
    <glyph glyph-name="Thorn" unicode="&#xde;" horiz-adv-x="526" 
d="M159 700c9 0 10 -1 10 -10v-112c0 -9 1 -10 10 -10h88c136 0 218 -97 218 -218s-82 -217 -218 -217h-88c-9 0 -10 -1 -10 -10v-113c0 -9 -1 -10 -10 -10h-78c-9 0 -10 1 -10 10v680c0 9 1 10 10 10h78zM179 477c-9 0 -10 -1 -10 -10v-233c0 -9 1 -10 10 -10h92
c69 0 110 57 110 126s-41 127 -110 127h-92z" />
    <glyph glyph-name="OE" unicode="&#x152;" horiz-adv-x="789" 
d="M733 700c9 0 10 -1 10 -10v-70c0 -9 -1 -10 -10 -10h-247c-9 0 -10 -1 -10 -10v-250c0 -9 1 -10 10 -10h242c9 0 10 -1 10 -10v-70c0 -9 -1 -10 -10 -10h-242c-9 0 -10 -1 -10 -10v-140c0 -9 1 -10 10 -10h252c9 0 10 -1 10 -10v-70c0 -9 -1 -10 -10 -10h-357
c-196 0 -335 154 -335 350s132 350 328 350h359zM368 90c9 0 10 1 10 10v500c0 9 -1 10 -10 10c-141 0 -220 -120 -220 -260s79 -260 220 -260z" />
    <glyph glyph-name="ring" unicode="&#x2da;" 
d="M250 547c23 0 41 18 41 42c0 23 -17 41 -41 41s-41 -18 -41 -42c0 -25 18 -41 41 -41zM250 497c-49 0 -91 34 -91 91c0 51 39 92 91 92c51 0 91 -43 91 -91c0 -51 -40 -92 -91 -92z" />
    <glyph glyph-name="paragraph" unicode="&#xb6;" horiz-adv-x="533" 
d="M277 250c-69 0 -126 19 -167 51c-52 41 -78 100 -78 178c0 79 28 139 81 177c41 30 87 44 168 44c7 0 10 -3 10 -10v-430c0 -7 -3 -10 -10 -10h-4zM452 700c9 0 10 -1 10 -10v-843c0 -9 -1 -10 -10 -10h-75c-9 0 -10 1 -10 10v843c0 9 1 10 10 10h75z" />
    <glyph glyph-name="Y" unicode="Y" horiz-adv-x="548" 
d="M225 353l-211 337c-1 3 -2 5 -2 6c0 3 2 4 6 4h99c5 0 10 -3 13 -10l139 -227c1 -2 2 -3 5 -3c2 0 4 1 5 3l140 227c5 9 6 10 13 10h98c4 0 6 -1 6 -4c0 -1 -1 -3 -2 -6l-211 -337v-343c0 -9 -1 -10 -10 -10h-78c-9 0 -10 1 -10 10v343z" />
    <glyph glyph-name="X" unicode="X" horiz-adv-x="578" 
d="M30 690c-1 3 -2 5 -2 6c0 3 2 4 6 4h98c5 0 10 -3 13 -10l141 -245c1 -2 2 -3 5 -3c2 0 4 1 5 3l142 245c5 9 6 10 13 10h97c4 0 6 -1 6 -4c0 -1 -1 -3 -2 -6l-196 -329c-1 -3 -2 -5 -2 -6s1 -3 2 -6l204 -339c1 -3 2 -5 2 -6c0 -3 -2 -4 -6 -4h-99c-5 0 -10 3 -13 10
l-150 255c-1 2 -3 3 -5 3c-3 0 -4 -1 -5 -3l-151 -255c-5 -9 -6 -10 -13 -10h-98c-4 0 -6 1 -6 4c0 1 1 3 2 6l204 339c1 3 2 5 2 6s-1 3 -2 6z" />
    <glyph glyph-name="W" unicode="W" horiz-adv-x="841" 
d="M423 433c-1 2 -3 3 -5 3c-3 0 -4 -1 -5 -3l-150 -444c-1 -3 -2 -4 -5 -4s-4 1 -5 4l-233 701c-1 3 -2 5 -2 7s2 3 6 3h94c5 0 9 -3 12 -10l126 -416c1 -2 2 -3 5 -3c2 0 4 1 5 3l143 431c3 7 7 10 12 10s9 -3 12 -10l144 -431c1 -2 2 -3 5 -3c2 0 4 1 5 3l128 416
c3 7 7 10 12 10h90c4 0 6 -1 6 -3s-1 -4 -2 -7l-238 -701c-1 -3 -2 -4 -5 -4s-4 1 -5 4z" />
    <glyph glyph-name="one" unicode="1" horiz-adv-x="310" 
d="M230 10c0 -9 -1 -10 -10 -10h-70c-9 0 -10 1 -10 10v498c0 11 -1 13 -10 10l-88 -29c-8 -3 -10 -3 -10 6v65c0 9 2 11 10 14l178 62c10 3 10 1 10 -8v-618z" />
    <glyph glyph-name="zero" unicode="0" horiz-adv-x="508" 
d="M463 315c0 -211 -73 -325 -209 -325s-209 114 -209 325s73 325 209 325s209 -114 209 -325zM139 315c0 -149 30 -241 115 -241s115 92 115 241s-30 241 -115 241s-115 -92 -115 -241z" />
    <glyph glyph-name="two" unicode="2" horiz-adv-x="469" 
d="M410 79c9 0 10 -1 10 -10v-59c0 -9 -1 -10 -10 -10h-391c-5 0 -7 2 -7 7c0 6 5 11 6 12l218 232c70 74 92 138 92 194c0 64 -29 113 -101 113c-60 0 -99 -44 -99 -108c0 -7 -1 -10 -10 -10h-73c-6 0 -9 3 -9 9c0 103 68 191 191 191c124 0 194 -78 194 -192
c0 -89 -33 -162 -137 -272l-80 -85c-5 -5 -8 -9 -8 -10s3 -2 9 -2h205z" />
    <glyph glyph-name="three" unicode="3" horiz-adv-x="487" 
d="M51 482c3 89 74 158 178 158c112 0 188 -70 188 -167c0 -48 -22 -91 -58 -122c-3 -3 -4 -5 -4 -6s1 -3 4 -5c53 -36 88 -93 88 -157c0 -108 -87 -193 -209 -193c-112 0 -189 68 -202 163c0 5 3 7 8 7h76c4 0 7 -2 8 -6c11 -48 50 -83 110 -83c71 0 116 44 116 112
c0 64 -44 110 -116 110h-50c-8 0 -8 1 -8 9v61c0 8 0 9 8 9h53c56 0 86 49 86 101c0 53 -38 90 -98 90c-55 0 -91 -36 -91 -81c0 -9 -1 -10 -10 -10h-67c-9 0 -10 1 -10 10z" />
    <glyph glyph-name="eight" unicode="8" horiz-adv-x="489" 
d="M127 183c0 -59 50 -114 117 -114c68 0 118 55 118 114c0 64 -45 117 -118 117s-117 -53 -117 -117zM156 475c0 -51 35 -92 88 -92c55 0 91 41 91 92c0 47 -35 89 -90 89c-53 0 -89 -44 -89 -89zM128 343c3 2 4 4 4 5s-1 3 -4 6c-35 31 -58 74 -58 121
c0 91 71 165 175 165s176 -74 176 -165c0 -48 -25 -90 -60 -121c-3 -3 -4 -5 -4 -6s1 -3 4 -5c52 -36 89 -93 89 -160c0 -107 -83 -193 -206 -193c-124 0 -205 86 -205 193c0 67 34 124 89 160z" />
    <glyph glyph-name="mu" unicode="&#xb5;" horiz-adv-x="505" 
d="M153 0c-1 0 -2 -1 -2 -2v-211c0 -8 -1 -10 -10 -10h-70c-9 0 -10 2 -10 10v640c0 8 1 10 10 10h70c9 0 10 -2 10 -10v-248c0 -69 25 -109 90 -109c68 0 118 47 118 128v229c0 8 1 10 10 10h70c9 0 10 -2 10 -10v-417c0 -8 -1 -10 -10 -10h-70c-9 0 -10 2 -10 10v40
c0 1 -1 2 -2 2s-2 0 -3 -1c-39 -36 -73 -61 -134 -61c-27 0 -48 3 -67 10z" />
    <glyph glyph-name="AE" unicode="&#xc6;" horiz-adv-x="764" 
d="M363 0c-9 0 -10 1 -10 10v105c0 9 -1 10 -10 10h-180c-7 0 -11 -3 -13 -10l-46 -105c-3 -9 -5 -10 -13 -10h-82c-5 0 -8 1 -8 4s0 5 1 6l303 680c3 7 7 10 14 10h385c9 0 10 -1 10 -10v-72c0 -9 -1 -10 -10 -10h-245c-9 0 -10 -1 -10 -10v-247c0 -9 1 -10 10 -10h240
c9 0 10 -1 10 -10v-71c0 -9 -1 -10 -10 -10h-240c-9 0 -10 -1 -10 -10v-138c0 -9 1 -10 10 -10h250c9 0 10 -1 10 -10v-72c0 -9 -1 -10 -10 -10h-346zM196 225c-1 -4 -2 -6 -2 -6c0 -3 3 -4 9 -4h140c9 0 10 1 10 10v337c0 3 -2 4 -5 4s-6 0 -7 -3z" />
    <glyph glyph-name="ampersand" unicode="&#x26;" horiz-adv-x="641" 
d="M524 140c-2 -3 -3 -6 -3 -7s1 -4 4 -8l86 -112l2 -3c1 -3 2 -5 2 -6c0 -3 -3 -4 -9 -4h-85c-5 0 -9 2 -13 7l-42 55c-1 2 -2 3 -3 3s-3 -1 -5 -3c-43 -48 -111 -72 -180 -72c-117 0 -228 66 -228 208c0 107 65 159 134 206c3 1 4 3 4 6c0 2 -1 4 -2 5
c-30 36 -72 98 -72 151c0 92 76 144 156 144c83 0 158 -52 158 -144c0 -83 -48 -128 -107 -173c-3 -1 -4 -4 -4 -7s1 -5 3 -8l133 -170c2 -3 4 -4 6 -4c3 0 4 1 5 4c11 25 17 71 20 100c0 5 3 8 8 8h73c6 0 9 -3 9 -8c-3 -53 -26 -125 -50 -168zM246 335c-2 3 -4 4 -6 4
c-3 0 -4 -2 -7 -3c-47 -37 -90 -69 -90 -137c0 -93 74 -129 131 -129s90 11 130 54c2 2 3 4 3 7s-1 5 -3 8zM200 566c0 -38 35 -81 56 -107c3 -3 5 -4 8 -4c1 0 4 1 8 4c53 43 70 59 70 107c0 41 -29 70 -72 70s-70 -29 -70 -70z" />
    <glyph glyph-name="Oslash" unicode="&#xd8;" horiz-adv-x="792" 
d="M121 126c-47 63 -75 140 -75 224c0 196 154 360 350 360c87 0 164 -32 225 -84l68 68c2 2 4 3 6 3s4 -1 6 -3l39 -39c2 -2 3 -4 3 -6s-1 -4 -3 -6l-70 -70c48 -61 76 -139 76 -223c0 -196 -154 -360 -350 -360c-88 0 -165 31 -225 84l-68 -68c-2 -2 -4 -3 -6 -3
s-4 1 -6 3l-39 39c-2 2 -3 4 -3 6s1 4 3 6zM600 494c-1 2 -3 3 -4 3s-3 -1 -5 -3l-344 -344c-2 -2 -3 -3 -3 -4s1 -3 3 -5c40 -35 90 -54 149 -54c141 0 242 121 242 263c0 53 -13 101 -38 144zM545 550c2 2 3 3 3 4s-1 3 -3 5c-40 35 -90 54 -149 54
c-141 0 -242 -121 -242 -263c0 -53 14 -101 38 -144c1 -2 3 -3 4 -3s3 1 5 3z" />
    <glyph glyph-name="oe" unicode="&#x153;" horiz-adv-x="845" 
d="M491 170c7 -63 58 -100 138 -100c40 0 104 16 127 42c1 1 3 4 6 4s4 -3 4 -10v-73c0 -5 -1 -5 -8 -10c-25 -19 -78 -33 -129 -33c-88 0 -151 35 -190 88c-43 -53 -107 -88 -179 -88c-125 0 -228 104 -228 229s103 228 228 228c72 0 137 -35 178 -88c37 53 95 88 167 88
c137 0 204 -103 204 -228v-30c0 -8 -1 -10 -10 -10h-297c-9 0 -11 -1 -11 -9zM122 219c0 -83 55 -149 138 -149c84 0 137 66 137 149c0 84 -56 148 -137 148c-83 0 -138 -67 -138 -148zM605 367c-65 0 -112 -45 -119 -104c0 -9 1 -10 10 -10h214c11 0 11 1 10 10
c-7 60 -43 104 -115 104z" />
    <glyph glyph-name="ae" unicode="&#xe6;" horiz-adv-x="754" 
d="M518 369c-65 0 -110 -48 -118 -107c0 -9 1 -10 10 -10h209c7 0 10 2 10 6v4c-7 61 -36 107 -111 107zM212 64c72 0 100 54 100 90c0 44 -44 72 -100 72c-52 0 -92 -29 -92 -82c0 -52 33 -80 92 -80zM184 -10c-102 0 -154 70 -154 145c0 91 60 159 168 159
c52 0 89 -19 108 -34c1 -1 3 -1 4 -1c3 0 4 3 4 8v19c0 56 -33 87 -105 87c-53 0 -88 -21 -103 -32c-3 -1 -5 -2 -6 -2c-3 0 -5 2 -5 7v61c0 5 3 9 8 12c25 17 69 28 116 28c92 0 133 -50 145 -82c1 -1 2 -2 4 -2c1 0 3 1 4 2c35 47 77 82 152 82c135 0 194 -103 194 -228
v-29c0 -8 -1 -10 -10 -10h-292c-9 0 -11 -1 -11 -9c7 -63 55 -101 135 -101c43 0 102 16 125 42c1 1 3 4 6 4s4 -3 4 -10v-69c0 -5 -1 -9 -8 -14c-25 -19 -76 -33 -127 -33c-84 0 -142 32 -181 81c0 1 -1 2 -4 2c-2 0 -3 0 -4 -1c-29 -37 -84 -82 -167 -82z" />
    <glyph glyph-name="six" unicode="6" 
d="M251 -10c-132 0 -211 93 -211 207c0 128 65 144 285 424c5 8 8 9 16 9h92c5 0 7 -1 7 -2s-1 -4 -4 -7l-186 -222c-1 -1 -2 -3 -2 -4c0 -2 2 -3 5 -3h13c116 0 198 -83 198 -195c0 -114 -80 -207 -213 -207zM131 197c0 -72 44 -127 120 -127s122 55 122 127
c0 68 -46 122 -122 122s-120 -54 -120 -122z" />
    <glyph glyph-name="nine" unicode="9" horiz-adv-x="480" 
d="M356 440c0 66 -46 120 -115 120c-71 0 -115 -54 -115 -120c0 -63 46 -115 117 -115c72 0 113 52 113 115zM66 0c-5 0 -7 1 -7 2c0 -1 1 2 4 7l188 237c2 2 2 3 2 4s-1 2 -3 2c-5 -1 -11 -1 -18 -1c-113 0 -196 77 -196 189s77 200 205 200c127 0 205 -88 205 -200
c0 -104 -55 -151 -271 -431c-5 -8 -8 -9 -16 -9h-93z" />
    <glyph glyph-name="seven" unicode="7" horiz-adv-x="407" 
d="M33 0c-4 0 -6 1 -6 4c0 1 1 3 2 6l258 527c1 4 2 6 2 7c0 5 -3 7 -8 7h-248c-8 0 -9 1 -9 9v61c0 8 1 9 9 9h380c4 0 6 -1 6 -4c0 -1 -1 -2 -2 -5l-293 -612c-4 -8 -5 -9 -14 -9h-77z" />
    <glyph glyph-name="dagger" unicode="&#x2020;" horiz-adv-x="422" 
d="M240 550c0 -9 1 -10 10 -10l129 10c9 0 10 -2 10 -10v-53c0 -8 -1 -10 -10 -10l-129 10c-9 0 -10 -1 -10 -10l14 -104v-73l-22 -250c0 -8 -1 -10 -10 -10h-22c-9 0 -10 2 -10 10l-22 250v73l14 104c0 9 -1 10 -10 10l-129 -10c-9 0 -10 2 -10 10v53c0 8 1 10 10 10
l129 -10c9 0 10 1 10 10l-14 150c0 8 1 10 10 10h66c9 0 10 -2 10 -10z" />
    <glyph glyph-name="daggerdbl" unicode="&#x2021;" horiz-adv-x="422" 
d="M180 477c0 9 -1 10 -10 10l-127 -10c-9 0 -10 2 -10 10v53c0 8 1 10 10 10l127 -10c9 0 10 1 10 10l-12 150c0 8 1 10 10 10h66c9 0 10 -2 10 -10l-12 -150c0 -9 1 -10 10 -10l127 10c9 0 10 -2 10 -10v-53c0 -8 -1 -10 -10 -10l-127 10c-9 0 -10 -1 -10 -10l12 -94v-20
l-12 -94c0 -9 1 -10 10 -10l127 10c9 0 10 -2 10 -10v-53c0 -8 -1 -10 -10 -10l-127 10c-9 0 -10 -1 -10 -10l12 -150c0 -8 -1 -10 -10 -10h-66c-9 0 -10 2 -10 10l12 150c0 9 -1 10 -10 10l-127 -10c-9 0 -10 2 -10 10v53c0 8 1 10 10 10l127 -10c9 0 10 1 10 10l-12 94v20
z" />
    <glyph glyph-name="ellipsis" unicode="&#x2026;" horiz-adv-x="683" 
d="M122 -12c-33 0 -62 26 -62 62c0 35 27 62 62 62s62 -28 62 -61c0 -35 -27 -63 -62 -63zM341 -12c-33 0 -62 26 -62 62c0 35 27 62 62 62s62 -28 62 -61c0 -35 -27 -63 -62 -63zM561 -12c-33 0 -62 26 -62 62c0 35 27 62 62 62s62 -28 62 -61c0 -35 -27 -63 -62 -63z" />
    <glyph glyph-name="comma" unicode="," horiz-adv-x="250" 
d="M80 87c1 8 2 10 11 10h78c7 0 10 -3 9 -10l-57 -196c-3 -8 -3 -10 -12 -10h-43c-8 0 -8 3 -8 10z" />
    <glyph glyph-name="four" unicode="4" 
d="M402 9c0 -8 0 -9 -9 -9h-68c-8 0 -9 1 -9 9v83c0 8 -1 9 -9 9h-296c-4 0 -6 1 -6 3c0 1 1 3 2 5l388 542c1 1 3 2 4 2c2 0 3 -1 3 -3v-464c0 -8 1 -9 9 -9h54c8 0 9 -1 9 -9v-58c0 -8 -1 -9 -9 -9h-54c-8 0 -9 -1 -9 -9v-83zM316 400c0 3 -1 4 -2 4l-1 -1
c-1 0 -1 -1 -2 -1l-153 -216c-2 -3 -3 -5 -3 -6c0 -2 2 -3 5 -3h147c8 0 9 1 9 9v214z" />
    <glyph glyph-name="emdash" unicode="&#x2014;" horiz-adv-x="814" 
d="M74 298c0 9 2 10 10 10h646c9 0 10 -1 10 -10v-52c0 -9 -1 -10 -10 -10h-646c-9 0 -10 1 -10 10v52z" />
    <glyph glyph-name="endash" unicode="&#x2013;" horiz-adv-x="488" 
d="M22 298c0 9 2 10 10 10h424c9 0 10 -1 10 -10v-52c0 -9 -1 -10 -10 -10h-424c-9 0 -10 1 -10 10v52z" />
    <glyph glyph-name="five" unicode="5" horiz-adv-x="456" 
d="M99 620c1 9 3 10 12 10h267c9 0 10 -1 10 -10v-58c0 -9 -1 -10 -10 -10h-194c-8 0 -9 -1 -10 -9l-10 -142c0 -9 1 -10 10 -10c19 1 25 2 44 2c128 0 201 -87 201 -199c0 -100 -79 -204 -218 -204c-88 0 -136 35 -171 70c-2 2 -3 4 -3 7c0 2 2 5 5 8l48 48c3 3 6 5 7 5
c2 0 4 -2 7 -6c15 -23 58 -52 107 -52c71 0 125 47 125 123c0 79 -48 127 -133 127c-56 0 -88 -22 -103 -33c-7 -3 -10 -7 -13 -7s-4 3 -4 9z" />
    <glyph glyph-name="colon" unicode=":" horiz-adv-x="250" 
d="M125 328c-33 0 -62 26 -62 62c0 35 27 62 62 62s62 -28 62 -61c0 -35 -27 -63 -62 -63zM125 -12c-33 0 -62 26 -62 62c0 35 27 62 62 62s62 -28 62 -61c0 -35 -27 -63 -62 -63z" />
    <glyph glyph-name="semicolon" unicode=";" horiz-adv-x="250" 
d="M79 87c1 8 2 10 11 10h78c7 0 10 -3 9 -10l-57 -196c-3 -8 -3 -10 -12 -10h-43c-8 0 -8 3 -8 10zM125 328c-33 0 -62 26 -62 62c0 35 27 62 62 62s62 -28 62 -61c0 -35 -27 -63 -62 -63z" />
    <glyph glyph-name="florin" unicode="&#x192;" horiz-adv-x="358" 
d="M108 300c2 9 -1 10 -10 10h-60c-9 0 -10 2 -10 10l-2 48c0 8 1 10 10 10h67c9 0 11 1 12 10l26 166c16 103 61 156 144 156c15 0 33 -1 48 -5c8 -2 9 -3 8 -12l-9 -59c-1 -7 -4 -10 -11 -8c-9 3 -18 4 -28 4c-33 0 -53 -25 -60 -68l-28 -174c-1 -9 -1 -10 8 -10h92
c9 0 10 -2 10 -10l2 -48c0 -8 -1 -10 -10 -10h-99c-9 0 -8 -1 -10 -10l-47 -294c-16 -103 -60 -156 -143 -156c-16 0 -30 1 -46 5c-8 2 -10 3 -8 12l8 59c1 7 5 10 12 8c9 -3 18 -4 27 -4c32 0 52 25 59 68z" />
    <glyph glyph-name="oslash" unicode="&#xf8;" horiz-adv-x="519" 
d="M32 219c0 125 103 228 228 228c53 0 101 -19 140 -50l40 40c2 2 4 3 6 3c1 0 3 -1 6 -3l25 -25c2 -2 3 -4 3 -6s-1 -4 -3 -6l-40 -40c31 -39 50 -88 50 -141c0 -125 -102 -229 -227 -229c-55 0 -103 19 -142 51l-41 -41c-2 -2 -4 -3 -6 -3c-1 0 -3 1 -6 3l-25 25
c-2 2 -3 4 -3 6s1 4 3 6l41 41c-31 39 -49 88 -49 141zM397 219c0 30 -8 58 -21 81l-202 -202c24 -19 52 -28 86 -28c85 0 137 66 137 149zM122 219c0 -31 7 -58 20 -81l201 201c-23 19 -50 28 -83 28c-84 0 -138 -67 -138 -148z" />
    <glyph glyph-name="bullet" unicode="&#x2022;" horiz-adv-x="537" 
d="M121 319c0 81 65 148 148 148s147 -67 147 -148c0 -83 -64 -149 -147 -149s-148 66 -148 149z" />
    <glyph glyph-name="asterisk" unicode="*" horiz-adv-x="331" 
d="M141 456c-9 0 -10 2 -10 10l9 70l-3 2l-59 -40c-6 -4 -10 -3 -14 4l-21 36c-2 3 -2 5 -2 7c0 3 1 5 5 7l67 29v4l-67 30c-7 3 -6 8 -3 14l21 36c3 6 6 9 13 4l60 -42l3 1l-9 72c0 8 1 10 10 10h48c9 0 10 -2 10 -10l-9 -71l3 -2l60 42c6 4 9 4 13 -4l21 -36
c4 -6 3 -11 -3 -14l-66 -31v-3l66 -29c9 -4 8 -6 3 -14l-21 -36c-4 -7 -7 -9 -14 -4l-58 40l-3 -2l8 -70c0 -8 -1 -10 -10 -10h-48z" />
    <glyph glyph-name="dollar" unicode="$" horiz-adv-x="511" 
d="M367 197c0 59 -33 77 -84 104v-195c44 3 84 33 84 91zM220 596c-42 -3 -78 -21 -78 -78c0 -52 30 -78 78 -100v178zM220 106v213l-24 11c-91 42 -140 95 -140 180c0 81 54 157 164 167v63c0 9 1 10 10 10h43c9 0 10 -1 10 -10v-63c42 0 95 -21 125 -40c5 -3 8 -6 8 -10
v-89c0 -5 -1 -7 -4 -7c-2 0 -4 1 -5 2c-38 38 -83 63 -124 63v-199l40 -19c89 -44 132 -97 132 -170c0 -111 -73 -167 -172 -183v-65c0 -9 -1 -10 -10 -10h-43c-9 0 -10 1 -10 10v65c-42 0 -110 21 -140 40c-5 3 -8 6 -8 10v89c0 5 1 7 4 7c2 0 4 -1 5 -2
c38 -38 98 -63 139 -63z" />
    <glyph glyph-name="parenleft" unicode="(" horiz-adv-x="262" 
d="M143 -135c-50 111 -97 268 -97 434c0 167 46 317 97 427c2 5 4 7 7 7c2 0 4 0 5 -1l66 -29c3 -1 5 -3 5 -6c0 -2 0 -4 -1 -5c-45 -95 -89 -238 -89 -393c0 -157 44 -305 89 -400c1 -1 1 -3 1 -5c0 -3 -2 -5 -5 -6l-66 -29c-1 -1 -3 -1 -5 -1c-3 0 -5 2 -7 7z" />
    <glyph glyph-name="parenright" unicode=")" horiz-adv-x="262" 
d="M119 -135c-2 -5 -4 -7 -7 -7c-2 0 -4 0 -5 1l-66 29c-3 1 -5 3 -5 6c0 2 0 4 1 5c45 95 89 243 89 400c0 155 -44 298 -89 393c-1 1 -1 3 -1 5c0 3 2 5 5 6l66 29c1 1 3 1 5 1c3 0 5 -2 7 -7c51 -110 97 -260 97 -427c0 -166 -47 -323 -97 -434z" />
    <glyph glyph-name="quoteleft" unicode="&#x2018;" horiz-adv-x="200" 
d="M138 494c-1 -8 -2 -10 -11 -10h-78c-7 0 -10 3 -9 10l57 196c3 8 3 10 12 10h43c8 0 8 -3 8 -10z" />
    <glyph glyph-name="quoteright" unicode="&#x2019;" horiz-adv-x="200" 
d="M61 690c1 8 2 10 11 10h78c7 0 10 -3 9 -10l-57 -196c-3 -8 -3 -10 -12 -10h-43c-8 0 -8 3 -8 10z" />
    <glyph glyph-name="quotedblleft" unicode="&#x201c;" horiz-adv-x="350" 
d="M138 494c-1 -8 -2 -10 -11 -10h-78c-7 0 -10 3 -9 10l57 196c3 8 3 10 12 10h43c8 0 8 -3 8 -10zM288 494c-1 -8 -2 -10 -11 -10h-78c-7 0 -10 3 -9 10l57 196c3 8 3 10 12 10h43c8 0 8 -3 8 -10z" />
    <glyph glyph-name="quotedblright" unicode="&#x201d;" horiz-adv-x="350" 
d="M211 690c1 8 2 10 11 10h78c7 0 10 -3 9 -10l-57 -196c-3 -8 -3 -10 -12 -10h-43c-8 0 -8 3 -8 10zM61 690c1 8 2 10 11 10h78c7 0 10 -3 9 -10l-57 -196c-3 -8 -3 -10 -12 -10h-43c-8 0 -8 3 -8 10z" />
    <glyph glyph-name="quotedblbase" unicode="&#x201e;" horiz-adv-x="350" 
d="M212 87c1 8 2 10 11 10h78c7 0 10 -3 9 -10l-57 -196c-3 -8 -3 -10 -12 -10h-43c-8 0 -8 3 -8 10zM62 87c1 8 2 10 11 10h78c7 0 10 -3 9 -10l-57 -196c-3 -8 -3 -10 -12 -10h-43c-8 0 -8 3 -8 10z" />
    <glyph glyph-name="quotesinglbase" unicode="&#x201a;" horiz-adv-x="200" 
d="M61 87c1 8 2 10 11 10h78c7 0 10 -3 9 -10l-57 -196c-3 -8 -3 -10 -12 -10h-43c-8 0 -8 3 -8 10z" />
    <glyph glyph-name="bracketleft" unicode="[" horiz-adv-x="300" 
d="M71 721c0 9 1 10 10 10h180c9 0 10 -1 10 -10v-55c0 -9 -1 -10 -10 -10h-90c-9 0 -10 -1 -10 -10v-701c0 -9 1 -10 10 -10h95c9 0 10 -1 10 -10v-55c0 -9 -1 -10 -10 -10h-185c-9 0 -10 1 -10 10v851z" />
    <glyph glyph-name="bracketright" unicode="]" horiz-adv-x="300" 
d="M229 -130c0 -9 -1 -10 -10 -10h-185c-9 0 -10 1 -10 10v55c0 9 1 10 10 10h95c9 0 10 1 10 10v701c0 9 -1 10 -10 10h-90c-9 0 -10 1 -10 10v55c0 9 1 10 10 10h180c9 0 10 -1 10 -10v-851z" />
    <glyph glyph-name="bar" unicode="|" horiz-adv-x="250" 
d="M87 740c0 8 1 10 10 10h56c9 0 10 -2 10 -10v-980c0 -8 -1 -10 -10 -10h-56c-9 0 -10 2 -10 10v980z" />
    <glyph glyph-name="acute" unicode="&#xb4;" 
d="M288 640c6 8 8 10 16 10h96c9 0 12 -1 4 -10l-121 -124c-8 -8 -10 -10 -18 -10h-71c-10 0 -7 4 -2 10z" />
    <glyph glyph-name="Oacute" unicode="&#xd3;" horiz-adv-x="792" 
d="M746 350c0 -196 -154 -360 -350 -360s-350 164 -350 360s154 360 350 360s350 -164 350 -360zM154 350c0 -142 101 -263 242 -263s242 121 242 263s-101 263 -242 263s-242 -121 -242 -263zM433 884c6 8 8 10 16 10h96c9 0 12 -1 4 -10l-121 -124c-8 -8 -10 -10 -18 -10
h-71c-10 0 -7 4 -2 10z" />
    <glyph glyph-name="uacute" unicode="&#xfa;" horiz-adv-x="472" 
d="M236 70c53 0 94 34 94 103v254c0 8 1 10 10 10h68c9 0 10 -2 10 -10v-260c0 -98 -61 -177 -182 -177s-182 79 -182 177v260c0 8 1 10 10 10h68c9 0 10 -2 10 -10v-254c0 -69 41 -103 94 -103zM269 640c6 8 8 10 16 10h96c9 0 12 -1 4 -10l-121 -124
c-8 -8 -10 -10 -18 -10h-71c-10 0 -7 4 -2 10z" />
    <glyph glyph-name="grave" unicode="`" 
d="M212 640l96 -124c5 -6 8 -10 -2 -10h-71c-8 0 -10 2 -18 10l-121 124c-8 9 -5 10 4 10h96c8 0 10 -2 16 -10z" />
    <glyph glyph-name="Ograve" unicode="&#xd2;" horiz-adv-x="792" 
d="M746 350c0 -196 -154 -360 -350 -360s-350 164 -350 360s154 360 350 360s350 -164 350 -360zM154 350c0 -142 101 -263 242 -263s242 121 242 263s-101 263 -242 263s-242 -121 -242 -263zM372 884l96 -124c5 -6 8 -10 -2 -10h-71c-8 0 -10 2 -18 10l-121 124
c-8 9 -5 10 4 10h96c8 0 10 -2 16 -10z" />
    <glyph glyph-name="ugrave" unicode="&#xf9;" horiz-adv-x="472" 
d="M236 70c53 0 94 34 94 103v254c0 8 1 10 10 10h68c9 0 10 -2 10 -10v-260c0 -98 -61 -177 -182 -177s-182 79 -182 177v260c0 8 1 10 10 10h68c9 0 10 -2 10 -10v-254c0 -69 41 -103 94 -103zM201 640l96 -124c5 -6 8 -10 -2 -10h-71c-8 0 -10 2 -18 10l-121 124
c-8 9 -5 10 4 10h96c8 0 10 -2 16 -10z" />
    <glyph glyph-name="circumflex" unicode="&#x2c6;" 
d="M191 640c7 8 11 10 19 10h76c7 0 14 -3 19 -10l108 -124c2 -3 3 -5 3 -7s-2 -3 -6 -3h-62c-9 0 -12 5 -17 10l-75 75c-1 1 -3 2 -6 2s-5 -1 -6 -2l-73 -75c-5 -5 -8 -10 -17 -10h-64c-4 0 -6 1 -6 3s1 4 3 7z" />
    <glyph glyph-name="brokenbar" unicode="&#xa6;" horiz-adv-x="250" 
d="M87 740c0 8 1 10 10 10h56c9 0 10 -2 10 -10v-400c0 -8 -1 -10 -10 -10h-56c-9 0 -10 2 -10 10v400zM87 160c0 8 1 10 10 10h56c9 0 10 -2 10 -10v-400c0 -8 -1 -10 -10 -10h-56c-9 0 -10 2 -10 10v400z" />
    <glyph glyph-name="caron" unicode="&#x2c7;" 
d="M309 516c-5 -7 -12 -10 -19 -10h-76c-8 0 -14 3 -19 10l-108 124c-2 3 -3 5 -3 7s2 3 6 3h62c9 0 12 -5 17 -10l75 -75c1 -1 3 -2 6 -2s5 1 6 2l73 75c5 5 8 10 17 10h64c4 0 6 -1 6 -3s-1 -4 -3 -7z" />
    <glyph glyph-name="Zcaron" unicode="&#x17d;" horiz-adv-x="486" 
d="M178 106c-1 -3 -2 -6 -2 -9c0 -4 2 -6 6 -6h247c9 0 10 -1 10 -10v-71c0 -9 -1 -10 -10 -10h-401c-5 0 -7 2 -7 5c0 1 1 3 2 6l282 583c2 4 3 7 3 10s-2 5 -7 5h-244c-9 0 -10 1 -10 10v71c0 9 1 10 10 10h396c5 0 7 -1 7 -4c0 -1 -1 -3 -2 -6zM302 760
c-5 -7 -12 -10 -19 -10h-76c-8 0 -14 3 -19 10l-108 124c-2 3 -3 5 -3 7s2 3 6 3h62c9 0 12 -5 17 -10l75 -75c1 -1 3 -2 6 -2s5 1 6 2l73 75c5 5 8 10 17 10h64c4 0 6 -1 6 -3s-1 -4 -3 -7z" />
    <glyph glyph-name="Scaron" unicode="&#x160;" horiz-adv-x="503" 
d="M43 107c-2 3 -3 5 -3 7s2 5 5 8l55 55c3 3 6 5 7 5c2 0 4 -2 7 -6c43 -71 86 -92 142 -92c68 0 106 45 106 97c0 147 -297 145 -297 349c0 100 77 180 192 180c77 0 135 -27 178 -87c2 -3 3 -6 3 -7c0 -2 -2 -5 -5 -8l-49 -49c-3 -3 -6 -5 -7 -5c-2 0 -4 2 -7 6
c-23 37 -59 58 -111 58c-59 0 -90 -37 -90 -88c0 -128 298 -128 298 -344c0 -116 -79 -196 -215 -196c-83 0 -169 45 -209 117zM312 760c-5 -7 -12 -10 -19 -10h-76c-8 0 -14 3 -19 10l-108 125c-2 3 -3 5 -3 7s2 3 6 3h62c9 0 12 -5 17 -10l75 -75c1 -1 3 -2 6 -2s5 1 6 2
l73 75c5 5 8 10 17 10h64c4 0 6 -1 6 -3s-1 -4 -3 -7z" />
    <glyph glyph-name="exclam" unicode="!" horiz-adv-x="284" 
d="M87 690c0 9 0 10 9 10h92c9 0 9 -1 9 -10l-20 -491c0 -9 -2 -10 -11 -10h-48c-9 0 -11 1 -11 10zM142 -12c-33 0 -62 26 -62 62c0 35 27 62 62 62s62 -28 62 -61c0 -35 -27 -63 -62 -63z" />
    <glyph glyph-name="question" unicode="?" horiz-adv-x="420" 
d="M203 -12c-33 0 -62 26 -62 62c0 35 27 62 62 62s62 -28 62 -61c0 -35 -27 -63 -62 -63zM215 627c-62 0 -93 -35 -93 -105c0 -7 -1 -10 -10 -10h-67c-6 0 -9 3 -9 9v16c0 99 58 175 181 175c116 0 179 -63 179 -162c0 -134 -164 -182 -164 -294v-57c0 -9 -2 -10 -11 -10
h-48c-9 0 -9 1 -12 10s-7 41 -7 76c0 128 145 172 145 266c0 55 -28 86 -84 86z" />
    <glyph glyph-name="currency" unicode="&#xa4;" horiz-adv-x="586" 
d="M427 372c0 73 -57 137 -134 137c-73 0 -133 -63 -133 -137c0 -75 60 -137 133 -137c77 0 134 64 134 137zM505 372c0 -55 -22 -90 -37 -113c-1 -3 -2 -4 -2 -5s0 -2 1 -3l79 -79c1 -1 2 -3 2 -4s-1 -3 -2 -4l-44 -44c-1 -1 -3 -2 -4 -2s-3 1 -4 2l-79 79c-1 1 -3 2 -4 2
s-3 -1 -4 -2c-21 -15 -57 -37 -113 -37c-57 0 -93 21 -116 36c-1 1 -3 2 -4 2s-3 -1 -4 -2l-79 -79c-1 -1 -3 -2 -4 -2s-3 1 -4 2l-44 44c-1 1 -2 3 -2 4s1 3 2 4l79 79c1 1 1 2 1 3s-1 2 -2 5c-15 20 -35 58 -35 114s20 94 35 114c1 3 2 4 2 5s0 2 -1 3l-79 79
c-1 1 -2 3 -2 4s1 3 2 4l44 44c1 1 3 2 4 2s3 -1 4 -2l79 -79c1 -1 3 -2 4 -2s3 1 4 2c23 15 59 36 116 36c56 0 92 -22 113 -37c1 -1 3 -2 4 -2s3 1 4 2l79 79c1 1 3 2 4 2s3 -1 4 -2l44 -44c1 -1 2 -3 2 -4s-1 -3 -2 -4l-79 -79c-1 -1 -1 -2 -1 -3s1 -2 2 -5
c15 -23 37 -58 37 -113z" />
    <glyph glyph-name="germandbls" unicode="&#xdf;" horiz-adv-x="545" 
d="M150 10c0 -8 -1 -10 -10 -10h-68c-9 0 -10 2 -10 10v567c0 129 80 188 189 188s185 -68 185 -182c0 -56 -39 -105 -69 -135c-1 -1 -2 -3 -2 -4c0 -2 2 -4 5 -5c68 -27 135 -82 135 -210c0 -132 -80 -239 -243 -239h-14c-9 0 -10 2 -10 10v60c0 8 1 10 10 10h14
c99 0 151 59 151 159c0 67 -21 119 -90 144c-16 7 -47 9 -71 9h-19c-9 0 -10 2 -10 10v60c0 8 1 10 10 10h32c45 8 83 68 83 122c0 60 -37 101 -97 101c-59 0 -101 -29 -101 -117v-558z" />
    <glyph glyph-name="Euro" unicode="&#x20ac;" horiz-adv-x="563" 
d="M208 320c0 -9 1 -10 10 -10h164c9 0 10 -2 10 -10v-48c0 -8 -1 -10 -10 -10h-159c-7 0 -10 -2 -10 -7c3 -99 66 -161 158 -161c66 0 109 21 150 62c1 1 3 2 5 2c3 0 4 -2 4 -7v-91c0 -4 -3 -7 -8 -10c-48 -24 -83 -40 -151 -40c-150 0 -244 105 -255 250c-1 1 -4 2 -8 2
h-58c-9 0 -10 2 -10 10v48c0 8 1 10 10 10h50c9 0 10 1 10 10v50c0 9 -1 10 -10 10h-50c-9 0 -10 2 -10 10v48c0 8 1 10 10 10h55c8 0 11 0 11 8c9 147 102 254 255 254c64 0 103 -16 151 -40c5 -3 8 -6 8 -10v-91c0 -5 -1 -7 -4 -7c-2 0 -4 1 -5 2c-41 41 -85 62 -150 62
c-101 0 -156 -71 -159 -173c0 -3 3 -5 10 -5h160c9 0 10 -2 10 -10v-48c0 -8 -1 -10 -10 -10h-164c-9 0 -10 -1 -10 -10v-50z" />
    <glyph glyph-name="questiondown" unicode="&#xbf;" horiz-adv-x="420" 
d="M217 712c33 0 62 -26 62 -62c0 -35 -27 -62 -62 -62s-62 28 -62 61c0 35 27 63 62 63zM205 73c62 0 93 35 93 105c0 7 1 10 10 10h67c6 0 9 -3 9 -9v-16c0 -99 -58 -175 -181 -175c-116 0 -179 63 -179 162c0 134 164 182 164 294v57c0 9 2 10 11 10h48c9 0 9 -1 12 -10
s7 -41 7 -76c0 -128 -145 -172 -145 -266c0 -55 28 -86 84 -86z" />
    <glyph glyph-name="uni00AD" unicode="&#xad;" horiz-adv-x="312" 
d="M56 300c0 9 2 10 10 10h180c9 0 10 -1 10 -10v-60c0 -9 -1 -10 -10 -10h-180c-9 0 -10 1 -10 10v60z" />
    <glyph glyph-name="guilsinglleft" unicode="&#x2039;" horiz-adv-x="300" 
d="M55 214c-1 3 -2 5 -2 6s1 3 2 6l121 203c2 4 4 6 7 6c1 0 4 -1 7 -3l55 -32c4 -2 6 -4 6 -7c0 -1 -1 -3 -2 -6l-97 -159c-3 -5 -3 -8 -3 -11s1 -6 3 -10l97 -157c2 -3 3 -5 3 -6c0 -2 -2 -4 -7 -7l-55 -32c-3 -2 -6 -3 -7 -3c-3 0 -5 2 -7 6z" />
    <glyph glyph-name="guilsinglright" unicode="&#x203a;" horiz-adv-x="300" 
d="M245 214l-121 -206c-2 -4 -4 -6 -7 -6c-1 0 -4 1 -7 3l-55 32c-5 3 -7 5 -7 7c0 1 1 3 3 6l97 157c2 4 3 7 3 10s0 6 -3 11l-97 159c-1 3 -2 5 -2 6c0 3 2 5 6 7l55 32c3 2 6 3 7 3c3 0 5 -2 7 -6l121 -203c1 -3 2 -5 2 -6s-1 -3 -2 -6z" />
    <glyph glyph-name="guillemotleft" unicode="&#xab;" 
d="M55 214c-1 3 -2 5 -2 6s1 3 2 6l121 203c2 4 4 6 7 6c1 0 4 -1 7 -3l55 -32c4 -2 6 -4 6 -7c0 -1 -1 -3 -2 -6l-97 -159c-3 -5 -3 -8 -3 -11s1 -6 3 -10l97 -157c2 -3 3 -5 3 -6c0 -2 -2 -4 -7 -7l-55 -32c-3 -2 -6 -3 -7 -3c-3 0 -5 2 -7 6zM255 214c-1 3 -2 5 -2 6
s1 3 2 6l121 203c2 4 4 6 7 6c1 0 4 -1 7 -3l55 -32c4 -2 6 -4 6 -7c0 -1 -1 -3 -2 -6l-97 -159c-3 -5 -3 -8 -3 -11s1 -6 3 -10l97 -157c2 -3 3 -5 3 -6c0 -2 -2 -4 -7 -7l-55 -32c-3 -2 -6 -3 -7 -3c-3 0 -5 2 -7 6z" />
    <glyph glyph-name="guillemotright" unicode="&#xbb;" 
d="M445 214l-121 -206c-2 -4 -4 -6 -7 -6c-1 0 -4 1 -7 3l-55 32c-5 3 -7 5 -7 7c0 1 1 3 3 6l97 157c2 4 3 7 3 10s0 6 -3 11l-97 159c-1 3 -2 5 -2 6c0 3 2 5 6 7l55 32c3 2 6 3 7 3c3 0 5 -2 7 -6l121 -203c1 -3 2 -5 2 -6s-1 -3 -2 -6zM245 214l-121 -206
c-2 -4 -4 -6 -7 -6c-1 0 -4 1 -7 3l-55 32c-5 3 -7 5 -7 7c0 1 1 3 3 6l97 157c2 4 3 7 3 10s0 6 -3 11l-97 159c-1 3 -2 5 -2 6c0 3 2 5 6 7l55 32c3 2 6 3 7 3c3 0 5 -2 7 -6l121 -203c1 -3 2 -5 2 -6s-1 -3 -2 -6z" />
    <glyph glyph-name="cedilla" unicode="&#xb8;" 
d="M345 -97c0 -62 -46 -114 -111 -114c-25 0 -51 3 -74 19c-4 3 -6 7 -5 12l8 43c1 7 5 9 11 5c16 -10 30 -16 50 -16c26 0 49 16 49 53c0 30 -26 48 -62 48c-6 0 -11 0 -21 -1c-9 -1 -12 1 -9 14l8 43h28c60 0 128 -35 128 -106z" />
    <glyph glyph-name="ccedilla" unicode="&#xe7;" horiz-adv-x="412" 
d="M155 -132c16 -10 30 -16 50 -16c26 0 49 16 49 53c0 30 -26 48 -62 48c-6 0 -11 0 -21 -1c-9 -1 -12 1 -9 14l7 35c1 4 0 7 -5 9c-80 35 -132 114 -132 209c0 128 96 228 227 228c35 0 77 -8 106 -21c7 -3 8 -5 8 -10v-82c0 -5 -1 -7 -4 -7c-1 0 -3 1 -5 2
c-23 23 -59 38 -103 38c-88 0 -139 -64 -139 -148c0 -86 51 -149 139 -149c47 0 83 15 107 42c1 1 2 1 4 1c3 0 4 -2 4 -7v-83c0 -5 -1 -7 -8 -10c-23 -12 -56 -19 -85 -22c-3 -1 -4 -2 -4 -4s1 -3 3 -4c27 -17 44 -43 44 -80c0 -62 -46 -114 -111 -114c-25 0 -51 3 -74 19
c-4 3 -6 7 -5 12l8 43c1 7 5 9 11 5z" />
    <glyph glyph-name="Ccedilla" unicode="&#xc7;" horiz-adv-x="622" 
d="M445 -97c0 -62 -46 -114 -111 -114c-25 0 -51 3 -74 19c-4 3 -6 7 -5 12l8 43c1 7 5 9 11 5c16 -10 30 -16 50 -16c26 0 49 16 49 53c0 30 -26 48 -62 48c-6 0 -11 0 -21 -1c-9 -1 -11 1 -9 14l6 32c1 7 1 9 -7 12c-147 48 -234 186 -234 340c0 196 137 360 360 360
c59 0 112 -16 160 -40c5 -3 8 -6 8 -10v-107c0 -5 -1 -7 -4 -7c-2 0 -4 1 -5 2c-41 41 -94 65 -159 65c-165 0 -252 -128 -252 -263s87 -263 252 -263c65 0 118 24 159 65c1 1 3 2 5 2c3 0 4 -2 4 -7v-107c0 -4 -3 -7 -8 -10c-48 -24 -104 -39 -163 -39c-3 0 -5 -1 -5 -4
c0 -2 1 -4 3 -5c27 -17 44 -42 44 -79z" />
    <glyph glyph-name="eth" unicode="&#xf0;" horiz-adv-x="525" 
d="M122 219c0 -83 55 -149 138 -149c84 0 137 66 137 149c0 81 -53 148 -137 148c-83 0 -138 -67 -138 -148zM325 603c96 -112 159 -240 162 -379v-5c0 -125 -102 -229 -227 -229s-228 104 -228 229s91 226 222 226c35 0 69 -11 85 -19c2 -1 3 0 3 3c0 1 0 3 -1 4
c-27 51 -52 88 -88 131c-5 7 -7 7 -15 3l-94 -53c-5 -3 -10 -2 -13 4l-24 44c-4 7 -4 9 3 14l79 44c4 2 6 4 6 6s-2 4 -4 6c-23 23 -59 56 -82 73c-5 4 -6 8 -1 13l37 37c5 5 6 6 13 1c31 -23 66 -53 98 -86c5 -5 10 -5 16 -2l94 54c5 3 10 2 13 -4l28 -45c4 -7 4 -9 -3 -14
l-76 -43c-7 -4 -10 -6 -3 -13z" />
    <glyph glyph-name="tilde" unicode="&#x2dc;" 
d="M99 518c-9 0 -10 2 -10 10v14c0 53 34 98 93 98c84 0 88 -59 130 -59c18 0 34 12 34 35v11c0 8 1 10 10 10h44c9 0 10 -2 10 -10v-15c0 -53 -30 -97 -89 -97c-86 0 -90 59 -134 59c-18 0 -34 -13 -34 -36v-10c0 -8 -1 -10 -10 -10h-44z" />
    <glyph glyph-name="pi" unicode="&#x3c0;" horiz-adv-x="532" 
d="M351 0c-9 0 -10 2 -10 10v337c0 9 -1 10 -10 10h-130c-9 0 -10 -1 -10 -10v-337c0 -8 -1 -10 -10 -10h-68c-9 0 -10 2 -10 10v337c0 9 -1 10 -10 10h-52c-9 0 -10 2 -10 10v60c0 8 1 10 10 10h450c9 0 10 -2 10 -10v-60c0 -8 -1 -10 -10 -10h-52c-9 0 -10 -1 -10 -10
v-337c0 -8 -1 -10 -10 -10h-68z" />
    <glyph glyph-name="copyright" unicode="&#xa9;" horiz-adv-x="520" 
d="M269 395c32 0 56 12 72 26c3 3 5 4 6 4c2 0 4 -3 4 -8v-41c0 -9 -2 -11 -7 -14c-17 -11 -45 -21 -75 -21c-87 0 -136 65 -136 140c0 76 45 139 136 139c28 0 56 -10 75 -19c7 -3 7 -5 7 -14v-42c0 -5 0 -8 -3 -8c-2 0 -4 0 -7 3c-14 12 -41 26 -72 26
c-54 0 -76 -43 -76 -85c0 -46 22 -86 76 -86zM32 481c0 125 103 228 228 228s228 -103 228 -228s-103 -229 -228 -229s-228 104 -228 229zM88 481c0 -103 70 -183 172 -183c104 0 172 80 172 183c0 101 -68 182 -172 182c-102 0 -172 -81 -172 -182z" />
    <glyph glyph-name="registered" unicode="&#xae;" horiz-adv-x="520" 
d="M32 481c0 125 103 228 228 228s228 -103 228 -228s-103 -229 -228 -229s-228 104 -228 229zM88 481c0 -103 70 -183 172 -183c104 0 172 80 172 183c0 101 -68 182 -172 182c-102 0 -172 -81 -172 -182zM260 496c27 0 40 11 40 36s-13 35 -40 35h-25c-9 0 -10 -1 -10 -10
v-52c0 -8 1 -9 10 -9h25zM182 355c-9 0 -10 1 -10 10v239c0 9 1 10 10 10h88c55 0 86 -32 86 -80c0 -37 -19 -56 -46 -69c-1 -1 -2 -1 -2 -3c0 -1 1 -3 3 -6l50 -91c2 -4 3 -6 3 -7c0 -2 -3 -3 -8 -3h-45c-7 0 -8 1 -12 8l-39 76c-4 9 -6 10 -12 10h-13c-9 0 -10 -1 -10 -10
v-74c0 -9 -1 -10 -10 -10h-33z" />
    <glyph glyph-name="zero.lining" horiz-adv-x="562" 
d="M513 350c0 -220 -73 -360 -232 -360c-161 0 -232 140 -232 360s71 360 232 360c159 0 232 -140 232 -360zM153 350c0 -146 32 -268 128 -268s128 122 128 268s-32 268 -128 268s-128 -122 -128 -268z" />
    <glyph glyph-name="one.lining" horiz-adv-x="327" 
d="M254 10c0 -9 -1 -10 -10 -10h-78c-9 0 -10 1 -10 10v549c0 11 0 15 -11 11l-98 -32c-9 -3 -11 -4 -11 7v70c0 11 2 12 11 15l196 69c11 3 11 2 11 -9v-680z" />
    <glyph glyph-name="two.lining" horiz-adv-x="550" 
d="M66 498c0 115 76 212 212 212c139 0 215 -86 215 -213c0 -99 -38 -179 -153 -302l-89 -94c-5 -7 -9 -7 -9 -10c0 -2 3 -3 10 -3h229c9 0 10 -1 10 -10v-68c0 -9 -1 -10 -10 -10h-435c-5 0 -8 3 -8 8c0 8 6 12 7 13l242 258c76 83 103 147 103 215c0 75 -36 125 -119 125
c-69 0 -103 -50 -103 -121c0 -9 -1 -10 -10 -10h-82c-9 0 -10 1 -10 10z" />
    <glyph glyph-name="three.lining" horiz-adv-x="540" 
d="M60 537c5 97 80 173 195 173c123 0 204 -81 204 -185c0 -57 -28 -107 -73 -142c64 -39 106 -104 106 -179c0 -121 -97 -214 -232 -214c-127 0 -208 76 -224 181c-1 5 1 8 8 8h85c5 0 8 -2 9 -7c12 -53 55 -92 122 -92c79 0 129 49 129 124c0 71 -49 122 -129 122h-55
c-8 0 -10 1 -10 10v67c0 9 2 10 10 10h58c61 0 96 52 96 112c0 59 -36 99 -104 99c-59 0 -94 -38 -98 -87c0 -9 -1 -10 -10 -10h-77c-9 0 -10 1 -10 10z" />
    <glyph glyph-name="four.lining" horiz-adv-x="533" 
d="M435 10c0 -9 -1 -10 -10 -10h-75c-9 0 -10 1 -10 10v92c0 9 -1 10 -10 10h-327c-5 0 -7 1 -7 3s1 4 3 6l431 597c1 1 2 2 3 2s2 -1 2 -2v-508c0 -9 1 -10 10 -10h54c9 0 10 -1 10 -10v-68c0 -9 -1 -10 -10 -10h-54c-9 0 -10 -1 -10 -10v-92zM340 444c0 3 -1 5 -2 5
s-2 -1 -4 -3l-168 -236c-3 -4 -4 -6 -4 -7c0 -2 2 -3 6 -3h162c9 0 10 1 10 10v234z" />
    <glyph glyph-name="five.lining" horiz-adv-x="498" 
d="M108 138c23 -32 60 -58 120 -58c81 0 139 50 139 134c0 92 -50 142 -146 142c-64 0 -101 -26 -118 -38c-5 -3 -8 -5 -11 -5c-4 0 -6 3 -6 8l30 369c1 9 4 10 13 10h297c9 0 10 -1 10 -10v-67c0 -9 -1 -10 -10 -10h-217c-9 0 -11 -1 -12 -10l-11 -159c0 -9 1 -10 10 -10
c11 1 30 3 51 3c144 0 223 -96 223 -220s-96 -227 -242 -227c-95 0 -150 34 -191 79c-2 3 -3 5 -3 7s2 5 5 8l55 55c3 3 6 5 7 5c2 0 4 -2 7 -6z" />
    <glyph glyph-name="six.lining" horiz-adv-x="548" 
d="M266 444c-4 -5 -3 -7 4 -7h14c129 0 220 -93 220 -217c0 -127 -88 -230 -237 -230c-147 0 -234 103 -234 230c0 143 73 158 317 470c5 9 8 10 17 10h103c5 0 7 -1 7 -2c0 -2 -1 -5 -4 -8zM135 220c0 -79 49 -140 132 -140c84 0 135 61 135 140c0 75 -51 134 -135 134
c-83 0 -132 -59 -132 -134z" />
    <glyph glyph-name="seven.lining" horiz-adv-x="462" 
d="M45 0c-5 0 -7 2 -7 5c0 1 1 3 2 6l287 586c1 4 2 6 2 7c0 5 -3 8 -8 8h-265c-9 0 -10 1 -10 10v68c0 9 1 10 10 10h411c5 0 7 -1 7 -4c0 -1 -1 -3 -2 -6l-326 -680c-5 -9 -5 -10 -16 -10h-85z" />
    <glyph glyph-name="eight.lining" horiz-adv-x="559" 
d="M86 529c0 101 78 183 194 183s195 -82 195 -183c0 -57 -27 -110 -72 -145c64 -39 105 -105 105 -180c0 -117 -91 -214 -229 -214c-139 0 -228 97 -228 214c0 75 40 141 105 180c-44 35 -70 89 -70 145zM149 204c0 -65 55 -126 130 -126s131 61 131 126
c0 72 -50 131 -131 131s-130 -59 -130 -131zM181 529c0 -57 38 -102 98 -102s101 45 101 102c0 51 -40 99 -100 99s-99 -48 -99 -99z" />
    <glyph glyph-name="nine.lining" horiz-adv-x="532" 
d="M403 489c0 72 -48 132 -125 132s-127 -60 -127 -132c0 -69 50 -127 127 -127c78 0 125 58 125 127zM286 271c1 1 2 3 2 4c0 3 -5 3 -11 3h-11c-126 0 -216 86 -216 211c0 123 86 222 228 222c141 0 226 -99 226 -222c0 -117 -61 -167 -302 -480c-5 -9 -8 -10 -17 -10
h-104c-5 0 -8 1 -8 2s2 4 5 8z" />
    <glyph glyph-name="periodcentered" unicode="&#xb7;" horiz-adv-x="250" 
d="M125 256c-33 0 -62 26 -62 62c0 35 27 62 62 62s62 -28 62 -61c0 -35 -27 -63 -62 -63z" />
    <glyph glyph-name="cent" unicode="&#xa2;" horiz-adv-x="426" 
d="M382 13c-27 -13 -62 -19 -93 -22v-31c0 -9 -1 -10 -10 -10h-38c-9 0 -10 1 -10 10v33c-112 16 -190 111 -190 226c0 114 78 208 190 224v47c0 9 1 10 10 10h38c9 0 10 -1 10 -10v-45c31 -3 65 -9 90 -20c7 -3 8 -5 8 -10v-81c0 -5 -1 -7 -4 -7c-1 0 -3 1 -5 2
c-21 20 -52 34 -89 37v-296c39 3 70 15 93 40c1 1 2 1 4 1c3 0 4 -2 4 -7v-81c0 -5 -1 -7 -8 -10zM131 219c0 -73 36 -129 100 -145v288c-64 -16 -100 -72 -100 -143z" />
    <glyph glyph-name="section" unicode="&#xa7;" horiz-adv-x="513" 
d="M254 -230c-84 0 -171 45 -211 117c-2 3 -3 5 -3 7s2 5 5 8l50 50c3 3 6 5 7 5c2 0 4 -2 7 -6c43 -71 88 -99 152 -99c68 0 105 38 105 90c0 43 -21 82 -123 133c-142 70 -186 113 -186 198c0 54 31 98 76 128c3 2 4 4 4 5s-1 3 -4 6c-42 33 -57 77 -57 128
c0 93 81 170 184 170c73 0 139 -26 182 -90c2 -3 3 -6 3 -7c0 -2 -2 -5 -5 -8l-48 -48c-3 -3 -6 -5 -7 -5c-2 0 -4 2 -7 6c-23 43 -65 72 -112 72c-60 0 -100 -29 -100 -85c0 -45 35 -82 123 -128c141 -72 194 -116 194 -215c0 -60 -23 -105 -64 -136c-3 -2 -4 -4 -4 -5
s1 -3 4 -5c26 -32 39 -71 39 -112c0 -104 -77 -174 -204 -174zM337 121c4 -2 8 -2 12 -1c33 14 48 43 48 80c0 51 -47 90 -150 141l-33 16c-4 2 -7 2 -11 1c-36 -11 -60 -38 -60 -80c0 -54 51 -82 140 -128z" />
    <glyph glyph-name="at" unicode="@" horiz-adv-x="760" 
d="M351 104c68 0 109 54 109 131c0 65 -33 95 -82 95c-74 0 -109 -63 -109 -128c0 -49 31 -98 82 -98zM481 350l8 37c2 9 4 9 12 9h57c8 0 9 0 7 -9l-40 -216c-3 -15 -6 -34 -6 -49s5 -28 20 -28c41 0 99 68 99 170c0 156 -105 236 -246 236c-156 0 -268 -125 -268 -285
c0 -180 115 -291 284 -291c77 0 156 17 197 58c1 1 3 2 5 2c3 0 4 -2 4 -7v-78c0 -4 -3 -7 -8 -10c-48 -24 -116 -40 -196 -40c-221 0 -369 137 -369 366c0 208 157 359 354 359c172 0 325 -116 325 -299c0 -123 -84 -245 -196 -245c-30 0 -51 19 -61 49c-1 2 -2 3 -4 3
s-3 -1 -4 -3c-30 -30 -63 -51 -115 -51c-79 0 -151 74 -151 166c0 115 67 211 183 211c43 0 83 -20 101 -55c1 -2 2 -3 4 -3s3 1 4 3z" />
    <glyph glyph-name="quotesingle" unicode="'" horiz-adv-x="200" 
d="M139 700c9 0 10 -2 9 -10l-19 -204c-1 -8 -2 -10 -10 -10h-38c-8 0 -9 2 -10 10l-19 204c-1 8 0 10 9 10h78z" />
    <glyph glyph-name="percent" unicode="%" horiz-adv-x="969" 
d="M342 537c0 57 -37 102 -97 102c-61 0 -98 -45 -98 -102s37 -102 98 -102c60 0 97 45 97 102zM72 537c0 91 66 170 173 170c105 0 172 -79 172 -170s-67 -170 -172 -170c-107 0 -173 79 -173 170zM822 163c0 57 -37 102 -97 102c-61 0 -98 -45 -98 -102s37 -102 98 -102
c60 0 97 45 97 102zM552 163c0 91 66 170 173 170c105 0 172 -79 172 -170s-67 -170 -172 -170c-107 0 -173 79 -173 170zM259 25l396 686c4 7 6 7 13 3l43 -25c6 -4 8 -6 4 -14l-396 -686c-4 -7 -6 -7 -13 -3l-43 25c-6 4 -8 6 -4 14z" />
    <glyph glyph-name="slash" unicode="/" 
d="M103 -80c-5 -9 -7 -10 -14 -7l-52 25c-8 4 -7 9 -4 14l364 776c5 9 7 10 14 7l52 -25c8 -4 7 -9 4 -14z" />
    <glyph glyph-name="backslash" unicode="\" 
d="M397 -80l-364 776c-3 5 -4 10 4 14l52 25c7 3 9 2 14 -7l364 -776c3 -5 4 -10 -4 -14l-52 -25c-7 -3 -9 -2 -14 7z" />
    <glyph glyph-name="quotedbl" unicode="&#x22;" horiz-adv-x="360" 
d="M139 700c9 0 10 -2 9 -10l-19 -204c-1 -8 -2 -10 -10 -10h-38c-8 0 -9 2 -10 10l-19 204c-1 8 0 10 9 10h78zM299 700c9 0 10 -2 9 -10l-19 -204c-1 -8 -2 -10 -10 -10h-38c-8 0 -9 2 -10 10l-19 204c-1 8 0 10 9 10h78z" />
    <glyph glyph-name="sterling" unicode="&#xa3;" horiz-adv-x="566" 
d="M339 710c67 0 109 -16 157 -40c5 -3 8 -6 8 -10v-97c0 -5 -1 -7 -4 -7c-2 0 -4 1 -5 2c-38 38 -82 65 -150 65c-76 0 -118 -37 -118 -133v-101c0 -4 2 -6 6 -6h148c7 0 10 -3 10 -10v-52c0 -7 -3 -10 -10 -10h-148c-4 0 -6 -2 -6 -6v-217c0 -9 1 -10 10 -10h264
c7 0 10 -3 10 -10v-58c0 -7 -3 -10 -10 -10h-441c-7 0 -10 3 -10 10v58c0 7 3 10 10 10h67c9 0 10 1 10 10v217c0 4 -2 6 -6 6h-72c-5 0 -8 3 -8 8v56c0 5 3 8 8 8h72c4 0 6 2 6 6v103c0 145 82 218 202 218z" />
    <glyph glyph-name="ordfeminine" unicode="&#xaa;" horiz-adv-x="378" 
d="M291 700h45c9 0 10 -2 10 -11v-263c0 -8 -1 -10 -10 -10h-45c-9 0 -10 2 -10 10v26c0 1 -3 2 -5 2c-1 0 -4 0 -5 -1c-19 -27 -56 -44 -94 -44c-87 0 -145 62 -145 149s58 149 145 149c38 0 75 -17 94 -44c1 -1 4 -1 5 -1c2 0 5 1 5 2v26c0 8 1 10 10 10zM103 558
c0 -51 37 -88 85 -88s86 37 86 88s-38 88 -86 88s-85 -37 -85 -88z" />
    <glyph glyph-name="degree" unicode="&#xb0;" horiz-adv-x="348" 
d="M253 568c0 47 -30 86 -79 86s-79 -39 -79 -86s30 -86 79 -86s79 39 79 86zM32 568c0 74 56 139 142 139c85 0 142 -65 142 -139s-57 -139 -142 -139c-86 0 -142 65 -142 139z" />
    <glyph glyph-name="ordmasculine" unicode="&#xba;" horiz-adv-x="378" 
d="M189 645c-51 0 -85 -34 -85 -86c0 -54 34 -89 85 -89s85 35 85 89c0 52 -34 86 -85 86zM189 409c-92 0 -157 60 -157 150c0 86 65 148 157 148c91 0 157 -62 157 -148c0 -90 -66 -150 -157 -150z" />
    <glyph glyph-name="plus" unicode="+" 
d="M290 284c0 -9 1 -10 10 -10h155c9 0 10 -2 10 -10v-54c0 -8 -1 -10 -10 -10h-155c-9 0 -10 -1 -10 -10v-180c0 -8 -1 -10 -10 -10h-60c-9 0 -10 2 -10 10v180c0 9 -1 10 -10 10h-155c-9 0 -10 2 -10 10v54c0 8 1 10 10 10h155c9 0 10 1 10 10v179c0 8 1 10 10 10h60
c9 0 10 -2 10 -10v-179z" />
    <glyph glyph-name="divide" unicode="&#xf7;" 
d="M251 0c-32 0 -62 27 -62 62s27 63 62 63s62 -30 62 -62c0 -33 -29 -63 -62 -63zM251 347c-32 0 -62 27 -62 62s27 63 62 63s62 -30 62 -62c0 -33 -29 -63 -62 -63zM457 275c9 0 10 -2 10 -10v-54c0 -8 -1 -10 -10 -10h-410c-9 0 -10 2 -10 10v54c0 8 1 10 10 10h410z" />
    <glyph glyph-name="minus" unicode="&#x2212;" 
d="M455 274c9 0 10 -2 10 -10v-54c0 -8 -1 -10 -10 -10h-410c-9 0 -10 2 -10 10v54c0 8 1 10 10 10h410z" />
    <glyph glyph-name="plusminus" unicode="&#xb1;" 
d="M290 358c0 -9 1 -10 10 -10h155c9 0 10 -2 10 -10v-54c0 -8 -1 -10 -10 -10h-155c-9 0 -10 -1 -10 -10v-129c0 -8 -1 -10 -10 -10h-60c-9 0 -10 2 -10 10v129c0 9 -1 10 -10 10h-155c-9 0 -10 2 -10 10v54c0 8 1 10 10 10h155c9 0 10 1 10 10v129c0 8 1 10 10 10h60
c9 0 10 -2 10 -10v-129zM455 75c9 0 10 -2 10 -10v-54c0 -8 -1 -10 -10 -10h-410c-9 0 -10 2 -10 10v54c0 8 1 10 10 10h410z" />
    <glyph glyph-name="equal" unicode="=" 
d="M455 190c9 0 10 -2 10 -10v-54c0 -8 -1 -10 -10 -10h-410c-9 0 -10 2 -10 10v54c0 8 1 10 10 10h410zM455 358c9 0 10 -2 10 -10v-54c0 -8 -1 -10 -10 -10h-410c-9 0 -10 2 -10 10v54c0 8 1 10 10 10h410z" />
    <glyph glyph-name="logicalnot" unicode="&#xac;" 
d="M45 300c-9 0 -10 2 -10 10v54c0 8 1 10 10 10h410c9 0 10 -2 10 -10v-253c0 -8 -1 -10 -10 -10h-60c-9 0 -10 2 -10 10v179c0 9 -1 10 -10 10h-330z" />
    <glyph glyph-name="multiply" unicode="&#xd7;" 
d="M243 295c3 -3 6 -5 7 -5s4 2 7 5l127 127c3 3 6 5 7 5s4 -2 7 -5l37 -37c3 -3 5 -6 5 -7s-2 -4 -5 -7l-127 -127c-3 -3 -5 -6 -5 -7s2 -4 5 -7l127 -127c3 -3 5 -6 5 -7s-2 -4 -5 -7l-37 -37c-3 -3 -6 -5 -7 -5s-4 2 -7 5l-127 127c-3 3 -5 4 -7 4s-4 -1 -7 -4l-127 -127
c-3 -3 -6 -5 -8 -5s-4 2 -6 5l-37 37c-3 2 -5 4 -5 6s2 5 5 8l127 127c3 3 4 5 4 7s-1 4 -4 7l-127 127c-3 3 -5 6 -5 7s2 4 5 7l37 37c3 3 6 5 7 5s4 -2 7 -5z" />
    <glyph glyph-name="yen" unicode="&#xa5;" horiz-adv-x="566" 
d="M335 310h150c7 0 10 -3 10 -10v-48c0 -7 -3 -10 -10 -10h-150c-4 0 -6 -2 -6 -5v-227c0 -9 -1 -10 -10 -10h-70c-9 0 -10 1 -10 10v227c-1 3 -3 5 -6 5h-152c-5 0 -8 3 -8 8v52c0 5 3 8 8 8h152c3 0 5 1 6 4v23c0 15 -4 28 -16 41c-1 1 -3 2 -5 2h-137c-5 0 -8 3 -8 8v52
c0 5 3 8 8 8h98l-156 242c-1 3 -2 5 -2 6c0 3 2 4 6 4h85c5 0 10 -3 14 -10l153 -252c1 -2 2 -3 5 -3c2 0 4 1 5 3l153 252c5 9 8 10 15 10h84c4 0 6 -1 6 -4c0 -1 -1 -3 -2 -6l-156 -242h96c7 0 10 -3 10 -10v-48c0 -7 -3 -10 -10 -10h-135c-2 0 -4 -1 -5 -2
c-10 -10 -16 -24 -16 -41v-23c1 -3 3 -4 6 -4z" />
    <glyph glyph-name="onesuperior" unicode="&#xb9;" horiz-adv-x="333" 
d="M245 454c0 -8 0 -9 -9 -9h-60c-8 0 -9 1 -9 9v263c0 11 -1 13 -10 10l-61 -21c-8 -3 -10 -3 -10 6v51c0 9 2 11 10 14l139 48c11 3 10 1 10 -8v-363z" />
    <glyph glyph-name="twosuperior" unicode="&#xb2;" horiz-adv-x="333" 
d="M37 697c0 76 45 128 129 128c87 0 131 -51 131 -128c0 -43 -28 -94 -87 -155l-22 -22c-2 -2 -3 -4 -3 -5c0 -2 2 -3 5 -3h91c9 0 10 -1 10 -10v-47c0 -9 -1 -10 -10 -10h-242c-3 0 -4 1 -4 4c0 4 3 6 3 7l114 123c37 41 68 77 68 114c0 42 -22 62 -56 62
c-32 0 -53 -20 -53 -58c0 -9 -1 -10 -10 -10h-54c-9 0 -10 1 -10 10z" />
    <glyph glyph-name="underscore" unicode="_" horiz-adv-x="452" 
d="M6 -72c0 9 2 10 10 10h420c9 0 10 -1 10 -10v-32c0 -9 -1 -10 -10 -10h-420c-9 0 -10 1 -10 10v32z" />
    <glyph glyph-name="asciicircum" unicode="^" 
d="M252 610c-3 0 -5 -1 -6 -2l-114 -241c-3 -8 -5 -10 -14 -10h-75c-5 0 -8 2 -8 5c0 1 1 2 2 5l156 323c4 9 10 10 22 10h73c12 0 15 -1 19 -10l156 -323c1 -3 2 -4 2 -5c0 -3 -3 -5 -8 -5h-71c-9 0 -11 2 -14 10l-114 241c-1 1 -3 2 -6 2z" />
    <glyph glyph-name="asciitilde" unicode="~" 
d="M460 333v-27c0 -59 -36 -107 -119 -107c-86 0 -133 79 -177 79c-27 0 -42 -17 -42 -46v-10c0 -8 -1 -10 -10 -10h-62c-9 0 -10 2 -10 10v26c0 59 40 108 123 108c84 0 132 -79 174 -79c27 0 41 16 41 45v11c0 8 1 10 10 10h62c9 0 10 -2 10 -10z" />
    <glyph glyph-name="threesuperior" unicode="&#xb3;" horiz-adv-x="333" 
d="M109 718c0 -9 -1 -10 -10 -10h-48c-9 0 -10 1 -10 10c3 65 51 107 123 107c75 0 120 -49 120 -100c0 -31 -12 -49 -33 -65c-3 -3 -4 -5 -4 -6s1 -3 4 -5c31 -21 51 -57 51 -93c0 -69 -50 -118 -138 -118c-80 0 -133 48 -133 118c0 9 1 10 10 10h51c9 0 10 -1 10 -10
c0 -30 30 -52 62 -52c37 0 61 17 61 50c0 29 -20 50 -61 50h-33c-9 0 -10 1 -10 10v45c0 9 1 10 10 10h26c35 0 53 11 53 42c0 30 -19 50 -50 50c-28 0 -48 -15 -51 -43z" />
    <glyph glyph-name="less" unicode="&#x3c;" 
d="M143 239c0 -2 1 -4 2 -5l310 -131c8 -3 10 -5 10 -14v-63c0 -5 -2 -8 -5 -8c-1 0 -2 1 -5 2l-410 180c-9 4 -10 10 -10 22v33c0 12 1 15 10 19l410 176c3 1 4 2 5 2c3 0 5 -3 5 -8v-63c0 -9 -2 -11 -10 -14l-310 -123c-1 -1 -2 -3 -2 -5z" />
    <glyph glyph-name="greater" unicode="&#x3e;" 
d="M357 239c0 2 -1 4 -2 5l-310 123c-8 3 -10 5 -10 14v63c0 5 2 8 5 8c1 0 2 -1 5 -2l410 -176c9 -4 10 -7 10 -19v-33c0 -12 -1 -18 -10 -22l-410 -180c-3 -1 -4 -2 -5 -2c-3 0 -5 3 -5 8v63c0 9 2 11 10 14l310 131c1 1 2 3 2 5z" />
    <glyph glyph-name="braceleft" unicode="{" horiz-adv-x="300" 
d="M118 462v143c0 91 56 126 124 126h24c9 0 10 -1 10 -10v-55c0 -9 -1 -10 -10 -10h-15c-29 0 -48 -21 -48 -64v-158c0 -102 -44 -127 -72 -133c-3 -1 -3 -3 -3 -5s0 -4 3 -5c28 -6 72 -33 72 -135v-157c0 -43 19 -64 48 -64h15c9 0 10 -1 10 -10v-55c0 -9 -1 -10 -10 -10
h-24c-68 0 -124 35 -124 126v142c0 88 -29 122 -76 122c-9 0 -10 1 -10 10v71c0 9 1 10 10 10c47 0 76 33 76 121z" />
    <glyph glyph-name="braceright" unicode="}" horiz-adv-x="300" 
d="M182 605v-143c0 -88 29 -121 76 -121c9 0 10 -1 10 -10v-71c0 -9 -1 -10 -10 -10c-47 0 -76 -34 -76 -122v-142c0 -91 -56 -126 -124 -126h-24c-9 0 -10 1 -10 10v55c0 9 1 10 10 10h15c29 0 48 21 48 64v157c0 102 44 129 72 135c3 1 3 3 3 5s0 4 -3 5
c-28 6 -72 31 -72 133v158c0 43 -19 64 -48 64h-15c-9 0 -10 1 -10 10v55c0 9 1 10 10 10h24c68 0 124 -35 124 -126z" />
    <glyph glyph-name="numbersign" unicode="#" horiz-adv-x="524" 
d="M292 179h-108l-29 -169c-3 -8 -3 -10 -12 -10h-50c-9 0 -9 2 -8 10l29 169h-73c-9 0 -10 2 -10 10v44c0 8 1 10 10 10h84l26 147h-80c-9 0 -10 2 -10 10v44c0 8 1 10 10 10h92l29 166c3 8 3 10 12 10h50c9 0 11 -2 8 -10l-29 -166h108l29 166c3 8 3 10 12 10h50
c9 0 11 -2 8 -10l-29 -166h73c9 0 10 -2 10 -10v-44c0 -8 -1 -10 -10 -10h-85l-26 -147h81c9 0 10 -2 10 -10v-44c0 -8 -1 -10 -10 -10h-92l-29 -169c-3 -8 -3 -10 -12 -10h-50c-9 0 -9 2 -8 10zM195 243h108l26 147h-108z" />
    <glyph glyph-name="perthousand" unicode="&#x2030;" horiz-adv-x="1279" 
d="M318 537c0 57 -37 102 -97 102c-61 0 -98 -45 -98 -102s37 -102 98 -102c60 0 97 45 97 102zM48 537c0 91 66 170 173 170c105 0 172 -79 172 -170s-67 -170 -172 -170c-107 0 -173 79 -173 170zM750 163c0 57 -37 102 -97 102c-61 0 -98 -45 -98 -102s37 -102 98 -102
c60 0 97 45 97 102zM480 163c0 91 66 170 173 170c105 0 172 -79 172 -170s-67 -170 -172 -170c-107 0 -173 79 -173 170zM1156 163c0 57 -37 102 -97 102c-61 0 -98 -45 -98 -102s37 -102 98 -102c60 0 97 45 97 102zM886 163c0 91 66 170 173 170c105 0 172 -79 172 -170
s-67 -170 -172 -170c-107 0 -173 79 -173 170zM215 25l396 686c4 7 6 7 13 3l43 -25c6 -4 8 -6 4 -14l-396 -686c-4 -7 -6 -7 -13 -3l-43 25c-6 4 -8 6 -4 14z" />
    <glyph glyph-name="trademark" unicode="&#x2122;" horiz-adv-x="834" 
d="M32 690c0 9 1 10 10 10h300c9 0 10 -1 10 -10v-48c0 -9 -1 -10 -10 -10h-103c-9 0 -10 -1 -10 -10v-282c0 -9 -1 -10 -10 -10h-54c-9 0 -10 1 -10 10v282c0 9 -1 10 -10 10h-103c-9 0 -10 1 -10 10v48zM627 444c-3 -3 -6 -5 -8 -5c-3 0 -5 2 -8 5l-87 87c-2 2 -4 3 -7 3
c-5 0 -8 -2 -8 -6v-188c0 -9 -1 -10 -10 -10h-53c-9 0 -10 1 -10 10v364c0 5 3 7 5 7s4 -2 7 -5l165 -165c3 -3 5 -4 6 -4c2 0 4 1 6 4l165 165c3 3 5 5 7 5s5 -2 5 -7v-364c0 -9 -1 -10 -10 -10h-53c-9 0 -10 1 -10 10v188c0 4 -3 6 -8 6c-3 0 -5 -1 -7 -3z" />
    <glyph glyph-name="aacute" unicode="&#xe1;" horiz-adv-x="466" 
d="M320 151c0 43 -48 71 -103 71c-59 0 -99 -32 -99 -79c0 -48 37 -81 99 -81c57 0 103 47 103 89zM32 140c0 97 78 152 168 152c56 0 96 -21 114 -35c1 -1 3 -1 4 -1c3 0 4 3 4 7v23c0 56 -32 87 -104 87c-53 0 -89 -20 -104 -32c-2 -2 -4 -3 -7 -3s-4 3 -4 8v61
c0 5 3 9 8 12c25 17 68 28 115 28c154 0 182 -85 182 -160v-277c0 -8 -1 -10 -10 -10h-63c-9 0 -10 2 -10 10v34c0 1 -1 2 -4 2c-2 0 -3 0 -4 -1c-28 -35 -70 -55 -117 -55c-87 0 -168 50 -168 150zM269 640c6 8 8 10 16 10h96c9 0 12 -1 4 -10l-121 -124
c-8 -8 -10 -10 -18 -10h-71c-10 0 -7 4 -2 10z" />
    <glyph glyph-name="fraction" unicode="&#x2044;" horiz-adv-x="666" 
d="M105 25l396 686c4 7 6 7 13 3l43 -25c6 -4 8 -6 4 -14l-396 -686c-4 -7 -6 -7 -13 -3l-43 25c-6 4 -8 6 -4 14z" />
    <glyph glyph-name="Idotaccent" unicode="&#x130;" horiz-adv-x="242" 
d="M72 690c0 9 1 10 10 10h78c9 0 10 -1 10 -10v-680c0 -9 -1 -10 -10 -10h-78c-9 0 -10 1 -10 10v680zM121 759c-32 0 -62 27 -62 62s27 63 62 63s62 -30 62 -62c0 -33 -29 -63 -62 -63z" />
    <glyph glyph-name="dotlessi" unicode="&#x131;" horiz-adv-x="224" 
d="M68 427c0 8 1 10 10 10h68c9 0 10 -2 10 -10v-417c0 -8 -1 -10 -10 -10h-68c-9 0 -10 2 -10 10v417z" />
    <glyph glyph-name="onequarter" unicode="&#xbc;" horiz-adv-x="668" 
d="M91 25l396 686c4 7 6 7 13 3l43 -25c6 -4 8 -6 4 -14l-396 -686c-4 -7 -6 -7 -13 -3l-43 25c-6 4 -8 6 -4 14zM199 344c0 -8 0 -9 -9 -9h-60c-8 0 -9 1 -9 9v263c0 11 -1 13 -10 10l-61 -21c-8 -3 -10 -3 -10 6v51c0 9 2 11 10 14l139 48c11 3 10 1 10 -8v-363zM305 63
c-7 0 -12 3 -7 9l261 322c2 2 3 3 5 3s4 -1 4 -4v-260c0 -9 1 -10 10 -10h30c9 0 10 -1 10 -10v-40c0 -9 -1 -10 -10 -10h-30c-9 0 -10 -1 -10 -10v-35c0 -9 -1 -10 -10 -10h-50c-9 0 -10 1 -10 10v35c0 9 -1 10 -10 10h-183zM498 219c0 3 -1 5 -2 5s-3 -1 -4 -3l-67 -87
c-3 -4 -4 -6 -4 -7c0 -2 2 -3 6 -3h61c9 0 10 1 10 10v85z" />
    <glyph glyph-name="onehalf" unicode="&#xbd;" horiz-adv-x="708" 
d="M398 260c0 76 45 128 129 128c87 0 131 -51 131 -128c0 -43 -28 -94 -87 -155l-22 -22c-2 -2 -3 -4 -3 -5c0 -2 2 -3 5 -3h91c9 0 10 -1 10 -10v-47c0 -9 -1 -10 -10 -10h-242c-3 0 -4 1 -4 4c0 4 3 6 3 7l114 123c37 41 68 77 68 114c0 42 -22 62 -56 62
c-32 0 -53 -20 -53 -58c0 -9 -1 -10 -10 -10h-54c-9 0 -10 1 -10 10zM199 344c0 -8 0 -9 -9 -9h-60c-8 0 -9 1 -9 9v263c0 11 -1 13 -10 10l-61 -21c-8 -3 -10 -3 -10 6v51c0 9 2 11 10 14l139 48c11 3 10 1 10 -8v-363zM91 25l396 686c4 7 6 7 13 3l43 -25c6 -4 8 -6 4 -14
l-396 -686c-4 -7 -6 -7 -13 -3l-43 25c-6 4 -8 6 -4 14z" />
    <glyph glyph-name="threequarters" unicode="&#xbe;" horiz-adv-x="747" 
d="M170 25l396 686c4 7 6 7 13 3l43 -25c6 -4 8 -6 4 -14l-396 -686c-4 -7 -6 -7 -13 -3l-43 25c-6 4 -8 6 -4 14zM384 63c-7 0 -12 3 -7 9l261 322c2 2 3 3 5 3s4 -1 4 -4v-260c0 -9 1 -10 10 -10h30c9 0 10 -1 10 -10v-40c0 -9 -1 -10 -10 -10h-30c-9 0 -10 -1 -10 -10
v-35c0 -9 -1 -10 -10 -10h-50c-9 0 -10 1 -10 10v35c0 9 -1 10 -10 10h-183zM577 219c0 3 -1 5 -2 5s-3 -1 -4 -3l-67 -87c-3 -4 -4 -6 -4 -7c0 -2 2 -3 6 -3h61c9 0 10 1 10 10v85zM128 608c0 -9 -1 -10 -10 -10h-48c-9 0 -10 1 -10 10c3 65 51 107 123 107
c75 0 120 -49 120 -100c0 -31 -12 -49 -33 -65c-3 -3 -4 -5 -4 -6s1 -3 4 -5c31 -21 51 -57 51 -93c0 -69 -50 -118 -138 -118c-80 0 -133 48 -133 118c0 9 1 10 10 10h51c9 0 10 -1 10 -10c0 -30 30 -52 62 -52c37 0 61 17 61 50c0 29 -20 50 -61 50h-33c-9 0 -10 1 -10 10
v45c0 9 1 10 10 10h26c35 0 53 11 53 42c0 30 -19 50 -50 50c-28 0 -48 -15 -51 -43z" />
    <glyph glyph-name="Agrave" unicode="&#xc0;" horiz-adv-x="562" 
d="M275 711c1 3 2 4 5 4s4 -1 5 -4l260 -701c1 -1 1 -3 1 -6s-3 -4 -8 -4h-87c-8 0 -10 1 -13 10l-40 105c-3 9 -4 10 -13 10h-214c-7 0 -11 -3 -13 -10l-37 -105c-3 -9 -5 -10 -13 -10h-84c-5 0 -8 1 -8 4s0 5 1 6zM284 443c-1 2 -3 3 -6 3s-5 -1 -6 -3l-76 -218
c-1 -4 -2 -6 -2 -6c0 -3 -1 -4 6 -4h157c5 0 7 1 7 3c0 1 -1 3 -2 7zM222 884l96 -124c5 -6 8 -10 -2 -10h-71c-8 0 -10 2 -18 10l-121 124c-8 9 -5 10 4 10h96c8 0 10 -2 16 -10z" />
    <glyph glyph-name="Aacute" unicode="&#xc1;" horiz-adv-x="562" 
d="M284 443c-1 2 -3 3 -6 3s-5 -1 -6 -3l-76 -218c-1 -4 -2 -6 -2 -6c0 -3 -1 -4 6 -4h157c5 0 7 1 7 3c0 1 -1 3 -2 7zM275 711c1 3 2 4 5 4s4 -1 5 -4l260 -701c1 -1 1 -3 1 -6s-3 -4 -8 -4h-87c-8 0 -10 1 -13 10l-40 105c-3 9 -4 10 -13 10h-214c-7 0 -11 -3 -13 -10
l-37 -105c-3 -9 -5 -10 -13 -10h-84c-5 0 -8 1 -8 4s0 5 1 6zM336 884c6 8 8 10 16 10h96c9 0 12 -1 4 -10l-121 -124c-8 -8 -10 -10 -18 -10h-71c-10 0 -7 4 -2 10z" />
    <glyph glyph-name="Acircumflex" unicode="&#xc2;" horiz-adv-x="562" 
d="M284 443c-1 2 -3 3 -6 3s-5 -1 -6 -3l-76 -218c-1 -4 -2 -6 -2 -6c0 -3 -1 -4 6 -4h157c5 0 7 1 7 3c0 1 -1 3 -2 7zM275 711c1 3 2 4 5 4s4 -1 5 -4l260 -701c1 -1 1 -3 1 -6s-3 -4 -8 -4h-87c-8 0 -10 1 -13 10l-40 105c-3 9 -4 10 -13 10h-214c-7 0 -11 -3 -13 -10
l-37 -105c-3 -9 -5 -10 -13 -10h-84c-5 0 -8 1 -8 4s0 5 1 6zM222 884c7 8 11 10 19 10h76c7 0 14 -3 19 -10l108 -124c2 -3 3 -5 3 -7s-2 -3 -6 -3h-62c-9 0 -12 5 -17 10l-75 75c-1 1 -3 2 -6 2s-5 -1 -6 -2l-73 -75c-5 -5 -8 -10 -17 -10h-64c-4 0 -6 1 -6 3s1 4 3 7z
" />
    <glyph glyph-name="Atilde" unicode="&#xc3;" horiz-adv-x="562" 
d="M284 443c-1 2 -3 3 -6 3s-5 -1 -6 -3l-76 -218c-1 -4 -2 -6 -2 -6c0 -3 -1 -4 6 -4h157c5 0 7 1 7 3c0 1 -1 3 -2 7zM275 711c1 3 2 4 5 4s4 -1 5 -4l260 -701c1 -1 1 -3 1 -6s-3 -4 -8 -4h-87c-8 0 -10 1 -13 10l-40 105c-3 9 -4 10 -13 10h-214c-7 0 -11 -3 -13 -10
l-37 -105c-3 -9 -5 -10 -13 -10h-84c-5 0 -8 1 -8 4s0 5 1 6zM131 762c-9 0 -10 2 -10 10v14c0 53 34 98 93 98c84 0 88 -59 130 -59c18 0 34 12 34 35v11c0 8 1 10 10 10h44c9 0 10 -2 10 -10v-15c0 -53 -30 -97 -89 -97c-86 0 -90 59 -134 59c-18 0 -34 -13 -34 -36v-10
c0 -8 -1 -10 -10 -10h-44z" />
    <glyph glyph-name="Adieresis" unicode="&#xc4;" horiz-adv-x="562" 
d="M284 443c-1 2 -3 3 -6 3s-5 -1 -6 -3l-76 -218c-1 -4 -2 -6 -2 -6c0 -3 -1 -4 6 -4h157c5 0 7 1 7 3c0 1 -1 3 -2 7zM275 711c1 3 2 4 5 4s4 -1 5 -4l260 -701c1 -1 1 -3 1 -6s-3 -4 -8 -4h-87c-8 0 -10 1 -13 10l-40 105c-3 9 -4 10 -13 10h-214c-7 0 -11 -3 -13 -10
l-37 -105c-3 -9 -5 -10 -13 -10h-84c-5 0 -8 1 -8 4s0 5 1 6zM384 761c-31 0 -60 25 -60 60c0 33 27 61 60 61c32 0 60 -29 60 -60s-29 -61 -60 -61zM178 761c-31 0 -60 25 -60 60c0 33 28 61 60 61c33 0 60 -29 60 -60s-28 -61 -60 -61z" />
    <glyph glyph-name="Aring" unicode="&#xc5;" horiz-adv-x="562" 
d="M284 443c-1 2 -3 3 -6 3s-5 -1 -6 -3l-76 -218c-1 -4 -2 -6 -2 -6c0 -3 -1 -4 6 -4h157c5 0 7 1 7 3c0 1 -1 3 -2 7zM275 711c1 3 2 4 5 4s4 -1 5 -4l260 -701c1 -1 1 -3 1 -6s-3 -4 -8 -4h-87c-8 0 -10 1 -13 10l-40 105c-3 9 -4 10 -13 10h-214c-7 0 -11 -3 -13 -10
l-37 -105c-3 -9 -5 -10 -13 -10h-84c-5 0 -8 1 -8 4s0 5 1 6zM281 790c23 0 41 18 41 42c0 23 -17 41 -41 41s-41 -18 -41 -42c0 -25 18 -41 41 -41zM281 740c-49 0 -91 34 -91 91c0 51 39 92 91 92c51 0 91 -43 91 -91c0 -51 -40 -92 -91 -92z" />
    <glyph glyph-name="scaron" unicode="&#x161;" horiz-adv-x="376" 
d="M268 334c-17 26 -42 39 -76 39c-37 0 -59 -22 -59 -50c0 -87 208 -55 208 -205c0 -60 -44 -128 -153 -128c-71 0 -119 27 -154 74c-1 2 -2 4 -2 7s1 5 4 8l41 41c3 3 5 4 7 4s4 -1 7 -5c29 -40 59 -54 99 -54c43 0 65 22 65 51c0 80 -206 54 -206 202
c0 69 52 129 140 129c56 0 103 -17 134 -60c1 -2 2 -4 2 -7s-1 -5 -4 -8l-39 -39c-3 -3 -5 -4 -7 -4s-4 1 -7 5zM245 516c-5 -7 -12 -10 -19 -10h-76c-8 0 -14 3 -19 10l-108 124c-2 3 -3 5 -3 7s2 3 6 3h62c9 0 12 -5 17 -10l75 -75c1 -1 3 -2 6 -2s5 1 6 2l73 75
c5 5 8 10 17 10h64c4 0 6 -1 6 -3s-1 -4 -3 -7z" />
    <glyph glyph-name="zcaron" unicode="&#x17e;" horiz-adv-x="376" 
d="M161 95c-2 -4 -3 -7 -3 -9c0 -4 2 -6 6 -6h163c9 0 10 -1 10 -10v-60c0 -9 -1 -10 -10 -10h-304c-5 0 -7 2 -7 5c0 1 1 3 2 6l190 333c2 4 3 7 3 10s-2 5 -6 5h-159c-9 0 -10 1 -10 10v58c0 9 1 10 10 10h299c5 0 7 -1 7 -4c0 -1 -1 -3 -2 -6zM247 516
c-5 -7 -12 -10 -19 -10h-76c-8 0 -14 3 -19 10l-108 124c-2 3 -3 5 -3 7s2 3 6 3h62c9 0 12 -5 17 -10l75 -75c1 -1 3 -2 6 -2s5 1 6 2l73 75c5 5 8 10 17 10h64c4 0 6 -1 6 -3s-1 -4 -3 -7z" />
    <glyph glyph-name="Ydieresis" unicode="&#x178;" horiz-adv-x="548" 
d="M225 353l-211 337c-1 3 -2 5 -2 6c0 3 2 4 6 4h99c5 0 10 -3 13 -10l139 -227c1 -2 2 -3 5 -3c2 0 4 1 5 3l140 227c5 9 6 10 13 10h98c4 0 6 -1 6 -4c0 -1 -1 -3 -2 -6l-211 -337v-343c0 -9 -1 -10 -10 -10h-78c-9 0 -10 1 -10 10v343zM377 742c-31 0 -60 25 -60 60
c0 33 27 61 60 61c32 0 60 -29 60 -60s-29 -61 -60 -61zM171 742c-31 0 -60 25 -60 60c0 33 28 61 60 61c33 0 60 -29 60 -60s-28 -61 -60 -61z" />
    <glyph glyph-name="Egrave" unicode="&#xc8;" horiz-adv-x="512" 
d="M73 690c0 9 1 10 10 10h373c9 0 10 -1 10 -10v-72c0 -9 -1 -10 -10 -10h-275c-9 0 -10 -1 -10 -10v-247c0 -9 1 -10 10 -10h265c9 0 10 -1 10 -10v-71c0 -9 -1 -10 -10 -10h-265c-9 0 -10 -1 -10 -10v-138c0 -9 1 -10 10 -10h280c9 0 10 -1 10 -10v-72
c0 -9 -1 -10 -10 -10h-378c-9 0 -10 1 -10 10v680zM275 884l96 -124c5 -6 8 -10 -2 -10h-71c-8 0 -10 2 -18 10l-121 124c-8 9 -5 10 4 10h96c8 0 10 -2 16 -10z" />
    <glyph glyph-name="Eacute" unicode="&#xc9;" horiz-adv-x="512" 
d="M73 690c0 9 1 10 10 10h373c9 0 10 -1 10 -10v-72c0 -9 -1 -10 -10 -10h-275c-9 0 -10 -1 -10 -10v-247c0 -9 1 -10 10 -10h265c9 0 10 -1 10 -10v-71c0 -9 -1 -10 -10 -10h-265c-9 0 -10 -1 -10 -10v-138c0 -9 1 -10 10 -10h280c9 0 10 -1 10 -10v-72
c0 -9 -1 -10 -10 -10h-378c-9 0 -10 1 -10 10v680zM288 884c6 8 8 10 16 10h96c9 0 12 -1 4 -10l-121 -124c-8 -8 -10 -10 -18 -10h-71c-10 0 -7 4 -2 10z" />
    <glyph glyph-name="Ecircumflex" unicode="&#xca;" horiz-adv-x="512" 
d="M73 690c0 9 1 10 10 10h373c9 0 10 -1 10 -10v-72c0 -9 -1 -10 -10 -10h-275c-9 0 -10 -1 -10 -10v-247c0 -9 1 -10 10 -10h265c9 0 10 -1 10 -10v-71c0 -9 -1 -10 -10 -10h-265c-9 0 -10 -1 -10 -10v-138c0 -9 1 -10 10 -10h280c9 0 10 -1 10 -10v-72
c0 -9 -1 -10 -10 -10h-378c-9 0 -10 1 -10 10v680zM197 884c7 8 11 10 19 10h76c7 0 14 -3 19 -10l108 -124c2 -3 3 -5 3 -7s-2 -3 -6 -3h-62c-9 0 -12 5 -17 10l-75 75c-1 1 -3 2 -6 2s-5 -1 -6 -2l-73 -75c-5 -5 -8 -10 -17 -10h-64c-4 0 -6 1 -6 3s1 4 3 7z" />
    <glyph glyph-name="Edieresis" unicode="&#xcb;" horiz-adv-x="512" 
d="M73 690c0 9 1 10 10 10h373c9 0 10 -1 10 -10v-72c0 -9 -1 -10 -10 -10h-275c-9 0 -10 -1 -10 -10v-247c0 -9 1 -10 10 -10h265c9 0 10 -1 10 -10v-71c0 -9 -1 -10 -10 -10h-265c-9 0 -10 -1 -10 -10v-138c0 -9 1 -10 10 -10h280c9 0 10 -1 10 -10v-72
c0 -9 -1 -10 -10 -10h-378c-9 0 -10 1 -10 10v680zM379 761c-31 0 -60 25 -60 60c0 33 27 61 60 61c32 0 60 -29 60 -60s-29 -61 -60 -61zM173 761c-31 0 -60 25 -60 60c0 33 28 61 60 61c33 0 60 -29 60 -60s-28 -61 -60 -61z" />
    <glyph glyph-name="Igrave" unicode="&#xcc;" horiz-adv-x="242" 
d="M72 690c0 9 1 10 10 10h78c9 0 10 -1 10 -10v-680c0 -9 -1 -10 -10 -10h-78c-9 0 -10 1 -10 10v680zM85 884l96 -124c5 -6 8 -10 -2 -10h-71c-8 0 -10 2 -18 10l-121 124c-8 9 -5 10 4 10h96c8 0 10 -2 16 -10z" />
    <glyph glyph-name="Iacute" unicode="&#xcd;" horiz-adv-x="242" 
d="M72 690c0 9 1 10 10 10h78c9 0 10 -1 10 -10v-680c0 -9 -1 -10 -10 -10h-78c-9 0 -10 1 -10 10v680zM159 884c6 8 8 10 16 10h96c9 0 12 -1 4 -10l-121 -124c-8 -8 -10 -10 -18 -10h-71c-10 0 -7 4 -2 10z" />
    <glyph glyph-name="Icircumflex" unicode="&#xce;" horiz-adv-x="242" 
d="M72 690c0 9 1 10 10 10h78c9 0 10 -1 10 -10v-680c0 -9 -1 -10 -10 -10h-78c-9 0 -10 1 -10 10v680zM62 884c7 8 11 10 19 10h76c7 0 14 -3 19 -10l108 -124c2 -3 3 -5 3 -7s-2 -3 -6 -3h-62c-9 0 -12 5 -17 10l-75 75c-1 1 -3 2 -6 2s-5 -1 -6 -2l-73 -75
c-5 -5 -8 -10 -17 -10h-64c-4 0 -6 1 -6 3s1 4 3 7z" />
    <glyph glyph-name="Idieresis" unicode="&#xcf;" horiz-adv-x="242" 
d="M72 690c0 9 1 10 10 10h78c9 0 10 -1 10 -10v-680c0 -9 -1 -10 -10 -10h-78c-9 0 -10 1 -10 10v680zM224 761c-31 0 -60 25 -60 60c0 33 27 61 60 61c32 0 60 -29 60 -60s-29 -61 -60 -61zM18 761c-31 0 -60 25 -60 60c0 33 28 61 60 61c33 0 60 -29 60 -60
s-28 -61 -60 -61z" />
    <glyph glyph-name="Ocircumflex" unicode="&#xd4;" horiz-adv-x="792" 
d="M746 350c0 -196 -154 -360 -350 -360s-350 164 -350 360s154 360 350 360s350 -164 350 -360zM154 350c0 -142 101 -263 242 -263s242 121 242 263s-101 263 -242 263s-242 -121 -242 -263zM337 884c7 8 11 10 19 10h76c7 0 14 -3 19 -10l108 -124c2 -3 3 -5 3 -7
s-2 -3 -6 -3h-62c-9 0 -12 5 -17 10l-75 75c-1 1 -3 2 -6 2s-5 -1 -6 -2l-73 -75c-5 -5 -8 -10 -17 -10h-64c-4 0 -6 1 -6 3s1 4 3 7z" />
    <glyph glyph-name="Otilde" unicode="&#xd5;" horiz-adv-x="792" 
d="M746 350c0 -196 -154 -360 -350 -360s-350 164 -350 360s154 360 350 360s350 -164 350 -360zM154 350c0 -142 101 -263 242 -263s242 121 242 263s-101 263 -242 263s-242 -121 -242 -263zM246 762c-9 0 -10 2 -10 10v14c0 53 34 98 93 98c84 0 88 -59 130 -59
c18 0 34 12 34 35v11c0 8 1 10 10 10h44c9 0 10 -2 10 -10v-15c0 -53 -30 -97 -89 -97c-86 0 -90 59 -134 59c-18 0 -34 -13 -34 -36v-10c0 -8 -1 -10 -10 -10h-44z" />
    <glyph glyph-name="Odieresis" unicode="&#xd6;" horiz-adv-x="792" 
d="M746 350c0 -196 -154 -360 -350 -360s-350 164 -350 360s154 360 350 360s350 -164 350 -360zM154 350c0 -142 101 -263 242 -263s242 121 242 263s-101 263 -242 263s-242 -121 -242 -263zM499 761c-31 0 -60 25 -60 60c0 33 27 61 60 61c32 0 60 -29 60 -60
s-29 -61 -60 -61zM293 761c-31 0 -60 25 -60 60c0 33 28 61 60 61c33 0 60 -29 60 -60s-28 -61 -60 -61z" />
    <glyph glyph-name="Ugrave" unicode="&#xd9;" horiz-adv-x="618" 
d="M447 690c0 9 1 10 10 10h79c9 0 10 -1 10 -10v-471c0 -152 -99 -229 -236 -229s-238 77 -238 229v471c0 9 1 10 10 10h79c9 0 10 -1 10 -10v-452c0 -114 53 -153 139 -153c88 0 137 39 137 153v452zM282 884l96 -124c5 -6 8 -10 -2 -10h-71c-8 0 -10 2 -18 10l-121 124
c-8 9 -5 10 4 10h96c8 0 10 -2 16 -10z" />
    <glyph glyph-name="Uacute" unicode="&#xda;" horiz-adv-x="618" 
d="M447 690c0 9 1 10 10 10h79c9 0 10 -1 10 -10v-471c0 -152 -99 -229 -236 -229s-238 77 -238 229v471c0 9 1 10 10 10h79c9 0 10 -1 10 -10v-452c0 -114 53 -153 139 -153c88 0 137 39 137 153v452zM334 884c6 8 8 10 16 10h96c9 0 12 -1 4 -10l-121 -124
c-8 -8 -10 -10 -18 -10h-71c-10 0 -7 4 -2 10z" />
    <glyph glyph-name="Ucircumflex" unicode="&#xdb;" horiz-adv-x="618" 
d="M447 690c0 9 1 10 10 10h79c9 0 10 -1 10 -10v-471c0 -152 -99 -229 -236 -229s-238 77 -238 229v471c0 9 1 10 10 10h79c9 0 10 -1 10 -10v-452c0 -114 53 -153 139 -153c88 0 137 39 137 153v452zM250 884c7 8 11 10 19 10h76c7 0 14 -3 19 -10l108 -124
c2 -3 3 -5 3 -7s-2 -3 -6 -3h-62c-9 0 -12 5 -17 10l-75 75c-1 1 -3 2 -6 2s-5 -1 -6 -2l-73 -75c-5 -5 -8 -10 -17 -10h-64c-4 0 -6 1 -6 3s1 4 3 7z" />
    <glyph glyph-name="Udieresis" unicode="&#xdc;" horiz-adv-x="618" 
d="M447 690c0 9 1 10 10 10h79c9 0 10 -1 10 -10v-471c0 -152 -99 -229 -236 -229s-238 77 -238 229v471c0 9 1 10 10 10h79c9 0 10 -1 10 -10v-452c0 -114 53 -153 139 -153c88 0 137 39 137 153v452zM412 761c-31 0 -60 25 -60 60c0 33 27 61 60 61c32 0 60 -29 60 -60
s-29 -61 -60 -61zM206 761c-31 0 -60 25 -60 60c0 33 28 61 60 61c33 0 60 -29 60 -60s-28 -61 -60 -61z" />
    <glyph glyph-name="Yacute" unicode="&#xdd;" horiz-adv-x="548" 
d="M225 353l-211 337c-1 3 -2 5 -2 6c0 3 2 4 6 4h99c5 0 10 -3 13 -10l139 -227c1 -2 2 -3 5 -3c2 0 4 1 5 3l140 227c5 9 6 10 13 10h98c4 0 6 -1 6 -4c0 -1 -1 -3 -2 -6l-211 -337v-343c0 -9 -1 -10 -10 -10h-78c-9 0 -10 1 -10 10v343zM301 884c6 8 8 10 16 10h96
c9 0 12 -1 4 -10l-121 -124c-8 -8 -10 -10 -18 -10h-71c-10 0 -7 4 -2 10z" />
    <glyph glyph-name="ucircumflex" unicode="&#xfb;" horiz-adv-x="472" 
d="M236 70c53 0 94 34 94 103v254c0 8 1 10 10 10h68c9 0 10 -2 10 -10v-260c0 -98 -61 -177 -182 -177s-182 79 -182 177v260c0 8 1 10 10 10h68c9 0 10 -2 10 -10v-254c0 -69 41 -103 94 -103zM175 640c7 8 11 10 19 10h76c7 0 14 -3 19 -10l108 -124c2 -3 3 -5 3 -7
s-2 -3 -6 -3h-62c-9 0 -12 5 -17 10l-75 75c-1 1 -3 2 -6 2s-5 -1 -6 -2l-73 -75c-5 -5 -8 -10 -17 -10h-64c-4 0 -6 1 -6 3s1 4 3 7z" />
    <glyph glyph-name="udieresis" unicode="&#xfc;" horiz-adv-x="472" 
d="M236 70c53 0 94 34 94 103v254c0 8 1 10 10 10h68c9 0 10 -2 10 -10v-260c0 -98 -61 -177 -182 -177s-182 79 -182 177v260c0 8 1 10 10 10h68c9 0 10 -2 10 -10v-254c0 -69 41 -103 94 -103zM338 518c-31 0 -60 25 -60 60c0 33 27 61 60 61c32 0 60 -29 60 -60
s-29 -61 -60 -61zM132 518c-31 0 -60 25 -60 60c0 33 28 61 60 61c33 0 60 -29 60 -60s-28 -61 -60 -61z" />
    <glyph glyph-name="yacute" unicode="&#xfd;" horiz-adv-x="453" 
d="M223 132c1 -2 2 -3 4 -3c1 0 3 1 4 3l117 295c4 8 5 10 13 10h75c6 0 9 -1 9 -4c0 0 -1 -2 -2 -6l-259 -637c-4 -8 -5 -10 -13 -10h-74c-6 0 -9 1 -9 4c0 0 1 2 2 6l88 218c1 1 1 3 1 5s0 4 -1 5l-168 409c-1 4 -2 6 -2 6c0 3 3 4 9 4h77c8 0 9 -2 13 -10zM279 640
c6 8 8 10 16 10h96c9 0 12 -1 4 -10l-121 -124c-8 -8 -10 -10 -18 -10h-71c-10 0 -7 4 -2 10z" />
    <glyph glyph-name="ydieresis" unicode="&#xff;" horiz-adv-x="453" 
d="M223 132c1 -2 2 -3 4 -3c1 0 3 1 4 3l117 295c4 8 5 10 13 10h75c6 0 9 -1 9 -4c0 0 -1 -2 -2 -6l-259 -637c-4 -8 -5 -10 -13 -10h-74c-6 0 -9 1 -9 4c0 0 1 2 2 6l88 218c1 1 1 3 1 5s0 4 -1 5l-168 409c-1 4 -2 6 -2 6c0 3 3 4 9 4h77c8 0 9 -2 13 -10zM333 518
c-31 0 -60 25 -60 60c0 33 27 61 60 61c32 0 60 -29 60 -60s-29 -61 -60 -61zM127 518c-31 0 -60 25 -60 60c0 33 28 61 60 61c33 0 60 -29 60 -60s-28 -61 -60 -61z" />
    <glyph glyph-name="agrave" unicode="&#xe0;" horiz-adv-x="466" 
d="M32 140c0 97 78 152 168 152c56 0 96 -21 114 -35c1 -1 3 -1 4 -1c3 0 4 3 4 7v23c0 56 -32 87 -104 87c-53 0 -89 -20 -104 -32c-2 -2 -4 -3 -7 -3s-4 3 -4 8v61c0 5 3 9 8 12c25 17 68 28 115 28c154 0 182 -85 182 -160v-277c0 -8 -1 -10 -10 -10h-63
c-9 0 -10 2 -10 10v34c0 1 -1 2 -4 2c-2 0 -3 0 -4 -1c-28 -35 -70 -55 -117 -55c-87 0 -168 50 -168 150zM320 151c0 43 -48 71 -103 71c-59 0 -99 -32 -99 -79c0 -48 37 -81 99 -81c57 0 103 47 103 89zM205 640l96 -124c5 -6 8 -10 -2 -10h-71c-8 0 -10 2 -18 10
l-121 124c-8 9 -5 10 4 10h96c8 0 10 -2 16 -10z" />
    <glyph glyph-name="acircumflex" unicode="&#xe2;" horiz-adv-x="466" 
d="M320 151c0 43 -48 71 -103 71c-59 0 -99 -32 -99 -79c0 -48 37 -81 99 -81c57 0 103 47 103 89zM32 140c0 97 78 152 168 152c56 0 96 -21 114 -35c1 -1 3 -1 4 -1c3 0 4 3 4 7v23c0 56 -32 87 -104 87c-53 0 -89 -20 -104 -32c-2 -2 -4 -3 -7 -3s-4 3 -4 8v61
c0 5 3 9 8 12c25 17 68 28 115 28c154 0 182 -85 182 -160v-277c0 -8 -1 -10 -10 -10h-63c-9 0 -10 2 -10 10v34c0 1 -1 2 -4 2c-2 0 -3 0 -4 -1c-28 -35 -70 -55 -117 -55c-87 0 -168 50 -168 150zM180 640c7 8 11 10 19 10h76c7 0 14 -3 19 -10l108 -124c2 -3 3 -5 3 -7
s-2 -3 -6 -3h-62c-9 0 -12 5 -17 10l-75 75c-1 1 -3 2 -6 2s-5 -1 -6 -2l-73 -75c-5 -5 -8 -10 -17 -10h-64c-4 0 -6 1 -6 3s1 4 3 7z" />
    <glyph glyph-name="atilde" unicode="&#xe3;" horiz-adv-x="466" 
d="M320 151c0 43 -48 71 -103 71c-59 0 -99 -32 -99 -79c0 -48 37 -81 99 -81c57 0 103 47 103 89zM32 140c0 97 78 152 168 152c56 0 96 -21 114 -35c1 -1 3 -1 4 -1c3 0 4 3 4 7v23c0 56 -32 87 -104 87c-53 0 -89 -20 -104 -32c-2 -2 -4 -3 -7 -3s-4 3 -4 8v61
c0 5 3 9 8 12c25 17 68 28 115 28c154 0 182 -85 182 -160v-277c0 -8 -1 -10 -10 -10h-63c-9 0 -10 2 -10 10v34c0 1 -1 2 -4 2c-2 0 -3 0 -4 -1c-28 -35 -70 -55 -117 -55c-87 0 -168 50 -168 150zM97 518c-9 0 -10 2 -10 10v14c0 53 34 98 93 98c84 0 88 -59 130 -59
c18 0 34 12 34 35v11c0 8 1 10 10 10h44c9 0 10 -2 10 -10v-15c0 -53 -30 -97 -89 -97c-86 0 -90 59 -134 59c-18 0 -34 -13 -34 -36v-10c0 -8 -1 -10 -10 -10h-44z" />
    <glyph glyph-name="adieresis" unicode="&#xe4;" horiz-adv-x="466" 
d="M320 151c0 43 -48 71 -103 71c-59 0 -99 -32 -99 -79c0 -48 37 -81 99 -81c57 0 103 47 103 89zM32 140c0 97 78 152 168 152c56 0 96 -21 114 -35c1 -1 3 -1 4 -1c3 0 4 3 4 7v23c0 56 -32 87 -104 87c-53 0 -89 -20 -104 -32c-2 -2 -4 -3 -7 -3s-4 3 -4 8v61
c0 5 3 9 8 12c25 17 68 28 115 28c154 0 182 -85 182 -160v-277c0 -8 -1 -10 -10 -10h-63c-9 0 -10 2 -10 10v34c0 1 -1 2 -4 2c-2 0 -3 0 -4 -1c-28 -35 -70 -55 -117 -55c-87 0 -168 50 -168 150zM350 518c-31 0 -60 25 -60 60c0 33 27 61 60 61c32 0 60 -29 60 -60
s-29 -61 -60 -61zM144 518c-31 0 -60 25 -60 60c0 33 28 61 60 61c33 0 60 -29 60 -60s-28 -61 -60 -61z" />
    <glyph glyph-name="aring" unicode="&#xe5;" horiz-adv-x="466" 
d="M320 151c0 43 -48 71 -103 71c-59 0 -99 -32 -99 -79c0 -48 37 -81 99 -81c57 0 103 47 103 89zM32 140c0 97 78 152 168 152c56 0 96 -21 114 -35c1 -1 3 -1 4 -1c3 0 4 3 4 7v23c0 56 -32 87 -104 87c-53 0 -89 -20 -104 -32c-2 -2 -4 -3 -7 -3s-4 3 -4 8v61
c0 5 3 9 8 12c25 17 68 28 115 28c154 0 182 -85 182 -160v-277c0 -8 -1 -10 -10 -10h-63c-9 0 -10 2 -10 10v34c0 1 -1 2 -4 2c-2 0 -3 0 -4 -1c-28 -35 -70 -55 -117 -55c-87 0 -168 50 -168 150zM248 547c23 0 41 18 41 42c0 23 -17 41 -41 41s-41 -18 -41 -42
c0 -25 18 -41 41 -41zM248 497c-49 0 -91 34 -91 91c0 51 39 92 91 92c51 0 91 -43 91 -91c0 -51 -40 -92 -91 -92z" />
    <glyph glyph-name="egrave" unicode="&#xe8;" horiz-adv-x="484" 
d="M130 172c7 -63 58 -102 138 -102c40 0 104 16 127 42c1 1 3 4 6 4s4 -3 4 -10v-69c0 -5 -1 -9 -8 -14c-25 -19 -78 -33 -129 -33c-155 0 -232 101 -232 229c0 125 83 228 208 228c134 0 204 -106 204 -228v-28c0 -8 -1 -10 -10 -10h-297c-9 0 -11 -1 -11 -9zM244 368
c-66 0 -111 -48 -119 -107c0 -9 1 -10 10 -10h214c11 0 11 1 10 10c-7 60 -43 107 -115 107zM225 640l96 -124c5 -6 8 -10 -2 -10h-71c-8 0 -10 2 -18 10l-121 124c-8 9 -5 10 4 10h96c8 0 10 -2 16 -10z" />
    <glyph glyph-name="eacute" unicode="&#xe9;" horiz-adv-x="484" 
d="M130 172c7 -63 58 -102 138 -102c40 0 104 16 127 42c1 1 3 4 6 4s4 -3 4 -10v-69c0 -5 -1 -9 -8 -14c-25 -19 -78 -33 -129 -33c-155 0 -232 101 -232 229c0 125 83 228 208 228c134 0 204 -106 204 -228v-28c0 -8 -1 -10 -10 -10h-297c-9 0 -11 -1 -11 -9zM244 368
c-66 0 -111 -48 -119 -107c0 -9 1 -10 10 -10h214c11 0 11 1 10 10c-7 60 -43 107 -115 107zM281 640c6 8 8 10 16 10h96c9 0 12 -1 4 -10l-121 -124c-8 -8 -10 -10 -18 -10h-71c-10 0 -7 4 -2 10z" />
    <glyph glyph-name="ecircumflex" unicode="&#xea;" horiz-adv-x="484" 
d="M130 172c7 -63 58 -102 138 -102c40 0 104 16 127 42c1 1 3 4 6 4s4 -3 4 -10v-69c0 -5 -1 -9 -8 -14c-25 -19 -78 -33 -129 -33c-155 0 -232 101 -232 229c0 125 83 228 208 228c134 0 204 -106 204 -228v-28c0 -8 -1 -10 -10 -10h-297c-9 0 -11 -1 -11 -9zM244 368
c-66 0 -111 -48 -119 -107c0 -9 1 -10 10 -10h214c11 0 11 1 10 10c-7 60 -43 107 -115 107zM187 640c7 8 11 10 19 10h76c7 0 14 -3 19 -10l108 -124c2 -3 3 -5 3 -7s-2 -3 -6 -3h-62c-9 0 -12 5 -17 10l-75 75c-1 1 -3 2 -6 2s-5 -1 -6 -2l-73 -75c-5 -5 -8 -10 -17 -10
h-64c-4 0 -6 1 -6 3s1 4 3 7z" />
    <glyph glyph-name="edieresis" unicode="&#xeb;" horiz-adv-x="484" 
d="M130 172c7 -63 58 -102 138 -102c40 0 104 16 127 42c1 1 3 4 6 4s4 -3 4 -10v-69c0 -5 -1 -9 -8 -14c-25 -19 -78 -33 -129 -33c-155 0 -232 101 -232 229c0 125 83 228 208 228c134 0 204 -106 204 -228v-28c0 -8 -1 -10 -10 -10h-297c-9 0 -11 -1 -11 -9zM244 368
c-66 0 -111 -48 -119 -107c0 -9 1 -10 10 -10h214c11 0 11 1 10 10c-7 60 -43 107 -115 107zM349 518c-31 0 -60 25 -60 60c0 33 27 61 60 61c32 0 60 -29 60 -60s-29 -61 -60 -61zM143 518c-31 0 -60 25 -60 60c0 33 28 61 60 61c33 0 60 -29 60 -60s-28 -61 -60 -61z" />
    <glyph glyph-name="igrave" unicode="&#xec;" horiz-adv-x="224" 
d="M179 516c3 -5 5 -7 5 -8s-2 -2 -7 -2h-58c-8 0 -10 2 -18 10l-117 125c-4 4 -6 7 -6 8s3 2 10 2h93c8 0 9 -2 16 -10zM68 10v417c0 8 1 10 10 10h68c9 0 10 -2 10 -10v-417c0 -8 -1 -10 -10 -10h-68c-9 0 -10 2 -10 10z" />
    <glyph glyph-name="iacute" unicode="&#xed;" horiz-adv-x="224" 
d="M127 641c7 8 8 10 16 10h93c7 0 10 -1 10 -2s-2 -4 -6 -8l-117 -125c-8 -8 -10 -10 -18 -10h-58c-5 0 -7 1 -7 2s2 3 5 8zM68 427c0 8 1 10 10 10h68c9 0 10 -2 10 -10v-417c0 -8 -1 -10 -10 -10h-68c-9 0 -10 2 -10 10v417z" />
    <glyph glyph-name="icircumflex" unicode="&#xee;" horiz-adv-x="224" 
d="M61 641c7 8 11 10 19 10h60c7 0 14 -3 19 -10l86 -125c2 -3 3 -5 3 -7s-2 -3 -6 -3h-57c-9 0 -12 5 -17 10l-50 70c-1 1 -3 2 -6 2s-5 -1 -6 -2l-48 -70c-5 -5 -8 -10 -17 -10h-59c-4 0 -6 1 -6 3s1 4 3 7zM68 427c0 8 1 10 10 10h68c9 0 10 -2 10 -10v-417
c0 -8 -1 -10 -10 -10h-68c-9 0 -10 2 -10 10v417z" />
    <glyph glyph-name="idieresis" unicode="&#xef;" horiz-adv-x="224" 
d="M195 524c-31 0 -58 25 -58 58c0 32 26 59 58 59c31 0 58 -29 58 -58c0 -31 -27 -59 -58 -59zM29 524c-29 0 -58 25 -58 58c0 32 27 59 58 59c32 0 58 -29 58 -58c0 -31 -27 -59 -58 -59zM68 427c0 8 1 10 10 10h68c9 0 10 -2 10 -10v-417c0 -8 -1 -10 -10 -10h-68
c-9 0 -10 2 -10 10v417z" />
    <glyph glyph-name="Ntilde" unicode="&#xd1;" horiz-adv-x="590" 
d="M176 433c-2 2 -4 3 -7 3c-5 0 -8 -2 -8 -6v-420c0 -9 -1 -10 -10 -10h-74c-9 0 -10 1 -10 10v698c0 5 1 7 3 7s4 -1 7 -5l337 -443c2 -2 4 -3 7 -3c5 0 8 2 8 6v420c0 9 1 10 10 10h74c9 0 10 -1 10 -10v-698c0 -5 -1 -7 -3 -7s-4 2 -7 5zM152 762c-9 0 -10 2 -10 10v14
c0 53 34 98 93 98c84 0 88 -59 130 -59c18 0 34 12 34 35v11c0 8 1 10 10 10h44c9 0 10 -2 10 -10v-15c0 -53 -30 -97 -89 -97c-86 0 -90 59 -134 59c-18 0 -34 -13 -34 -36v-10c0 -8 -1 -10 -10 -10h-44z" />
    <glyph glyph-name="ntilde" unicode="&#xf1;" horiz-adv-x="506" 
d="M448 10c0 -8 -1 -10 -10 -10h-68c-9 0 -10 2 -10 10v248c0 69 -25 109 -90 109c-68 0 -118 -47 -118 -128v-229c0 -8 -1 -10 -10 -10h-68c-9 0 -10 2 -10 10v417c0 9 1 10 10 10h68c9 0 10 -2 10 -10v-40c0 -1 1 -2 4 -2c2 0 3 0 4 1c38 36 70 61 131 61
c121 0 157 -74 157 -169v-268zM104 518c-9 0 -10 2 -10 10v14c0 53 34 98 93 98c84 0 88 -59 130 -59c18 0 34 12 34 35v11c0 8 1 10 10 10h44c9 0 10 -2 10 -10v-15c0 -53 -30 -97 -89 -97c-86 0 -90 59 -134 59c-18 0 -34 -13 -34 -36v-10c0 -8 -1 -10 -10 -10h-44z" />
    <glyph glyph-name="filledbox" unicode="&#x25a0;" horiz-adv-x="810" 
d="M82 0c-9 0 -10 1 -10 10v680c0 9 1 10 10 10h646c9 0 10 -1 10 -10v-680c0 -9 -1 -10 -10 -10h-646z" />
    <glyph glyph-name="ograve" unicode="&#xf2;" horiz-adv-x="519" 
d="M32 219c0 125 103 228 228 228s227 -103 227 -228s-102 -229 -227 -229s-228 104 -228 229zM122 219c0 -83 55 -149 138 -149c84 0 137 66 137 149c0 81 -53 148 -137 148c-83 0 -138 -67 -138 -148zM218 640l96 -124c5 -6 8 -10 -2 -10h-71c-8 0 -10 2 -18 10l-121 124
c-8 9 -5 10 4 10h96c8 0 10 -2 16 -10z" />
    <glyph glyph-name="oacute" unicode="&#xf3;" horiz-adv-x="519" 
d="M32 219c0 125 103 228 228 228s227 -103 227 -228s-102 -229 -227 -229s-228 104 -228 229zM122 219c0 -83 55 -149 138 -149c84 0 137 66 137 149c0 81 -53 148 -137 148c-83 0 -138 -67 -138 -148zM314 640c6 8 8 10 16 10h96c9 0 12 -1 4 -10l-121 -124
c-8 -8 -10 -10 -18 -10h-71c-10 0 -7 4 -2 10z" />
    <glyph glyph-name="ocircumflex" unicode="&#xf4;" horiz-adv-x="519" 
d="M32 219c0 125 103 228 228 228s227 -103 227 -228s-102 -229 -227 -229s-228 104 -228 229zM122 219c0 -83 55 -149 138 -149c84 0 137 66 137 149c0 81 -53 148 -137 148c-83 0 -138 -67 -138 -148zM200 640c7 8 11 10 19 10h76c7 0 14 -3 19 -10l108 -124
c2 -3 3 -5 3 -7s-2 -3 -6 -3h-62c-9 0 -12 5 -17 10l-75 75c-1 1 -3 2 -6 2s-5 -1 -6 -2l-73 -75c-5 -5 -8 -10 -17 -10h-64c-4 0 -6 1 -6 3s1 4 3 7z" />
    <glyph glyph-name="otilde" unicode="&#xf5;" horiz-adv-x="519" 
d="M32 219c0 125 103 228 228 228s227 -103 227 -228s-102 -229 -227 -229s-228 104 -228 229zM122 219c0 -83 55 -149 138 -149c84 0 137 66 137 149c0 81 -53 148 -137 148c-83 0 -138 -67 -138 -148zM110 518c-9 0 -10 2 -10 10v14c0 53 34 98 93 98c84 0 88 -59 130 -59
c18 0 34 12 34 35v11c0 8 1 10 10 10h44c9 0 10 -2 10 -10v-15c0 -53 -30 -97 -89 -97c-86 0 -90 59 -134 59c-18 0 -34 -13 -34 -36v-10c0 -8 -1 -10 -10 -10h-44z" />
    <glyph glyph-name="odieresis" unicode="&#xf6;" horiz-adv-x="519" 
d="M32 219c0 125 103 228 228 228s227 -103 227 -228s-102 -229 -227 -229s-228 104 -228 229zM122 219c0 -83 55 -149 138 -149c84 0 137 66 137 149c0 81 -53 148 -137 148c-83 0 -138 -67 -138 -148zM363 518c-31 0 -60 25 -60 60c0 33 27 61 60 61c32 0 60 -29 60 -60
s-29 -61 -60 -61zM157 518c-31 0 -60 25 -60 60c0 33 28 61 60 61c33 0 60 -29 60 -60s-28 -61 -60 -61z" />
    <glyph glyph-name="Cacute" unicode="&#x106;" horiz-adv-x="622" 
d="M406 -10c-223 0 -360 164 -360 360s137 360 360 360c59 0 112 -16 160 -40c5 -3 8 -6 8 -10v-107c0 -5 -1 -7 -4 -7c-2 0 -4 1 -5 2c-41 41 -94 65 -159 65c-165 0 -252 -128 -252 -263s87 -263 252 -263c65 0 118 24 159 65c1 1 3 2 5 2c3 0 4 -2 4 -7v-107
c0 -4 -3 -7 -8 -10c-48 -24 -101 -40 -160 -40zM401 884c6 8 8 10 16 10h96c9 0 12 -1 4 -10l-121 -124c-8 -8 -10 -10 -18 -10h-71c-10 0 -7 4 -2 10z" />
    <glyph glyph-name="cacute" unicode="&#x107;" horiz-adv-x="412" 
d="M368 13c-31 -15 -74 -23 -109 -23c-131 0 -227 101 -227 229s96 228 227 228c35 0 77 -8 106 -21c7 -3 8 -5 8 -10v-82c0 -5 -1 -7 -4 -7c-1 0 -3 1 -5 2c-23 23 -59 38 -103 38c-88 0 -139 -64 -139 -148c0 -86 51 -149 139 -149c47 0 83 15 107 42c1 1 2 1 4 1
c3 0 4 -2 4 -7v-83c0 -5 -1 -7 -8 -10zM287 640c6 8 8 10 16 10h96c9 0 12 -1 4 -10l-121 -124c-8 -8 -10 -10 -18 -10h-71c-10 0 -7 4 -2 10z" />
    <glyph glyph-name="Ccircumflex" unicode="&#x108;" horiz-adv-x="622" 
d="M406 -10c-223 0 -360 164 -360 360s137 360 360 360c59 0 112 -16 160 -40c5 -3 8 -6 8 -10v-107c0 -5 -1 -7 -4 -7c-2 0 -4 1 -5 2c-41 41 -94 65 -159 65c-165 0 -252 -128 -252 -263s87 -263 252 -263c65 0 118 24 159 65c1 1 3 2 5 2c3 0 4 -2 4 -7v-107
c0 -4 -3 -7 -8 -10c-48 -24 -101 -40 -160 -40zM314 884c7 8 11 10 19 10h76c7 0 14 -3 19 -10l108 -124c2 -3 3 -5 3 -7s-2 -3 -6 -3h-62c-9 0 -12 5 -17 10l-75 75c-1 1 -3 2 -6 2s-5 -1 -6 -2l-73 -75c-5 -5 -8 -10 -17 -10h-64c-4 0 -6 1 -6 3s1 4 3 7z" />
    <glyph glyph-name="ccircumflex" unicode="&#x109;" horiz-adv-x="412" 
d="M368 13c-31 -15 -74 -23 -109 -23c-131 0 -227 101 -227 229s96 228 227 228c35 0 77 -8 106 -21c7 -3 8 -5 8 -10v-82c0 -5 -1 -7 -4 -7c-1 0 -3 1 -5 2c-23 23 -59 38 -103 38c-88 0 -139 -64 -139 -148c0 -86 51 -149 139 -149c47 0 83 15 107 42c1 1 2 1 4 1
c3 0 4 -2 4 -7v-83c0 -5 -1 -7 -8 -10zM176 640c7 8 11 10 19 10h76c7 0 14 -3 19 -10l108 -124c2 -3 3 -5 3 -7s-2 -3 -6 -3h-62c-9 0 -12 5 -17 10l-75 75c-1 1 -3 2 -6 2s-5 -1 -6 -2l-73 -75c-5 -5 -8 -10 -17 -10h-64c-4 0 -6 1 -6 3s1 4 3 7z" />
    <glyph glyph-name="Ccaron" unicode="&#x10c;" horiz-adv-x="622" 
d="M406 -10c-223 0 -360 164 -360 360s137 360 360 360c59 0 112 -16 160 -40c5 -3 8 -6 8 -10v-107c0 -5 -1 -7 -4 -7c-2 0 -4 1 -5 2c-41 41 -94 65 -159 65c-165 0 -252 -128 -252 -263s87 -263 252 -263c65 0 118 24 159 65c1 1 3 2 5 2c3 0 4 -2 4 -7v-107
c0 -4 -3 -7 -8 -10c-48 -24 -101 -40 -160 -40zM432 760c-5 -7 -12 -10 -19 -10h-76c-8 0 -14 3 -19 10l-108 124c-2 3 -3 5 -3 7s2 3 6 3h62c9 0 12 -5 17 -10l75 -75c1 -1 3 -2 6 -2s5 1 6 2l73 75c5 5 8 10 17 10h64c4 0 6 -1 6 -3s-1 -4 -3 -7z" />
    <glyph glyph-name="ccaron" unicode="&#x10d;" horiz-adv-x="412" 
d="M368 13c-31 -15 -74 -23 -109 -23c-131 0 -227 101 -227 229s96 228 227 228c35 0 77 -8 106 -21c7 -3 8 -5 8 -10v-82c0 -5 -1 -7 -4 -7c-1 0 -3 1 -5 2c-23 23 -59 38 -103 38c-88 0 -139 -64 -139 -148c0 -86 51 -149 139 -149c47 0 83 15 107 42c1 1 2 1 4 1
c3 0 4 -2 4 -7v-83c0 -5 -1 -7 -8 -10zM294 516c-5 -7 -12 -10 -19 -10h-76c-8 0 -14 3 -19 10l-108 124c-2 3 -3 5 -3 7s2 3 6 3h62c9 0 12 -5 17 -10l75 -75c1 -1 3 -2 6 -2s5 1 6 2l73 75c5 5 8 10 17 10h64c4 0 6 -1 6 -3s-1 -4 -3 -7z" />
    <glyph glyph-name="Dcaron" unicode="&#x10e;" horiz-adv-x="629" 
d="M246 700c85 0 143 -18 190 -47c97 -60 147 -172 147 -303c0 -145 -67 -271 -194 -324c-41 -17 -99 -26 -152 -26h-154c-9 0 -10 1 -10 10v680c0 9 1 10 10 10h163zM474 350c0 95 -28 178 -92 223c-33 24 -89 36 -145 36h-56c-9 0 -10 -1 -10 -10v-498c0 -9 1 -10 10 -10
h57c56 0 107 12 140 36c64 45 96 128 96 223zM308 760c-5 -7 -12 -10 -19 -10h-76c-8 0 -14 3 -19 10l-108 124c-2 3 -3 5 -3 7s2 3 6 3h62c9 0 12 -5 17 -10l75 -75c1 -1 3 -2 6 -2s5 1 6 2l73 75c5 5 8 10 17 10h64c4 0 6 -1 6 -3s-1 -4 -3 -7z" />
    <glyph glyph-name="macron" unicode="&#xaf;" 
d="M91 600c0 9 2 10 10 10h298c9 0 10 -1 10 -10v-44c0 -9 -1 -10 -10 -10h-298c-9 0 -10 1 -10 10v44z" />
    <glyph glyph-name="breve" unicode="&#x2d8;" 
d="M250 501c-79 0 -153 36 -152 139c0 8 1 10 10 10h52c7 0 10 -3 10 -10c1 -57 37 -77 80 -77s79 20 80 77c0 7 3 10 10 10h52c9 0 10 -2 10 -10c1 -103 -73 -139 -152 -139z" />
    <glyph glyph-name="ogonek" unicode="&#x2db;" 
d="M142 -95c0 43 42 92 85 115l58 -10c-45 -18 -71 -56 -71 -92c0 -35 18 -56 63 -56c10 0 10 -1 10 -9v-43c0 -7 -1 -9 -10 -10s-12 -1 -23 -1c-67 0 -112 43 -112 106z" />
    <glyph glyph-name="hungarumlaut" unicode="&#x2dd;" 
d="M184 640c7 8 8 10 16 10h87c7 0 10 -1 10 -2s-2 -4 -6 -8l-117 -124c-8 -8 -10 -10 -18 -10h-66c-5 0 -7 1 -7 2s2 3 5 8zM364 640c7 8 8 10 16 10h87c7 0 10 -1 10 -2s-2 -4 -6 -8l-117 -124c-8 -8 -10 -10 -18 -10h-66c-5 0 -7 1 -7 2s2 3 5 8z" />
    <glyph glyph-name="Abreve" unicode="&#x102;" horiz-adv-x="562" 
d="M284 443c-1 2 -3 3 -6 3s-5 -1 -6 -3l-76 -218c-1 -4 -2 -6 -2 -6c0 -3 -1 -4 6 -4h157c5 0 7 1 7 3c0 1 -1 3 -2 7zM275 711c1 3 2 4 5 4s4 -1 5 -4l260 -701c1 -1 1 -3 1 -6s-3 -4 -8 -4h-87c-8 0 -10 1 -13 10l-40 105c-3 9 -4 10 -13 10h-214c-7 0 -11 -3 -13 -10
l-37 -105c-3 -9 -5 -10 -13 -10h-84c-5 0 -8 1 -8 4s0 5 1 6zM281 745c-79 0 -153 36 -152 139c0 8 1 10 10 10h52c7 0 10 -3 10 -10c1 -57 37 -77 80 -77s79 20 80 77c0 7 3 10 10 10h52c9 0 10 -2 10 -10c1 -103 -73 -139 -152 -139z" />
    <glyph glyph-name="abreve" unicode="&#x103;" horiz-adv-x="466" 
d="M320 151c0 43 -48 71 -103 71c-59 0 -99 -32 -99 -79c0 -48 37 -81 99 -81c57 0 103 47 103 89zM32 140c0 97 78 152 168 152c56 0 96 -21 114 -35c1 -1 3 -1 4 -1c3 0 4 3 4 7v23c0 56 -32 87 -104 87c-53 0 -89 -20 -104 -32c-2 -2 -4 -3 -7 -3s-4 3 -4 8v61
c0 5 3 9 8 12c25 17 68 28 115 28c154 0 182 -85 182 -160v-277c0 -8 -1 -10 -10 -10h-63c-9 0 -10 2 -10 10v34c0 1 -1 2 -4 2c-2 0 -3 0 -4 -1c-28 -35 -70 -55 -117 -55c-87 0 -168 50 -168 150zM252 501c-79 0 -153 36 -152 139c0 8 1 10 10 10h52c7 0 10 -3 10 -10
c1 -57 37 -77 80 -77s79 20 80 77c0 7 3 10 10 10h52c9 0 10 -2 10 -10c1 -103 -73 -139 -152 -139z" />
    <glyph glyph-name="Racute" unicode="&#x154;" horiz-adv-x="545" 
d="M250 374c88 0 126 44 126 120c0 79 -50 118 -130 118h-67c-9 0 -10 -1 -10 -10v-218c0 -9 1 -10 10 -10h71zM169 10c0 -9 -1 -10 -10 -10h-75c-9 0 -12 1 -12 10v680c0 9 1 10 10 10h159c75 0 133 -16 173 -49c45 -37 64 -93 64 -157c0 -101 -62 -174 -169 -195
c-3 -1 -4 -2 -4 -4c0 -1 1 -3 2 -4l217 -281c3 -5 5 -7 5 -8s-3 -2 -9 -2h-100c-9 0 -8 1 -16 10l-223 292c-3 4 -6 6 -8 6c-3 0 -4 -3 -4 -9v-289zM263 884c6 8 8 10 16 10h96c9 0 12 -1 4 -10l-121 -124c-8 -8 -10 -10 -18 -10h-71c-10 0 -7 4 -2 10z" />
    <glyph glyph-name="racute" unicode="&#x155;" horiz-adv-x="319" 
d="M74 0c-9 0 -10 2 -10 10v417c0 8 1 10 10 10h68c9 0 10 -2 10 -10v-53c0 -1 1 -2 4 -2c2 0 3 0 4 1c19 36 73 74 131 74c9 0 10 -2 10 -10v-72c0 -7 -2 -11 -5 -11c-4 0 -12 2 -27 2c-76 0 -117 -65 -117 -173v-173c0 -8 -1 -10 -10 -10h-68zM170 640c6 8 8 10 16 10h96
c9 0 12 -1 4 -10l-121 -124c-8 -8 -10 -10 -18 -10h-71c-10 0 -7 4 -2 10z" />
    <glyph glyph-name="ebreve" unicode="&#x115;" horiz-adv-x="484" 
d="M130 172c7 -63 58 -102 138 -102c40 0 104 16 127 42c1 1 3 4 6 4s4 -3 4 -10v-69c0 -5 -1 -9 -8 -14c-25 -19 -78 -33 -129 -33c-155 0 -232 101 -232 229c0 125 83 228 208 228c134 0 204 -106 204 -228v-28c0 -8 -1 -10 -10 -10h-297c-9 0 -11 -1 -11 -9zM244 368
c-66 0 -111 -48 -119 -107c0 -9 1 -10 10 -10h214c11 0 11 1 10 10c-7 60 -43 107 -115 107zM242 501c-79 0 -153 36 -152 139c0 8 1 10 10 10h52c7 0 10 -3 10 -10c1 -57 37 -77 80 -77s79 20 80 77c0 7 3 10 10 10h52c9 0 10 -2 10 -10c1 -103 -73 -139 -152 -139z" />
    <glyph glyph-name="Ebreve" unicode="&#x114;" horiz-adv-x="512" 
d="M73 690c0 9 1 10 10 10h373c9 0 10 -1 10 -10v-72c0 -9 -1 -10 -10 -10h-275c-9 0 -10 -1 -10 -10v-247c0 -9 1 -10 10 -10h265c9 0 10 -1 10 -10v-71c0 -9 -1 -10 -10 -10h-265c-9 0 -10 -1 -10 -10v-138c0 -9 1 -10 10 -10h280c9 0 10 -1 10 -10v-72
c0 -9 -1 -10 -10 -10h-378c-9 0 -10 1 -10 10v680zM266 745c-79 0 -153 36 -152 139c0 8 1 10 10 10h52c7 0 10 -3 10 -10c1 -57 37 -77 80 -77s79 20 80 77c0 7 3 10 10 10h52c9 0 10 -2 10 -10c1 -103 -73 -139 -152 -139z" />
    <glyph glyph-name="Gcircumflex" unicode="&#x11c;" horiz-adv-x="661" 
d="M406 613c-169 0 -252 -123 -252 -263c0 -141 85 -267 256 -267c35 0 74 4 99 16c3 1 5 4 5 7v169c0 9 -1 10 -10 10h-131c-9 0 -10 1 -10 10v69c0 9 1 10 10 10h227c9 0 10 -1 10 -10v-313c0 -4 -2 -8 -6 -11c-45 -37 -126 -50 -194 -50c-227 0 -364 164 -364 360
s137 360 360 360c64 0 115 -13 163 -40c5 -3 8 -6 8 -10v-107c0 -5 -1 -7 -4 -7c-2 0 -4 1 -5 2c-41 41 -97 65 -162 65zM318 884c7 8 11 10 19 10h76c7 0 14 -3 19 -10l108 -124c2 -3 3 -5 3 -7s-2 -3 -6 -3h-62c-9 0 -12 5 -17 10l-75 75c-1 1 -3 2 -6 2s-5 -1 -6 -2
l-73 -75c-5 -5 -8 -10 -17 -10h-64c-4 0 -6 1 -6 3s1 4 3 7z" />
    <glyph glyph-name="kgreenlandic" unicode="&#x138;" horiz-adv-x="449" 
d="M152 265c0 -5 2 -7 6 -7s7 2 9 5l142 164c7 8 7 10 16 10h90c5 0 8 -1 8 -3c0 -1 -1 -3 -4 -7l-168 -192c-1 -1 -2 -3 -2 -5s1 -4 2 -5l177 -215c3 -5 5 -7 5 -8s-3 -2 -9 -2h-90c-9 0 -8 1 -16 10l-150 186c-2 3 -5 4 -8 4c-5 0 -8 -2 -8 -7v-183c0 -8 -1 -10 -10 -10
h-68c-9 0 -10 2 -10 10v417c0 8 1 10 10 10h68c9 0 10 -2 10 -10v-162z" />
    <glyph glyph-name="commaaccent" unicode="&#xe02c;" 
d="M196 -76c1 8 2 10 11 10h68c7 0 10 -3 9 -10l-45 -153c-3 -8 -4 -10 -13 -10h-38c-8 0 -7 3 -7 10z" />
    <glyph glyph-name="lcommaaccent" unicode="&#x13c;" horiz-adv-x="224" 
d="M68 740c0 8 1 10 10 10h68c9 0 10 -2 10 -10v-730c0 -8 -1 -10 -10 -10h-68c-9 0 -10 2 -10 10v730zM78 -76c1 8 2 10 11 10h68c7 0 10 -3 9 -10l-45 -153c-3 -8 -4 -10 -13 -10h-38c-8 0 -7 3 -7 10z" />
    <glyph glyph-name="Lcommaaccent" unicode="&#x13b;" horiz-adv-x="452" 
d="M73 690c0 9 1 10 10 10h76c9 0 10 -1 10 -10v-588c0 -9 1 -10 10 -10h232c9 0 10 -1 10 -10v-72c0 -9 -1 -10 -10 -10h-328c-9 0 -10 1 -10 10v680zM189 -76c1 8 2 10 11 10h68c7 0 10 -3 9 -10l-45 -153c-3 -8 -4 -10 -13 -10h-38c-8 0 -7 3 -7 10z" />
    <glyph glyph-name="Ldot" unicode="&#x13f;" horiz-adv-x="452" 
d="M334 323c-30 0 -55 23 -55 55c0 31 24 55 55 55s55 -24 55 -54c0 -32 -24 -56 -55 -56zM73 690c0 9 1 10 10 10h76c9 0 10 -1 10 -10v-588c0 -9 1 -10 10 -10h232c9 0 10 -1 10 -10v-72c0 -9 -1 -10 -10 -10h-328c-9 0 -10 1 -10 10v680z" />
    <glyph glyph-name="ldot" unicode="&#x140;" horiz-adv-x="272" 
d="M248 312c-28 0 -52 22 -52 52c0 29 23 52 52 52s52 -23 52 -51c0 -30 -23 -53 -52 -53zM68 740c0 8 1 10 10 10h68c9 0 10 -2 10 -10v-730c0 -8 -1 -10 -10 -10h-68c-9 0 -10 2 -10 10v730z" />
    <glyph glyph-name="Lslash" unicode="&#x141;" horiz-adv-x="452" 
d="M0 285c0 9 2 9 10 16l61 50v339c0 9 1 10 10 10h80c9 0 10 -1 10 -10v-273l76 60c3 2 5 3 7 3s3 -2 3 -7v-68c0 -8 -1 -9 -10 -16l-76 -60v-227c0 -9 1 -10 10 -10h230c9 0 10 -1 10 -10v-72c0 -9 -1 -10 -10 -10h-330c-9 0 -10 1 -10 10v253l-61 -50c-4 -3 -6 -4 -7 -4
c-2 0 -3 3 -3 8v68z" />
    <glyph glyph-name="lslash" unicode="&#x142;" horiz-adv-x="248" 
d="M18 298l52 39c7 6 10 9 10 18v385c0 8 1 10 10 10h68c9 0 10 -2 10 -10v-333c0 -4 1 -7 3 -7c1 0 3 0 4 1l55 43c3 2 5 3 7 3s3 -2 3 -7v-64c0 -8 -1 -9 -10 -16l-52 -40c-7 -6 -10 -9 -10 -18v-292c0 -8 -1 -10 -10 -10h-68c-9 0 -10 2 -10 10v240c0 4 -1 7 -3 7
c-1 0 -3 0 -4 -1l-55 -42c-3 -1 -5 -2 -6 -2c-3 0 -4 2 -4 6v64c0 8 1 9 10 16z" />
    <glyph glyph-name="Nacute" unicode="&#x143;" horiz-adv-x="590" 
d="M176 433c-2 2 -4 3 -7 3c-5 0 -8 -2 -8 -6v-420c0 -9 -1 -10 -10 -10h-74c-9 0 -10 1 -10 10v698c0 5 1 7 3 7s4 -1 7 -5l337 -443c2 -2 4 -3 7 -3c5 0 8 2 8 6v420c0 9 1 10 10 10h74c9 0 10 -1 10 -10v-698c0 -5 -1 -7 -3 -7s-4 2 -7 5zM327 884c6 8 8 10 16 10h96
c9 0 12 -1 4 -10l-121 -124c-8 -8 -10 -10 -18 -10h-71c-10 0 -7 4 -2 10z" />
    <glyph glyph-name="nacute" unicode="&#x144;" horiz-adv-x="506" 
d="M448 10c0 -8 -1 -10 -10 -10h-68c-9 0 -10 2 -10 10v248c0 69 -25 109 -90 109c-68 0 -118 -47 -118 -128v-229c0 -8 -1 -10 -10 -10h-68c-9 0 -10 2 -10 10v417c0 9 1 10 10 10h68c9 0 10 -2 10 -10v-40c0 -1 1 -2 4 -2c2 0 3 0 4 1c38 36 70 61 131 61
c121 0 157 -74 157 -169v-268zM299 640c6 8 8 10 16 10h96c9 0 12 -1 4 -10l-121 -124c-8 -8 -10 -10 -18 -10h-71c-10 0 -7 4 -2 10z" />
    <glyph glyph-name="Ncommaaccent" unicode="&#x145;" horiz-adv-x="590" 
d="M176 433c-2 2 -4 3 -7 3c-5 0 -8 -2 -8 -6v-420c0 -9 -1 -10 -10 -10h-74c-9 0 -10 1 -10 10v698c0 5 1 7 3 7s4 -1 7 -5l337 -443c2 -2 4 -3 7 -3c5 0 8 2 8 6v420c0 9 1 10 10 10h74c9 0 10 -1 10 -10v-698c0 -5 -1 -7 -3 -7s-4 2 -7 5zM266 -76c1 8 2 10 11 10h68
c7 0 10 -3 9 -10l-45 -153c-3 -8 -4 -10 -13 -10h-38c-8 0 -7 3 -7 10z" />
    <glyph glyph-name="ncommaaccent" unicode="&#x146;" horiz-adv-x="506" 
d="M448 10c0 -8 -1 -10 -10 -10h-68c-9 0 -10 2 -10 10v248c0 69 -25 109 -90 109c-68 0 -118 -47 -118 -128v-229c0 -8 -1 -10 -10 -10h-68c-9 0 -10 2 -10 10v417c0 9 1 10 10 10h68c9 0 10 -2 10 -10v-40c0 -1 1 -2 4 -2c2 0 3 0 4 1c38 36 70 61 131 61
c121 0 157 -74 157 -169v-268zM216 -76c1 8 2 10 11 10h68c7 0 10 -3 9 -10l-45 -153c-3 -8 -4 -10 -13 -10h-38c-8 0 -7 3 -7 10z" />
    <glyph glyph-name="Ncaron" unicode="&#x147;" horiz-adv-x="590" 
d="M176 433c-2 2 -4 3 -7 3c-5 0 -8 -2 -8 -6v-420c0 -9 -1 -10 -10 -10h-74c-9 0 -10 1 -10 10v698c0 5 1 7 3 7s4 -1 7 -5l337 -443c2 -2 4 -3 7 -3c5 0 8 2 8 6v420c0 9 1 10 10 10h74c9 0 10 -1 10 -10v-698c0 -5 -1 -7 -3 -7s-4 2 -7 5zM361 760c-5 -7 -12 -10 -19 -10
h-76c-8 0 -14 3 -19 10l-108 124c-2 3 -3 5 -3 7s2 3 6 3h62c9 0 12 -5 17 -10l75 -75c1 -1 3 -2 6 -2s5 1 6 2l73 75c5 5 8 10 17 10h64c4 0 6 -1 6 -3s-1 -4 -3 -7z" />
    <glyph glyph-name="ncaron" unicode="&#x148;" horiz-adv-x="506" 
d="M448 10c0 -8 -1 -10 -10 -10h-68c-9 0 -10 2 -10 10v248c0 69 -25 109 -90 109c-68 0 -118 -47 -118 -128v-229c0 -8 -1 -10 -10 -10h-68c-9 0 -10 2 -10 10v417c0 9 1 10 10 10h68c9 0 10 -2 10 -10v-40c0 -1 1 -2 4 -2c2 0 3 0 4 1c38 36 70 61 131 61
c121 0 157 -74 157 -169v-268zM310 516c-5 -7 -12 -10 -19 -10h-76c-8 0 -14 3 -19 10l-108 124c-2 3 -3 5 -3 7s2 3 6 3h62c9 0 12 -5 17 -10l75 -75c1 -1 3 -2 6 -2s5 1 6 2l73 75c5 5 8 10 17 10h64c4 0 6 -1 6 -3s-1 -4 -3 -7z" />
    <glyph glyph-name="Eng" unicode="&#x14a;" horiz-adv-x="590" 
d="M417 115l-241 318c-2 2 -4 3 -7 3c-5 0 -8 -2 -8 -6v-420c0 -9 -1 -10 -10 -10h-74c-9 0 -10 1 -10 10v698c0 5 1 7 3 7s4 -1 7 -5l337 -443c2 -2 4 -3 7 -3c5 0 8 2 8 6l-1 420c0 9 1 10 10 10h74c9 0 10 -1 10 -10v-700c0 -95 -71 -135 -175 -135c-8 0 -10 1 -10 10v75
c0 9 2 10 10 10c72 0 81 22 81 100v45c0 7 -6 14 -11 20z" />
    <glyph glyph-name="eng" unicode="&#x14b;" horiz-adv-x="505" 
d="M359 258c0 69 -25 109 -90 109c-68 0 -118 -47 -118 -128v-229c0 -8 -1 -10 -10 -10h-68c-9 0 -10 2 -10 10v417c0 9 1 10 10 10h68c9 0 10 -2 10 -10v-40c0 -1 1 -2 4 -2c2 0 3 0 4 1c38 36 70 61 131 61c120 0 157 -74 157 -169v-341c0 -103 -36 -150 -119 -150
c-13 0 -22 0 -29 1l-9 2c-8 3 -10 3 -10 12v59c0 7 3 9 10 8c1 -1 3 -1 6 -1c3 -1 7 -1 12 -1c35 0 51 5 51 67v324z" />
    <glyph glyph-name="Obreve" unicode="&#x14e;" horiz-adv-x="792" 
d="M746 350c0 -196 -154 -360 -350 -360s-350 164 -350 360s154 360 350 360s350 -164 350 -360zM154 350c0 -142 101 -263 242 -263s242 121 242 263s-101 263 -242 263s-242 -121 -242 -263zM391 745c-79 0 -153 36 -152 139c0 8 1 10 10 10h52c7 0 10 -3 10 -10
c1 -57 37 -77 80 -77s79 20 80 77c0 7 3 10 10 10h52c9 0 10 -2 10 -10c1 -103 -73 -139 -152 -139z" />
    <glyph glyph-name="obreve" unicode="&#x14f;" horiz-adv-x="519" 
d="M32 219c0 125 103 228 228 228s227 -103 227 -228s-102 -229 -227 -229s-228 104 -228 229zM122 219c0 -83 55 -149 138 -149c84 0 137 66 137 149c0 81 -53 148 -137 148c-83 0 -138 -67 -138 -148zM260 501c-79 0 -153 36 -152 139c0 8 1 10 10 10h52c7 0 10 -3 10 -10
c1 -57 37 -77 80 -77s79 20 80 77c0 7 3 10 10 10h52c9 0 10 -2 10 -10c1 -103 -73 -139 -152 -139z" />
    <glyph glyph-name="Ohungarumlaut" unicode="&#x150;" horiz-adv-x="792" 
d="M746 350c0 -196 -154 -360 -350 -360s-350 164 -350 360s154 360 350 360s350 -164 350 -360zM154 350c0 -142 101 -263 242 -263s242 121 242 263s-101 263 -242 263s-242 -121 -242 -263zM357 884c7 8 8 10 16 10h87c7 0 10 -1 10 -2s-2 -4 -6 -8l-117 -124
c-8 -8 -10 -10 -18 -10h-66c-5 0 -7 1 -7 2s2 3 5 8zM537 884c7 8 8 10 16 10h87c7 0 10 -1 10 -2s-2 -4 -6 -8l-117 -124c-8 -8 -10 -10 -18 -10h-66c-5 0 -7 1 -7 2s2 3 5 8z" />
    <glyph glyph-name="ohungarumlaut" unicode="&#x151;" horiz-adv-x="519" 
d="M32 219c0 125 103 228 228 228s227 -103 227 -228s-102 -229 -227 -229s-228 104 -228 229zM122 219c0 -83 55 -149 138 -149c84 0 137 66 137 149c0 81 -53 148 -137 148c-83 0 -138 -67 -138 -148zM224 640c7 8 8 10 16 10h87c7 0 10 -1 10 -2s-2 -4 -6 -8l-117 -124
c-8 -8 -10 -10 -18 -10h-66c-5 0 -7 1 -7 2s2 3 5 8zM404 640c7 8 8 10 16 10h87c7 0 10 -1 10 -2s-2 -4 -6 -8l-117 -124c-8 -8 -10 -10 -18 -10h-66c-5 0 -7 1 -7 2s2 3 5 8z" />
    <glyph glyph-name="longs" unicode="&#x17f;" horiz-adv-x="224" 
d="M152 10c0 -8 -1 -10 -10 -10h-68c-9 0 -10 2 -10 10v600c0 103 39 156 122 156c15 0 31 -1 46 -5c8 -3 10 -4 10 -12v-59c0 -6 -2 -9 -6 -9l-4 1c-10 3 -20 4 -29 4c-33 0 -51 -25 -51 -68v-608z" />
    <glyph glyph-name="Rcommaaccent" unicode="&#x156;" horiz-adv-x="545" 
d="M250 374c88 0 126 44 126 120c0 79 -50 118 -130 118h-67c-9 0 -10 -1 -10 -10v-218c0 -9 1 -10 10 -10h71zM169 10c0 -9 -1 -10 -10 -10h-75c-9 0 -12 1 -12 10v680c0 9 1 10 10 10h159c75 0 133 -16 173 -49c45 -37 64 -93 64 -157c0 -101 -62 -174 -169 -195
c-3 -1 -4 -2 -4 -4c0 -1 1 -3 2 -4l217 -281c3 -5 5 -7 5 -8s-3 -2 -9 -2h-100c-9 0 -8 1 -16 10l-223 292c-3 4 -6 6 -8 6c-3 0 -4 -3 -4 -9v-289zM238 -76c1 8 2 10 11 10h68c7 0 10 -3 9 -10l-45 -153c-3 -8 -4 -10 -13 -10h-38c-8 0 -7 3 -7 10z" />
    <glyph glyph-name="rcommaaccent" unicode="&#x157;" horiz-adv-x="319" 
d="M74 0c-9 0 -10 2 -10 10v417c0 8 1 10 10 10h68c9 0 10 -2 10 -10v-53c0 -1 1 -2 4 -2c2 0 3 0 4 1c19 36 73 74 131 74c9 0 10 -2 10 -10v-72c0 -7 -2 -11 -5 -11c-4 0 -12 2 -27 2c-76 0 -117 -65 -117 -173v-173c0 -8 -1 -10 -10 -10h-68zM75 -76c1 8 2 10 11 10h68
c7 0 10 -3 9 -10l-45 -153c-3 -8 -4 -10 -13 -10h-38c-8 0 -7 3 -7 10z" />
    <glyph glyph-name="Rcaron" unicode="&#x158;" horiz-adv-x="545" 
d="M250 374c88 0 126 44 126 120c0 79 -50 118 -130 118h-67c-9 0 -10 -1 -10 -10v-218c0 -9 1 -10 10 -10h71zM169 10c0 -9 -1 -10 -10 -10h-75c-9 0 -12 1 -12 10v680c0 9 1 10 10 10h159c75 0 133 -16 173 -49c45 -37 64 -93 64 -157c0 -101 -62 -174 -169 -195
c-3 -1 -4 -2 -4 -4c0 -1 1 -3 2 -4l217 -281c3 -5 5 -7 5 -8s-3 -2 -9 -2h-100c-9 0 -8 1 -16 10l-223 292c-3 4 -6 6 -8 6c-3 0 -4 -3 -4 -9v-289zM304 760c-5 -7 -12 -10 -19 -10h-76c-8 0 -14 3 -19 10l-108 124c-2 3 -3 5 -3 7s2 3 6 3h62c9 0 12 -5 17 -10l75 -75
c1 -1 3 -2 6 -2s5 1 6 2l73 75c5 5 8 10 17 10h64c4 0 6 -1 6 -3s-1 -4 -3 -7z" />
    <glyph glyph-name="rcaron" unicode="&#x159;" horiz-adv-x="319" 
d="M74 0c-9 0 -10 2 -10 10v417c0 8 1 10 10 10h68c9 0 10 -2 10 -10v-53c0 -1 1 -2 4 -2c2 0 3 0 4 1c19 36 73 74 131 74c9 0 10 -2 10 -10v-72c0 -7 -2 -11 -5 -11c-4 0 -12 2 -27 2c-76 0 -117 -65 -117 -173v-173c0 -8 -1 -10 -10 -10h-68zM221 516
c-5 -7 -12 -10 -19 -10h-76c-8 0 -14 3 -19 10l-108 124c-2 3 -3 5 -3 7s2 3 6 3h62c9 0 12 -5 17 -10l75 -75c1 -1 3 -2 6 -2s5 1 6 2l73 75c5 5 8 10 17 10h64c4 0 6 -1 6 -3s-1 -4 -3 -7z" />
    <glyph glyph-name="Sacute" unicode="&#x15a;" horiz-adv-x="503" 
d="M252 -10c-83 0 -169 45 -209 117c-2 3 -3 5 -3 7s2 5 5 8l55 55c3 3 6 5 7 5c2 0 4 -2 7 -6c43 -71 86 -92 142 -92c68 0 106 45 106 97c0 147 -297 145 -297 349c0 100 77 180 192 180c77 0 135 -27 178 -87c2 -3 3 -6 3 -7c0 -2 -2 -5 -5 -8l-49 -49c-3 -3 -6 -5 -7 -5
c-2 0 -4 2 -7 6c-23 37 -59 58 -111 58c-59 0 -90 -37 -90 -88c0 -128 298 -128 298 -344c0 -116 -79 -196 -215 -196zM293 884c6 8 8 10 16 10h96c9 0 12 -1 4 -10l-121 -124c-8 -8 -10 -10 -18 -10h-71c-10 0 -7 4 -2 10z" />
    <glyph glyph-name="sacute" unicode="&#x15b;" horiz-adv-x="376" 
d="M268 334c-17 26 -42 39 -76 39c-37 0 -59 -22 -59 -50c0 -87 208 -55 208 -205c0 -60 -44 -128 -153 -128c-71 0 -119 27 -154 74c-1 2 -2 4 -2 7s1 5 4 8l41 41c3 3 5 4 7 4s4 -1 7 -5c29 -40 59 -54 99 -54c43 0 65 22 65 51c0 80 -206 54 -206 202
c0 69 52 129 140 129c56 0 103 -17 134 -60c1 -2 2 -4 2 -7s-1 -5 -4 -8l-39 -39c-3 -3 -5 -4 -7 -4s-4 1 -7 5zM193 640c6 8 8 10 16 10h96c9 0 12 -1 4 -10l-121 -124c-8 -8 -10 -10 -18 -10h-71c-10 0 -7 4 -2 10z" />
    <glyph glyph-name="Scircumflex" unicode="&#x15c;" horiz-adv-x="503" 
d="M252 -10c-83 0 -169 45 -209 117c-2 3 -3 5 -3 7s2 5 5 8l55 55c3 3 6 5 7 5c2 0 4 -2 7 -6c43 -71 86 -92 142 -92c68 0 106 45 106 97c0 147 -297 145 -297 349c0 100 77 180 192 180c77 0 135 -27 178 -87c2 -3 3 -6 3 -7c0 -2 -2 -5 -5 -8l-49 -49c-3 -3 -6 -5 -7 -5
c-2 0 -4 2 -7 6c-23 37 -59 58 -111 58c-59 0 -90 -37 -90 -88c0 -128 298 -128 298 -344c0 -116 -79 -196 -215 -196zM193 884c7 8 11 10 19 10h76c7 0 14 -3 19 -10l108 -124c2 -3 3 -5 3 -7s-2 -3 -6 -3h-62c-9 0 -12 5 -17 10l-75 75c-1 1 -3 2 -6 2s-5 -1 -6 -2
l-73 -75c-5 -5 -8 -10 -17 -10h-64c-4 0 -6 1 -6 3s1 4 3 7z" />
    <glyph glyph-name="scircumflex" unicode="&#x15d;" horiz-adv-x="376" 
d="M268 334c-17 26 -42 39 -76 39c-37 0 -59 -22 -59 -50c0 -87 208 -55 208 -205c0 -60 -44 -128 -153 -128c-71 0 -119 27 -154 74c-1 2 -2 4 -2 7s1 5 4 8l41 41c3 3 5 4 7 4s4 -1 7 -5c29 -40 59 -54 99 -54c43 0 65 22 65 51c0 80 -206 54 -206 202
c0 69 52 129 140 129c56 0 103 -17 134 -60c1 -2 2 -4 2 -7s-1 -5 -4 -8l-39 -39c-3 -3 -5 -4 -7 -4s-4 1 -7 5zM127 640c7 8 11 10 19 10h76c7 0 14 -3 19 -10l108 -124c2 -3 3 -5 3 -7s-2 -3 -6 -3h-62c-9 0 -12 5 -17 10l-75 75c-1 1 -3 2 -6 2s-5 -1 -6 -2l-73 -75
c-5 -5 -8 -10 -17 -10h-64c-4 0 -6 1 -6 3s1 4 3 7z" />
    <glyph glyph-name="Scedilla" unicode="&#x15e;" horiz-adv-x="503" 
d="M171 3c-55 20 -102 55 -128 104c-2 3 -3 5 -3 7s2 5 5 8l55 55c3 3 6 5 7 5c2 0 4 -2 7 -6c43 -71 86 -92 142 -92c68 0 106 45 106 97c0 147 -297 145 -297 349c0 100 77 180 192 180c77 0 135 -27 178 -87c2 -3 3 -6 3 -7c0 -2 -2 -5 -5 -8l-49 -49c-3 -3 -6 -5 -7 -5
c-2 0 -4 2 -7 6c-23 37 -59 58 -111 58c-59 0 -90 -37 -90 -88c0 -128 298 -128 298 -344c0 -103 -63 -176 -170 -192c-3 0 -6 -3 -6 -6c0 -2 1 -5 3 -6c27 -17 44 -42 44 -79c0 -62 -46 -114 -111 -114c-25 0 -51 3 -74 19c-4 3 -6 7 -5 12l8 43c1 7 5 9 11 5
c16 -10 30 -16 50 -16c26 0 49 16 49 53c0 30 -26 48 -62 48c-6 0 -11 0 -21 -1c-9 -1 -11 1 -9 14l4 25c1 7 1 9 -7 12z" />
    <glyph glyph-name="scedilla" unicode="&#x15f;" horiz-adv-x="376" 
d="M241 -4c-4 -1 -6 -3 -6 -6c0 -2 1 -5 3 -6c27 -17 48 -44 48 -81c0 -62 -46 -114 -111 -114c-25 0 -51 3 -74 19c-4 3 -6 7 -5 12l8 43c1 7 5 9 11 5c16 -10 30 -16 50 -16c26 0 49 16 49 53c0 30 -26 48 -62 48c-6 0 -11 0 -21 -1c-9 -1 -11 1 -9 14l4 23c1 7 1 9 -7 12
c-35 12 -63 33 -85 63c-1 2 -2 4 -2 7s1 5 4 8l41 41c3 3 6 5 7 5c2 0 4 -2 7 -6c29 -40 59 -54 99 -54c43 0 65 22 65 51c0 80 -206 54 -206 202c0 69 52 129 140 129c56 0 102 -17 133 -60c1 -2 2 -4 2 -7s-1 -5 -4 -8l-38 -39c-3 -3 -6 -5 -7 -5c-2 0 -4 2 -7 6
c-17 26 -42 39 -76 39c-37 0 -59 -22 -59 -50c0 -87 208 -55 208 -205c0 -49 -29 -104 -100 -122z" />
    <glyph glyph-name="Tcommaaccent" unicode="&#x162;" horiz-adv-x="462" 
d="M26 690c0 9 1 10 10 10h390c9 0 10 -1 10 -10v-72c0 -9 -1 -10 -10 -10h-136c-9 0 -10 -1 -10 -10v-588c0 -9 -1 -10 -10 -10h-78c-9 0 -10 1 -10 10v588c0 9 -1 10 -10 10h-136c-9 0 -10 1 -10 10v72zM194 -76c1 8 2 10 11 10h68c7 0 10 -3 9 -10l-45 -153
c-3 -8 -4 -10 -13 -10h-38c-8 0 -7 3 -7 10z" />
    <glyph glyph-name="tcommaaccent" unicode="&#x163;" horiz-adv-x="264" 
d="M34 359c-9 0 -10 2 -10 10v58c0 8 1 10 10 10h40c9 0 10 1 10 10v133c0 7 3 12 10 16l65 40c3 1 4 3 7 3s5 -3 5 -8v-184c0 -9 1 -10 10 -10h61c9 0 10 -2 10 -10v-58c0 -8 -1 -10 -10 -10h-61c-9 0 -10 -1 -10 -10v-339c0 -8 -1 -10 -10 -10h-67c-9 0 -10 2 -10 10v339
c0 9 -1 10 -10 10h-40zM94 -76c1 8 2 10 11 10h68c7 0 10 -3 9 -10l-45 -153c-3 -8 -4 -10 -13 -10h-38c-8 0 -7 3 -7 10z" />
    <glyph glyph-name="Tcaron" unicode="&#x164;" horiz-adv-x="462" 
d="M26 690c0 9 1 10 10 10h390c9 0 10 -1 10 -10v-72c0 -9 -1 -10 -10 -10h-136c-9 0 -10 -1 -10 -10v-588c0 -9 -1 -10 -10 -10h-78c-9 0 -10 1 -10 10v588c0 9 -1 10 -10 10h-136c-9 0 -10 1 -10 10v72zM290 760c-5 -7 -12 -10 -19 -10h-76c-8 0 -14 3 -19 10l-108 124
c-2 3 -3 5 -3 7s2 3 6 3h62c9 0 12 -5 17 -10l75 -75c1 -1 3 -2 6 -2s5 1 6 2l73 75c5 5 8 10 17 10h64c4 0 6 -1 6 -3s-1 -4 -3 -7z" />
    <glyph glyph-name="tcaron" unicode="&#x165;" horiz-adv-x="264" 
d="M34 359c-9 0 -10 2 -10 10v58c0 8 1 10 10 10h40c9 0 10 1 10 10v133c0 7 3 12 10 16l65 40c3 1 4 3 7 3s5 -3 5 -8v-184c0 -9 1 -10 10 -10h61c9 0 10 -2 10 -10v-58c0 -8 -1 -10 -10 -10h-61c-9 0 -10 -1 -10 -10v-339c0 -8 -1 -10 -10 -10h-67c-9 0 -10 2 -10 10v339
c0 9 -1 10 -10 10h-40zM213 740c1 8 2 10 11 10h68c7 0 10 -3 9 -10l-45 -153c-3 -8 -4 -10 -13 -10h-38c-8 0 -7 3 -7 10z" />
    <glyph glyph-name="Tbar" unicode="&#x166;" horiz-adv-x="462" 
d="M66 427c0 9 2 10 10 10h105v161c0 9 -1 10 -10 10h-135c-9 0 -10 1 -10 10v72c0 9 1 10 10 10h390c9 0 10 -1 10 -10v-72c0 -9 -1 -10 -10 -10h-135c-9 0 -10 -1 -10 -10v-161h105c9 0 10 -1 10 -10v-56c0 -9 -1 -10 -10 -10h-105v-351c0 -9 -1 -10 -10 -10h-80
c-9 0 -10 1 -10 10v351h-105c-9 0 -10 1 -10 10v56z" />
    <glyph glyph-name="tbar" unicode="&#x167;" horiz-adv-x="264" 
d="M74 180h-36c-9 0 -10 1 -10 10v48c0 9 2 10 10 10h36c9 0 10 1 10 10v91c0 9 -1 10 -10 10h-40c-9 0 -10 2 -10 10v58c0 8 1 10 10 10h40c9 0 10 1 10 10v132c0 8 2 10 10 17l65 40c3 1 4 3 7 3s5 -3 5 -8v-184c0 -9 1 -10 10 -10h61c9 0 10 -2 10 -10v-58
c0 -8 -1 -10 -10 -10h-61c-9 0 -10 -1 -10 -10v-91c0 -9 1 -10 10 -10h47c9 0 10 -1 10 -10v-48c0 -9 -1 -10 -10 -10h-47c-9 0 -10 -1 -10 -10v-160c0 -8 -1 -10 -10 -10h-67c-9 0 -10 2 -10 10v160c0 9 -1 10 -10 10z" />
    <glyph glyph-name="Utilde" unicode="&#x168;" horiz-adv-x="618" 
d="M447 690c0 9 1 10 10 10h79c9 0 10 -1 10 -10v-471c0 -152 -99 -229 -236 -229s-238 77 -238 229v471c0 9 1 10 10 10h79c9 0 10 -1 10 -10v-452c0 -114 53 -153 139 -153c88 0 137 39 137 153v452zM159 762c-9 0 -10 2 -10 10v14c0 53 34 98 93 98c84 0 88 -59 130 -59
c18 0 34 12 34 35v11c0 8 1 10 10 10h44c9 0 10 -2 10 -10v-15c0 -53 -30 -97 -89 -97c-86 0 -90 59 -134 59c-18 0 -34 -13 -34 -36v-10c0 -8 -1 -10 -10 -10h-44z" />
    <glyph glyph-name="utilde" unicode="&#x169;" horiz-adv-x="472" 
d="M236 70c53 0 94 34 94 103v254c0 8 1 10 10 10h68c9 0 10 -2 10 -10v-260c0 -98 -61 -177 -182 -177s-182 79 -182 177v260c0 8 1 10 10 10h68c9 0 10 -2 10 -10v-254c0 -69 41 -103 94 -103zM86 518c-9 0 -10 2 -10 10v14c0 53 34 98 93 98c84 0 88 -59 130 -59
c18 0 34 12 34 35v11c0 8 1 10 10 10h44c9 0 10 -2 10 -10v-15c0 -53 -30 -97 -89 -97c-86 0 -90 59 -134 59c-18 0 -34 -13 -34 -36v-10c0 -8 -1 -10 -10 -10h-44z" />
    <glyph glyph-name="Ubreve" unicode="&#x16c;" horiz-adv-x="618" 
d="M447 690c0 9 1 10 10 10h79c9 0 10 -1 10 -10v-471c0 -152 -99 -229 -236 -229s-238 77 -238 229v471c0 9 1 10 10 10h79c9 0 10 -1 10 -10v-452c0 -114 53 -153 139 -153c88 0 137 39 137 153v452zM309 745c-79 0 -153 36 -152 139c0 8 1 10 10 10h52c7 0 10 -3 10 -10
c1 -57 37 -77 80 -77s79 20 80 77c0 7 3 10 10 10h52c9 0 10 -2 10 -10c1 -103 -73 -139 -152 -139z" />
    <glyph glyph-name="ubreve" unicode="&#x16d;" horiz-adv-x="472" 
d="M236 70c53 0 94 34 94 103v254c0 8 1 10 10 10h68c9 0 10 -2 10 -10v-260c0 -98 -61 -177 -182 -177s-182 79 -182 177v260c0 8 1 10 10 10h68c9 0 10 -2 10 -10v-254c0 -69 41 -103 94 -103zM235 501c-79 0 -153 36 -152 139c0 8 1 10 10 10h52c7 0 10 -3 10 -10
c1 -57 37 -77 80 -77s79 20 80 77c0 7 3 10 10 10h52c9 0 10 -2 10 -10c1 -103 -73 -139 -152 -139z" />
    <glyph glyph-name="Uring" unicode="&#x16e;" horiz-adv-x="618" 
d="M447 690c0 9 1 10 10 10h79c9 0 10 -1 10 -10v-471c0 -152 -99 -229 -236 -229s-238 77 -238 229v471c0 9 1 10 10 10h79c9 0 10 -1 10 -10v-452c0 -114 53 -153 139 -153c88 0 137 39 137 153v452zM309 790c23 0 41 18 41 42c0 23 -17 41 -41 41s-41 -18 -41 -42
c0 -25 18 -41 41 -41zM309 740c-49 0 -91 34 -91 91c0 51 39 92 91 92c51 0 91 -43 91 -91c0 -51 -40 -92 -91 -92z" />
    <glyph glyph-name="uring" unicode="&#x16f;" horiz-adv-x="472" 
d="M236 70c53 0 94 34 94 103v254c0 8 1 10 10 10h68c9 0 10 -2 10 -10v-260c0 -98 -61 -177 -182 -177s-182 79 -182 177v260c0 8 1 10 10 10h68c9 0 10 -2 10 -10v-254c0 -69 41 -103 94 -103zM236 547c23 0 41 18 41 42c0 23 -17 41 -41 41s-41 -18 -41 -42
c0 -25 18 -41 41 -41zM236 497c-49 0 -91 34 -91 91c0 51 39 92 91 92c51 0 91 -43 91 -91c0 -51 -40 -92 -91 -92z" />
    <glyph glyph-name="Uhungarumlaut" unicode="&#x170;" horiz-adv-x="618" 
d="M447 690c0 9 1 10 10 10h79c9 0 10 -1 10 -10v-471c0 -152 -99 -229 -236 -229s-238 77 -238 229v471c0 9 1 10 10 10h79c9 0 10 -1 10 -10v-452c0 -114 53 -153 139 -153c88 0 137 39 137 153v452zM266 884c7 8 8 10 16 10h87c7 0 10 -1 10 -2s-2 -4 -6 -8l-117 -124
c-8 -8 -10 -10 -18 -10h-66c-5 0 -7 1 -7 2s2 3 5 8zM446 884c7 8 8 10 16 10h87c7 0 10 -1 10 -2s-2 -4 -6 -8l-117 -124c-8 -8 -10 -10 -18 -10h-66c-5 0 -7 1 -7 2s2 3 5 8z" />
    <glyph glyph-name="uhungarumlaut" unicode="&#x171;" horiz-adv-x="472" 
d="M236 70c53 0 94 34 94 103v254c0 8 1 10 10 10h68c9 0 10 -2 10 -10v-260c0 -98 -61 -177 -182 -177s-182 79 -182 177v260c0 8 1 10 10 10h68c9 0 10 -2 10 -10v-254c0 -69 41 -103 94 -103zM181 640c7 8 8 10 16 10h87c7 0 10 -1 10 -2s-2 -4 -6 -8l-117 -124
c-8 -8 -10 -10 -18 -10h-66c-5 0 -7 1 -7 2s2 3 5 8zM361 640c7 8 8 10 16 10h87c7 0 10 -1 10 -2s-2 -4 -6 -8l-117 -124c-8 -8 -10 -10 -18 -10h-66c-5 0 -7 1 -7 2s2 3 5 8z" />
    <glyph glyph-name="Uogonek" unicode="&#x172;" horiz-adv-x="618" 
d="M328 -9c-7 -1 -11 -1 -18 -1c-137 0 -238 77 -238 229v471c0 9 1 10 10 10h79c9 0 10 -1 10 -10v-452c0 -114 53 -153 139 -153c88 0 137 39 137 153v452c0 9 1 10 10 10h79c9 0 10 -1 10 -10v-471c0 -88 -31 -150 -86 -187c-7 -5 -13 -8 -21 -15
c-43 -29 -67 -56 -71 -99c0 -35 21 -66 73 -66c9 0 10 -1 10 -9v-43c0 -7 -1 -9 -10 -10s-12 -1 -23 -1c-73 0 -122 53 -122 116c0 32 9 59 32 86z" />
    <glyph glyph-name="Wcircumflex" unicode="&#x174;" horiz-adv-x="841" 
d="M423 433c-1 2 -3 3 -5 3c-3 0 -4 -1 -5 -3l-150 -444c-1 -3 -2 -4 -5 -4s-4 1 -5 4l-233 701c-1 3 -2 5 -2 7s2 3 6 3h94c5 0 9 -3 12 -10l126 -416c1 -2 2 -3 5 -3c2 0 4 1 5 3l143 431c3 7 7 10 12 10s9 -3 12 -10l144 -431c1 -2 2 -3 5 -3c2 0 4 1 5 3l128 416
c3 7 7 10 12 10h90c4 0 6 -1 6 -3s-1 -4 -2 -7l-238 -701c-1 -3 -2 -4 -5 -4s-4 1 -5 4zM361 884c7 8 11 10 19 10h76c7 0 14 -3 19 -10l108 -124c2 -3 3 -5 3 -7s-2 -3 -6 -3h-62c-9 0 -12 5 -17 10l-75 75c-1 1 -3 2 -6 2s-5 -1 -6 -2l-73 -75c-5 -5 -8 -10 -17 -10h-64
c-4 0 -6 1 -6 3s1 4 3 7z" />
    <glyph glyph-name="wcircumflex" unicode="&#x175;" horiz-adv-x="648" 
d="M217 -9c-2 -6 -5 -9 -10 -9c-3 0 -6 3 -9 9l-188 436c-1 4 -2 6 -2 6c0 3 3 4 9 4h74c8 0 9 -2 13 -10l99 -251c1 -2 3 -3 6 -3s5 1 6 3l101 266c3 7 5 10 8 10s5 -3 8 -10l102 -266c1 -2 3 -3 6 -3s5 1 6 3l98 251c4 8 5 10 13 10h74c6 0 9 -1 9 -4c0 0 -1 -2 -2 -6
l-188 -436c-3 -6 -6 -9 -9 -9c-4 0 -7 3 -10 9l-100 253c-1 2 -3 3 -6 3s-5 -1 -6 -3zM264 640c7 8 11 10 19 10h76c7 0 14 -3 19 -10l108 -124c2 -3 3 -5 3 -7s-2 -3 -6 -3h-62c-9 0 -12 5 -17 10l-75 75c-1 1 -3 2 -6 2s-5 -1 -6 -2l-73 -75c-5 -5 -8 -10 -17 -10h-64
c-4 0 -6 1 -6 3s1 4 3 7z" />
    <glyph glyph-name="Ycircumflex" unicode="&#x176;" horiz-adv-x="548" 
d="M225 353l-211 337c-1 3 -2 5 -2 6c0 3 2 4 6 4h99c5 0 10 -3 13 -10l139 -227c1 -2 2 -3 5 -3c2 0 4 1 5 3l140 227c5 9 6 10 13 10h98c4 0 6 -1 6 -4c0 -1 -1 -3 -2 -6l-211 -337v-343c0 -9 -1 -10 -10 -10h-78c-9 0 -10 1 -10 10v343zM215 884c7 8 11 10 19 10h76
c7 0 14 -3 19 -10l108 -124c2 -3 3 -5 3 -7s-2 -3 -6 -3h-62c-9 0 -12 5 -17 10l-75 75c-1 1 -3 2 -6 2s-5 -1 -6 -2l-73 -75c-5 -5 -8 -10 -17 -10h-64c-4 0 -6 1 -6 3s1 4 3 7z" />
    <glyph glyph-name="ycircumflex" unicode="&#x177;" horiz-adv-x="453" 
d="M223 132c1 -2 2 -3 4 -3c1 0 3 1 4 3l117 295c4 8 5 10 13 10h75c6 0 9 -1 9 -4c0 0 -1 -2 -2 -6l-259 -637c-4 -8 -5 -10 -13 -10h-74c-6 0 -9 1 -9 4c0 0 1 2 2 6l88 218c1 1 1 3 1 5s0 4 -1 5l-168 409c-1 4 -2 6 -2 6c0 3 3 4 9 4h77c8 0 9 -2 13 -10zM173 640
c7 8 11 10 19 10h76c7 0 14 -3 19 -10l108 -124c2 -3 3 -5 3 -7s-2 -3 -6 -3h-62c-9 0 -12 5 -17 10l-75 75c-1 1 -3 2 -6 2s-5 -1 -6 -2l-73 -75c-5 -5 -8 -10 -17 -10h-64c-4 0 -6 1 -6 3s1 4 3 7z" />
    <glyph glyph-name="Lacute" unicode="&#x139;" horiz-adv-x="452" 
d="M73 690c0 9 1 10 10 10h76c9 0 10 -1 10 -10v-588c0 -9 1 -10 10 -10h232c9 0 10 -1 10 -10v-72c0 -9 -1 -10 -10 -10h-328c-9 0 -10 1 -10 10v680zM250 884c6 8 8 10 16 10h96c9 0 12 -1 4 -10l-121 -124c-8 -8 -10 -10 -18 -10h-71c-10 0 -7 4 -2 10z" />
    <glyph glyph-name="lacute" unicode="&#x13a;" horiz-adv-x="224" 
d="M68 690c0 8 1 10 10 10h68c9 0 10 -2 10 -10v-680c0 -8 -1 -10 -10 -10h-68c-9 0 -10 2 -10 10v680zM157 884c6 8 8 10 16 10h96c9 0 12 -1 4 -10l-121 -124c-8 -8 -10 -10 -18 -10h-71c-10 0 -7 4 -2 10z" />
    <glyph glyph-name="ij" unicode="&#x133;" horiz-adv-x="430" 
d="M368 -70c0 -103 -38 -150 -121 -150c-13 0 -24 0 -31 1l-12 2c-8 3 -10 3 -10 12v59c0 7 3 9 10 8c9 -2 17 -3 25 -3c36 0 51 25 51 68v500c0 8 1 10 10 10h68c9 0 10 -2 10 -10v-497zM68 427c0 8 1 10 10 10h68c9 0 10 -2 10 -10v-417c0 -8 -1 -10 -10 -10h-68
c-9 0 -10 2 -10 10v417zM325 529c-32 0 -62 27 -62 62s27 63 62 63s62 -30 62 -62c0 -33 -29 -63 -62 -63zM112 529c-32 0 -62 27 -62 62s27 63 62 63s62 -30 62 -62c0 -33 -29 -63 -62 -63z" />
    <glyph glyph-name="IJ" unicode="&#x132;" horiz-adv-x="522" 
d="M72 690c0 9 1 10 10 10h78c9 0 10 -1 10 -10v-680c0 -9 -1 -10 -10 -10h-78c-9 0 -10 1 -10 10v680zM352 692c0 5 3 8 8 8h82c5 0 8 -3 8 -8v-558c0 -103 -41 -144 -124 -144c-20 0 -42 1 -62 5c-8 2 -10 3 -10 12v67c0 7 3 9 10 8c9 -2 26 -5 40 -5c36 0 48 18 48 70
v545z" />
    <glyph glyph-name="Dcroat" unicode="&#x110;" horiz-adv-x="629" 
d="M246 700c85 0 143 -18 190 -47c97 -60 147 -172 147 -303c0 -145 -67 -271 -194 -324c-41 -17 -99 -26 -152 -26h-154c-9 0 -10 1 -10 10v241c-1 4 -4 6 -10 6h-42c-9 0 -10 1 -10 10v64c0 9 2 10 10 10h42c9 0 10 1 10 10v339c0 9 1 10 10 10h163zM474 350
c0 95 -28 178 -92 223c-33 24 -89 36 -145 36h-56c-9 0 -10 -1 -10 -10v-248c0 -9 1 -10 10 -10h97c9 0 10 -1 10 -10v-64c0 -9 -1 -10 -10 -10h-97c-9 0 -10 -1 -10 -10v-146c0 -9 1 -10 10 -10h57c56 0 107 12 140 36c64 45 96 128 96 223z" />
    <glyph glyph-name="dcroat" unicode="&#x111;" horiz-adv-x="550" 
d="M398 219c0 81 -55 148 -137 148c-83 0 -139 -67 -139 -148c0 -83 56 -149 139 -149c82 0 137 66 137 149zM488 608c0 -9 1 -10 10 -10h40c9 0 10 -2 10 -10v-48c0 -8 -1 -10 -10 -10h-40c-9 0 -10 -1 -10 -10v-510c0 -8 -1 -10 -10 -10h-70c-9 0 -10 2 -10 10v40
c0 1 -1 2 -4 2c-2 0 -3 0 -4 -1c-39 -36 -80 -61 -141 -61c-124 0 -217 104 -217 229s93 228 217 228c61 0 102 -25 141 -61c1 -1 2 -1 4 -1c3 0 4 1 4 2v133c0 9 -1 10 -10 10h-89c-9 0 -10 2 -10 10v48c0 8 1 10 10 10h89c9 0 10 1 10 10v132c0 8 1 10 10 10h70
c9 0 10 -2 10 -10v-132z" />
    <glyph glyph-name="dcaron" unicode="&#x10f;" horiz-adv-x="550" 
d="M398 219c0 81 -55 148 -137 148c-83 0 -139 -67 -139 -148c0 -83 56 -149 139 -149c82 0 137 66 137 149zM398 740c0 8 1 10 10 10h68c9 0 10 -2 10 -10v-730c0 -8 -1 -10 -10 -10h-68c-9 0 -10 2 -10 10v40c0 1 -1 2 -4 2c-2 0 -3 0 -4 -1c-35 -35 -80 -61 -141 -61
c-124 0 -217 104 -217 229s93 228 217 228c61 0 105 -24 141 -61c1 -1 2 -1 4 -1c3 0 4 1 4 2v353zM536 740c1 8 2 10 11 10h68c7 0 10 -3 9 -10l-45 -153c-3 -8 -4 -10 -13 -10h-38c-8 0 -7 3 -7 10z" />
    <glyph glyph-name="Ecaron" unicode="&#x11a;" horiz-adv-x="512" 
d="M73 690c0 9 1 10 10 10h373c9 0 10 -1 10 -10v-72c0 -9 -1 -10 -10 -10h-275c-9 0 -10 -1 -10 -10v-247c0 -9 1 -10 10 -10h265c9 0 10 -1 10 -10v-71c0 -9 -1 -10 -10 -10h-265c-9 0 -10 -1 -10 -10v-138c0 -9 1 -10 10 -10h280c9 0 10 -1 10 -10v-72
c0 -9 -1 -10 -10 -10h-378c-9 0 -10 1 -10 10v680zM325 760c-5 -7 -12 -10 -19 -10h-76c-8 0 -14 3 -19 10l-108 124c-2 3 -3 5 -3 7s2 3 6 3h62c9 0 12 -5 17 -10l75 -75c1 -1 3 -2 6 -2s5 1 6 2l73 75c5 5 8 10 17 10h64c4 0 6 -1 6 -3s-1 -4 -3 -7z" />
    <glyph glyph-name="ecaron" unicode="&#x11b;" horiz-adv-x="484" 
d="M130 172c7 -63 58 -102 138 -102c40 0 104 16 127 42c1 1 3 4 6 4s4 -3 4 -10v-69c0 -5 -1 -9 -8 -14c-25 -19 -78 -33 -129 -33c-155 0 -232 101 -232 229c0 125 83 228 208 228c134 0 204 -106 204 -228v-28c0 -8 -1 -10 -10 -10h-297c-9 0 -11 -1 -11 -9zM244 368
c-66 0 -111 -48 -119 -107c0 -9 1 -10 10 -10h214c11 0 11 1 10 10c-7 60 -43 107 -115 107zM301 516c-5 -7 -12 -10 -19 -10h-76c-8 0 -14 3 -19 10l-108 124c-2 3 -3 5 -3 7s2 3 6 3h62c9 0 12 -5 17 -10l75 -75c1 -1 3 -2 6 -2s5 1 6 2l73 75c5 5 8 10 17 10h64
c4 0 6 -1 6 -3s-1 -4 -3 -7z" />
    <glyph glyph-name="Gbreve" unicode="&#x11e;" horiz-adv-x="661" 
d="M406 613c-169 0 -252 -123 -252 -263c0 -141 85 -267 256 -267c35 0 74 4 99 16c3 1 5 4 5 7v169c0 9 -1 10 -10 10h-131c-9 0 -10 1 -10 10v69c0 9 1 10 10 10h227c9 0 10 -1 10 -10v-313c0 -4 -2 -8 -6 -11c-45 -37 -126 -50 -194 -50c-227 0 -364 164 -364 360
s137 360 360 360c64 0 115 -13 163 -40c5 -3 8 -6 8 -10v-107c0 -5 -1 -7 -4 -7c-2 0 -4 1 -5 2c-41 41 -97 65 -162 65zM399 747c-79 0 -153 36 -152 139c0 8 1 10 10 10h52c7 0 10 -3 10 -10c1 -57 37 -77 80 -77s79 20 80 77c0 7 3 10 10 10h52c9 0 10 -2 10 -10
c1 -103 -73 -139 -152 -139z" />
    <glyph glyph-name="Gcommaaccent" unicode="&#x122;" horiz-adv-x="661" 
d="M406 613c-169 0 -252 -123 -252 -263c0 -141 85 -267 256 -267c35 0 74 4 99 16c3 1 5 4 5 7v169c0 9 -1 10 -10 10h-131c-9 0 -10 1 -10 10v69c0 9 1 10 10 10h227c9 0 10 -1 10 -10v-313c0 -4 -2 -8 -6 -11c-45 -37 -126 -50 -194 -50c-227 0 -364 164 -364 360
s137 360 360 360c64 0 115 -13 163 -40c5 -3 8 -6 8 -10v-107c0 -5 -1 -7 -4 -7c-2 0 -4 1 -5 2c-41 41 -97 65 -162 65zM326 -76c1 8 2 10 11 10h68c7 0 10 -3 9 -10l-45 -153c-3 -8 -4 -10 -13 -10h-38c-8 0 -7 3 -7 10z" />
    <glyph glyph-name="Hcircumflex" unicode="&#x124;" horiz-adv-x="592" 
d="M519 10c0 -9 -1 -10 -10 -10h-78c-9 0 -10 1 -10 10v230c0 9 -1 10 -10 10h-230c-9 0 -10 -1 -10 -10v-230c0 -9 -1 -10 -10 -10h-78c-9 0 -10 1 -10 10v680c0 9 1 10 10 10h78c9 0 10 -1 10 -10v-339c0 -9 1 -10 10 -10h230c9 0 10 1 10 10v339c0 9 1 10 10 10h78
c9 0 10 -1 10 -10v-680zM237 884c7 8 11 10 19 10h76c7 0 14 -3 19 -10l108 -124c2 -3 3 -5 3 -7s-2 -3 -6 -3h-62c-9 0 -12 5 -17 10l-75 75c-1 1 -3 2 -6 2s-5 -1 -6 -2l-73 -75c-5 -5 -8 -10 -17 -10h-64c-4 0 -6 1 -6 3s1 4 3 7z" />
    <glyph glyph-name="hcircumflex" unicode="&#x125;" horiz-adv-x="516" 
d="M458 10c0 -8 -1 -10 -10 -10h-68c-9 0 -10 2 -10 10v248c0 69 -31 109 -96 109c-68 0 -122 -47 -122 -128v-229c0 -8 -1 -10 -10 -10h-68c-9 0 -10 2 -10 10v680c0 8 1 10 10 10h68c9 0 10 -2 10 -10v-303c0 -1 1 -2 4 -2c2 0 3 0 4 1c38 36 70 61 131 61
c121 0 167 -74 167 -169v-268zM201 884c7 8 11 10 19 10h76c7 0 14 -3 19 -10l108 -124c2 -3 3 -5 3 -7s-2 -3 -6 -3h-62c-9 0 -12 5 -17 10l-75 75c-1 1 -3 2 -6 2s-5 -1 -6 -2l-73 -75c-5 -5 -8 -10 -17 -10h-64c-4 0 -6 1 -6 3s1 4 3 7z" />
    <glyph glyph-name="Hbar" unicode="&#x126;" horiz-adv-x="592" 
d="M421 465c0 9 -1 10 -10 10h-230c-9 0 -10 -1 -10 -10v-114c0 -9 1 -10 10 -10h230c9 0 10 1 10 10v114zM519 10c0 -9 -1 -10 -10 -10h-78c-9 0 -10 1 -10 10v230c0 9 -1 10 -10 10h-230c-9 0 -10 -1 -10 -10v-230c0 -9 -1 -10 -10 -10h-78c-9 0 -10 1 -10 10v455
c0 9 -1 10 -10 10h-40c-9 0 -10 2 -10 11v55c0 9 2 10 10 10h40c9 0 10 1 10 10v129c0 9 1 10 10 10h78c9 0 10 -1 10 -10v-129c0 -9 1 -10 10 -10h230c9 0 10 1 10 10v129c0 9 1 10 10 10h78c9 0 10 -1 10 -10v-129c0 -9 1 -10 10 -10h40c8 0 10 -1 10 -10v-55
c0 -9 -1 -11 -10 -11h-40c-9 0 -10 -1 -10 -10v-455z" />
    <glyph glyph-name="hbar" unicode="&#x127;" horiz-adv-x="516" 
d="M152 608c0 -9 1 -10 10 -10h89c9 0 10 -2 10 -10v-48c0 -8 -1 -10 -10 -10h-89c-9 0 -10 -1 -10 -10v-133c0 -1 1 -2 4 -2c2 0 3 0 4 1c38 36 70 61 131 61c121 0 167 -74 167 -169v-268c0 -8 -1 -10 -10 -10h-68c-9 0 -10 2 -10 10v248c0 69 -31 109 -96 109
c-68 0 -122 -47 -122 -128v-229c0 -8 -1 -10 -10 -10h-68c-9 0 -10 2 -10 10v510c0 9 -1 10 -10 10h-37c-9 0 -10 2 -10 10v48c0 8 1 10 10 10h37c9 0 10 1 10 10v132c0 8 1 10 10 10h68c9 0 10 -2 10 -10v-132z" />
    <glyph glyph-name="Itilde" unicode="&#x128;" horiz-adv-x="242" 
d="M72 690c0 9 1 10 10 10h78c9 0 10 -1 10 -10v-680c0 -9 -1 -10 -10 -10h-78c-9 0 -10 1 -10 10v680zM-29 762c-9 0 -10 2 -10 10v14c0 53 34 98 93 98c84 0 88 -59 130 -59c18 0 34 12 34 35v11c0 8 1 10 10 10h44c9 0 10 -2 10 -10v-15c0 -53 -30 -97 -89 -97
c-86 0 -90 59 -134 59c-18 0 -34 -13 -34 -36v-10c0 -8 -1 -10 -10 -10h-44z" />
    <glyph glyph-name="itilde" unicode="&#x129;" horiz-adv-x="224" 
d="M260 627v-18c0 -53 -27 -93 -86 -93c-76 0 -70 54 -114 54c-18 0 -36 -9 -36 -32v-10c0 -8 -1 -10 -10 -10h-40c-9 0 -10 2 -10 10v17c0 53 32 94 91 94c74 0 68 -54 110 -54c18 0 35 8 35 31v11c0 8 1 10 10 10h40c9 0 10 -2 10 -10zM68 427c0 8 1 10 10 10h68
c9 0 10 -2 10 -10v-417c0 -8 -1 -10 -10 -10h-68c-9 0 -10 2 -10 10v417z" />
    <glyph glyph-name="Imacron" unicode="&#x12a;" horiz-adv-x="242" 
d="M72 690c0 9 1 10 10 10h78c9 0 10 -1 10 -10v-680c0 -9 -1 -10 -10 -10h-78c-9 0 -10 1 -10 10v680zM-37 843c0 9 2 10 10 10h298c9 0 10 -1 10 -10v-44c0 -9 -1 -10 -10 -10h-298c-9 0 -10 1 -10 10v44z" />
    <glyph glyph-name="imacron" unicode="&#x12b;" horiz-adv-x="224" 
d="M-10 600c0 9 2 10 10 10h224c9 0 10 -1 10 -10v-44c0 -9 -1 -10 -10 -10h-224c-9 0 -10 1 -10 10v44zM68 427c0 8 1 10 10 10h68c9 0 10 -2 10 -10v-417c0 -8 -1 -10 -10 -10h-68c-9 0 -10 2 -10 10v417z" />
    <glyph glyph-name="Ibreve" unicode="&#x12c;" horiz-adv-x="242" 
d="M72 690c0 9 1 10 10 10h78c9 0 10 -1 10 -10v-680c0 -9 -1 -10 -10 -10h-78c-9 0 -10 1 -10 10v680zM122 745c-79 0 -153 36 -152 139c0 8 1 10 10 10h52c7 0 10 -3 10 -10c1 -57 37 -77 80 -77s79 20 80 77c0 7 3 10 10 10h52c9 0 10 -2 10 -10
c1 -103 -73 -139 -152 -139z" />
    <glyph glyph-name="ibreve" unicode="&#x12d;" horiz-adv-x="224" 
d="M113 501c-79 0 -141 36 -140 139c0 8 1 10 10 10h48c7 0 10 -3 10 -10c1 -57 29 -77 72 -77s71 20 72 77c0 7 3 10 10 10h48c9 0 10 -2 10 -10c1 -103 -61 -139 -140 -139zM68 427c0 8 1 10 10 10h68c9 0 10 -2 10 -10v-417c0 -8 -1 -10 -10 -10h-68c-9 0 -10 2 -10 10
v417z" />
    <glyph glyph-name="Jcircumflex" unicode="&#x134;" horiz-adv-x="296" 
d="M126 692c0 5 3 8 8 8h82c5 0 8 -3 8 -8v-558c0 -103 -41 -144 -124 -144c-20 0 -42 1 -62 5c-8 2 -10 3 -10 12v67c0 7 3 9 10 8c9 -2 26 -5 40 -5c36 0 48 18 48 70v545zM113 884c7 8 11 10 19 10h76c7 0 14 -3 19 -10l108 -124c2 -3 3 -5 3 -7s-2 -3 -6 -3h-62
c-9 0 -12 5 -17 10l-75 75c-1 1 -3 2 -6 2s-5 -1 -6 -2l-73 -75c-5 -5 -8 -10 -17 -10h-64c-4 0 -6 1 -6 3s1 4 3 7z" />
    <glyph glyph-name="Kcommaaccent" unicode="&#x136;" horiz-adv-x="562" 
d="M171 10c0 -9 -1 -10 -10 -10h-78c-9 0 -10 1 -10 10v680c0 9 1 10 10 10h78c9 0 10 -1 10 -10v-279c0 -5 2 -7 6 -7s7 2 9 5l220 281c7 8 7 10 16 10h104c5 0 8 -1 8 -3c0 -1 -1 -3 -4 -7l-244 -309c-1 -1 -2 -3 -2 -5s1 -4 2 -5l255 -361c3 -5 5 -7 5 -8s-3 -2 -9 -2
h-104c-9 0 -8 1 -16 10l-230 332c-2 3 -5 4 -8 4c-5 0 -8 -2 -8 -7v-329zM244 -76c1 8 2 10 11 10h68c7 0 10 -3 9 -10l-45 -153c-3 -8 -4 -10 -13 -10h-38c-8 0 -7 3 -7 10z" />
    <glyph glyph-name="kcommaaccent" unicode="&#x137;" horiz-adv-x="439" 
d="M152 275c0 -5 2 -7 6 -7s7 2 9 5l128 154c7 8 7 10 16 10h90c5 0 8 -1 8 -3c0 -1 -1 -3 -4 -7l-154 -182c-1 -1 -2 -3 -2 -5s1 -4 2 -5l167 -225c3 -5 5 -7 5 -8s-3 -2 -9 -2h-90c-9 0 -8 1 -16 10l-140 196c-2 3 -5 4 -8 4c-5 0 -8 -2 -8 -7v-193c0 -8 -1 -10 -10 -10
h-68c-9 0 -10 2 -10 10v730c0 8 1 10 10 10h68c9 0 10 -2 10 -10v-465zM183 -76c1 8 2 10 11 10h68c7 0 10 -3 9 -10l-45 -153c-3 -8 -4 -10 -13 -10h-38c-8 0 -7 3 -7 10z" />
    <glyph glyph-name="Lcaron" unicode="&#x13d;" horiz-adv-x="452" 
d="M86 690c0 9 1 10 10 10h76c9 0 10 -1 10 -10v-588c0 -9 1 -10 10 -10h232c9 0 10 -1 10 -10v-72c0 -9 -1 -10 -10 -10h-328c-9 0 -10 1 -10 10v680zM276 740c1 8 2 10 11 10h68c7 0 10 -3 9 -10l-45 -153c-3 -8 -4 -10 -13 -10h-38c-8 0 -7 3 -7 10z" />
    <glyph glyph-name="lcaron" unicode="&#x13e;" horiz-adv-x="224" 
d="M68 740c0 8 1 10 10 10h68c9 0 10 -2 10 -10v-730c0 -8 -1 -10 -10 -10h-68c-9 0 -10 2 -10 10v730zM206 740c1 8 2 10 11 10h68c7 0 10 -3 9 -10l-45 -153c-3 -8 -4 -10 -13 -10h-38c-8 0 -7 3 -7 10z" />
    <glyph glyph-name="Zacute" unicode="&#x179;" horiz-adv-x="486" 
d="M178 106c-1 -3 -2 -6 -2 -9c0 -4 2 -6 6 -6h247c9 0 10 -1 10 -10v-71c0 -9 -1 -10 -10 -10h-401c-5 0 -7 2 -7 5c0 1 1 3 2 6l282 583c2 4 3 7 3 10s-2 5 -7 5h-244c-9 0 -10 1 -10 10v71c0 9 1 10 10 10h396c5 0 7 -1 7 -4c0 -1 -1 -3 -2 -6zM256 884c6 8 8 10 16 10
h96c9 0 12 -1 4 -10l-121 -124c-8 -8 -10 -10 -18 -10h-71c-10 0 -7 4 -2 10z" />
    <glyph glyph-name="zacute" unicode="&#x17a;" horiz-adv-x="376" 
d="M161 95c-2 -4 -3 -7 -3 -9c0 -4 2 -6 6 -6h163c9 0 10 -1 10 -10v-60c0 -9 -1 -10 -10 -10h-304c-5 0 -7 2 -7 5c0 1 1 3 2 6l190 333c2 4 3 7 3 10s-2 5 -6 5h-159c-9 0 -10 1 -10 10v58c0 9 1 10 10 10h299c5 0 7 -1 7 -4c0 -1 -1 -3 -2 -6zM203 640c6 8 8 10 16 10h96
c9 0 12 -1 4 -10l-121 -124c-8 -8 -10 -10 -18 -10h-71c-10 0 -7 4 -2 10z" />
    <glyph glyph-name="uni01EA" unicode="&#x1ea;" horiz-adv-x="792" 
d="M154 350c0 -142 101 -263 242 -263s242 121 242 263s-101 263 -242 263s-242 -121 -242 -263zM473 -8v-35c0 -5 -1 -7 -4 -7c-2 0 -3 1 -6 2c-12 5 -20 8 -39 8c-31 0 -53 -22 -53 -49s22 -49 53 -49c19 0 27 3 39 8c3 1 4 2 6 2c3 0 4 -2 4 -7v-46c0 -7 -2 -9 -7 -11
c-15 -6 -32 -9 -50 -9c-65 0 -117 42 -117 112c0 36 13 61 34 78c2 2 3 3 3 5c0 1 0 2 -4 3c-164 30 -286 178 -286 353c0 196 154 360 350 360s350 -164 350 -360c0 -167 -111 -311 -265 -349c-7 -2 -8 -4 -8 -9z" />
    <glyph glyph-name="Scommaaccent" unicode="&#x218;" horiz-adv-x="503" 
d="M252 -10c-83 0 -169 45 -209 117c-2 3 -3 5 -3 7s2 5 5 8l55 55c3 3 6 5 7 5c2 0 4 -2 7 -6c43 -71 86 -92 142 -92c68 0 106 45 106 97c0 147 -297 145 -297 349c0 100 77 180 192 180c77 0 135 -27 178 -87c2 -3 3 -6 3 -7c0 -2 -2 -5 -5 -8l-49 -49c-3 -3 -6 -5 -7 -5
c-2 0 -4 2 -7 6c-23 37 -59 58 -111 58c-59 0 -90 -37 -90 -88c0 -128 298 -128 298 -344c0 -116 -79 -196 -215 -196zM221 -76c1 8 2 10 11 10h68c7 0 10 -3 9 -10l-45 -153c-3 -8 -4 -10 -13 -10h-38c-8 0 -7 3 -7 10z" />
    <glyph glyph-name="scommaaccent" unicode="&#x219;" horiz-adv-x="376" 
d="M268 334c-17 26 -42 39 -76 39c-37 0 -59 -22 -59 -50c0 -87 208 -55 208 -205c0 -60 -44 -128 -153 -128c-71 0 -119 27 -154 74c-1 2 -2 4 -2 7s1 5 4 8l41 41c3 3 5 4 7 4s4 -1 7 -5c29 -40 59 -54 99 -54c43 0 65 22 65 51c0 80 -206 54 -206 202
c0 69 52 129 140 129c56 0 103 -17 134 -60c1 -2 2 -4 2 -7s-1 -5 -4 -8l-39 -39c-3 -3 -5 -4 -7 -4s-4 1 -7 5zM117 -76c1 8 2 10 11 10h68c7 0 10 -3 9 -10l-45 -153c-3 -8 -4 -10 -13 -10h-38c-8 0 -7 3 -7 10z" />
    <glyph glyph-name="uni021A" unicode="&#x21a;" horiz-adv-x="462" 
d="M26 690c0 9 1 10 10 10h390c9 0 10 -1 10 -10v-72c0 -9 -1 -10 -10 -10h-136c-9 0 -10 -1 -10 -10v-588c0 -9 -1 -10 -10 -10h-78c-9 0 -10 1 -10 10v588c0 9 -1 10 -10 10h-136c-9 0 -10 1 -10 10v72zM196 -76c1 8 2 10 11 10h68c7 0 10 -3 9 -10l-45 -153
c-3 -8 -4 -10 -13 -10h-38c-8 0 -7 3 -7 10z" />
    <glyph glyph-name="uni021B" unicode="&#x21b;" horiz-adv-x="264" 
d="M34 359c-9 0 -10 2 -10 10v58c0 8 1 10 10 10h40c9 0 10 1 10 10v133c0 7 3 12 10 16l65 40c3 1 4 3 7 3s5 -3 5 -8v-184c0 -9 1 -10 10 -10h61c9 0 10 -2 10 -10v-58c0 -8 -1 -10 -10 -10h-61c-9 0 -10 -1 -10 -10v-339c0 -8 -1 -10 -10 -10h-67c-9 0 -10 2 -10 10v339
c0 9 -1 10 -10 10h-40zM94 -76c1 8 2 10 11 10h68c7 0 10 -3 9 -10l-45 -153c-3 -8 -4 -10 -13 -10h-38c-8 0 -7 3 -7 10z" />
    <glyph glyph-name="dotaccent" unicode="&#x2d9;" 
d="M250 516c-32 0 -62 27 -62 62s27 63 62 63s62 -30 62 -62c0 -33 -29 -63 -62 -63z" />
    <glyph glyph-name="zdotaccent" unicode="&#x17c;" horiz-adv-x="376" 
d="M161 95c-2 -4 -3 -7 -3 -9c0 -4 2 -6 6 -6h163c9 0 10 -1 10 -10v-60c0 -9 -1 -10 -10 -10h-304c-5 0 -7 2 -7 5c0 1 1 3 2 6l190 333c2 4 3 7 3 10s-2 5 -6 5h-159c-9 0 -10 1 -10 10v58c0 9 1 10 10 10h299c5 0 7 -1 7 -4c0 -1 -1 -3 -2 -6zM184 516
c-32 0 -62 27 -62 62s27 63 62 63s62 -30 62 -62c0 -33 -29 -63 -62 -63z" />
    <glyph glyph-name="Zdotaccent" unicode="&#x17b;" horiz-adv-x="486" 
d="M178 106c-1 -3 -2 -6 -2 -9c0 -4 2 -6 6 -6h247c9 0 10 -1 10 -10v-71c0 -9 -1 -10 -10 -10h-401c-5 0 -7 2 -7 5c0 1 1 3 2 6l282 583c2 4 3 7 3 10s-2 5 -7 5h-244c-9 0 -10 1 -10 10v71c0 9 1 10 10 10h396c5 0 7 -1 7 -4c0 -1 -1 -3 -2 -6zM238 759
c-32 0 -62 27 -62 62s27 63 62 63s62 -30 62 -62c0 -33 -29 -63 -62 -63z" />
    <glyph glyph-name="Cdotaccent" unicode="&#x10a;" horiz-adv-x="622" 
d="M406 -10c-223 0 -360 164 -360 360s137 360 360 360c59 0 112 -16 160 -40c5 -3 8 -6 8 -10v-107c0 -5 -1 -7 -4 -7c-2 0 -4 1 -5 2c-41 41 -94 65 -159 65c-165 0 -252 -128 -252 -263s87 -263 252 -263c65 0 118 24 159 65c1 1 3 2 5 2c3 0 4 -2 4 -7v-107
c0 -4 -3 -7 -8 -10c-48 -24 -101 -40 -160 -40zM392 759c-32 0 -62 27 -62 62s27 63 62 63s62 -30 62 -62c0 -33 -29 -63 -62 -63z" />
    <glyph glyph-name="cdotaccent" unicode="&#x10b;" horiz-adv-x="412" 
d="M368 13c-31 -15 -74 -23 -109 -23c-131 0 -227 101 -227 229s96 228 227 228c35 0 77 -8 106 -21c7 -3 8 -5 8 -10v-82c0 -5 -1 -7 -4 -7c-1 0 -3 1 -5 2c-23 23 -59 38 -103 38c-88 0 -139 -64 -139 -148c0 -86 51 -149 139 -149c47 0 83 15 107 42c1 1 2 1 4 1
c3 0 4 -2 4 -7v-83c0 -5 -1 -7 -8 -10zM254 516c-32 0 -62 27 -62 62s27 63 62 63s62 -30 62 -62c0 -33 -29 -63 -62 -63z" />
    <glyph glyph-name="Edotaccent" unicode="&#x116;" horiz-adv-x="512" 
d="M73 690c0 9 1 10 10 10h373c9 0 10 -1 10 -10v-72c0 -9 -1 -10 -10 -10h-275c-9 0 -10 -1 -10 -10v-247c0 -9 1 -10 10 -10h265c9 0 10 -1 10 -10v-71c0 -9 -1 -10 -10 -10h-265c-9 0 -10 -1 -10 -10v-138c0 -9 1 -10 10 -10h280c9 0 10 -1 10 -10v-72
c0 -9 -1 -10 -10 -10h-378c-9 0 -10 1 -10 10v680zM274 759c-32 0 -62 27 -62 62s27 63 62 63s62 -30 62 -62c0 -33 -29 -63 -62 -63z" />
    <glyph glyph-name="edotaccent" unicode="&#x117;" horiz-adv-x="484" 
d="M130 172c7 -63 58 -102 138 -102c40 0 104 16 127 42c1 1 3 4 6 4s4 -3 4 -10v-69c0 -5 -1 -9 -8 -14c-25 -19 -78 -33 -129 -33c-155 0 -232 101 -232 229c0 125 83 228 208 228c134 0 204 -106 204 -228v-28c0 -8 -1 -10 -10 -10h-297c-9 0 -11 -1 -11 -9zM244 368
c-66 0 -111 -48 -119 -107c0 -9 1 -10 10 -10h214c11 0 11 1 10 10c-7 60 -43 107 -115 107zM247 516c-32 0 -62 27 -62 62s27 63 62 63s62 -30 62 -62c0 -33 -29 -63 -62 -63z" />
    <glyph glyph-name="Gdotaccent" unicode="&#x120;" horiz-adv-x="661" 
d="M406 613c-169 0 -252 -123 -252 -263c0 -141 85 -267 256 -267c35 0 74 4 99 16c3 1 5 4 5 7v169c0 9 -1 10 -10 10h-131c-9 0 -10 1 -10 10v69c0 9 1 10 10 10h227c9 0 10 -1 10 -10v-313c0 -4 -2 -8 -6 -11c-45 -37 -126 -50 -194 -50c-227 0 -364 164 -364 360
s137 360 360 360c64 0 115 -13 163 -40c5 -3 8 -6 8 -10v-107c0 -5 -1 -7 -4 -7c-2 0 -4 1 -5 2c-41 41 -97 65 -162 65zM392 759c-32 0 -62 27 -62 62s27 63 62 63s62 -30 62 -62c0 -33 -29 -63 -62 -63z" />
    <glyph glyph-name="Iogonek" unicode="&#x12e;" horiz-adv-x="242" 
d="M170 10c0 -11 -13 -11 -22 -16c-33 -19 -53 -45 -53 -86c0 -32 28 -57 62 -57c11 0 14 1 21 2c3 0 4 -1 4 -4v-49c0 -11 -13 -11 -28 -11c-76 0 -127 53 -127 116c0 33 10 59 34 86c4 4 11 11 11 22v677c0 9 1 10 10 10h78c9 0 10 -1 10 -10v-680z" />
    <glyph glyph-name="amacron" unicode="&#x101;" horiz-adv-x="466" 
d="M320 151c0 43 -48 71 -103 71c-59 0 -99 -32 -99 -79c0 -48 37 -81 99 -81c57 0 103 47 103 89zM32 140c0 97 78 152 168 152c56 0 96 -21 114 -35c1 -1 3 -1 4 -1c3 0 4 3 4 7v23c0 56 -32 87 -104 87c-53 0 -89 -20 -104 -32c-2 -2 -4 -3 -7 -3s-4 3 -4 8v61
c0 5 3 9 8 12c25 17 68 28 115 28c154 0 182 -85 182 -160v-277c0 -8 -1 -10 -10 -10h-63c-9 0 -10 2 -10 10v34c0 1 -1 2 -4 2c-2 0 -3 0 -4 -1c-28 -35 -70 -55 -117 -55c-87 0 -168 50 -168 150zM73 600c0 9 2 10 10 10h298c9 0 10 -1 10 -10v-44c0 -9 -1 -10 -10 -10
h-298c-9 0 -10 1 -10 10v44z" />
    <glyph glyph-name="Emacron" unicode="&#x112;" horiz-adv-x="512" 
d="M73 690c0 9 1 10 10 10h373c9 0 10 -1 10 -10v-72c0 -9 -1 -10 -10 -10h-275c-9 0 -10 -1 -10 -10v-247c0 -9 1 -10 10 -10h265c9 0 10 -1 10 -10v-71c0 -9 -1 -10 -10 -10h-265c-9 0 -10 -1 -10 -10v-138c0 -9 1 -10 10 -10h280c9 0 10 -1 10 -10v-72
c0 -9 -1 -10 -10 -10h-378c-9 0 -10 1 -10 10v680zM117 844c0 9 2 10 10 10h298c9 0 10 -1 10 -10v-44c0 -9 -1 -10 -10 -10h-298c-9 0 -10 1 -10 10v44z" />
    <glyph glyph-name="emacron" unicode="&#x113;" horiz-adv-x="484" 
d="M130 172c7 -63 58 -102 138 -102c40 0 104 16 127 42c1 1 3 4 6 4s4 -3 4 -10v-69c0 -5 -1 -9 -8 -14c-25 -19 -78 -33 -129 -33c-155 0 -232 101 -232 229c0 125 83 228 208 228c134 0 204 -106 204 -228v-28c0 -8 -1 -10 -10 -10h-297c-9 0 -11 -1 -11 -9zM244 368
c-66 0 -111 -48 -119 -107c0 -9 1 -10 10 -10h214c11 0 11 1 10 10c-7 60 -43 107 -115 107zM83 600c0 9 2 10 10 10h298c9 0 10 -1 10 -10v-44c0 -9 -1 -10 -10 -10h-298c-9 0 -10 1 -10 10v44z" />
    <glyph glyph-name="Omacron" unicode="&#x14c;" horiz-adv-x="792" 
d="M746 350c0 -196 -154 -360 -350 -360s-350 164 -350 360s154 360 350 360s350 -164 350 -360zM154 350c0 -142 101 -263 242 -263s242 121 242 263s-101 263 -242 263s-242 -121 -242 -263zM237 844c0 9 2 10 10 10h298c9 0 10 -1 10 -10v-44c0 -9 -1 -10 -10 -10h-298
c-9 0 -10 1 -10 10v44z" />
    <glyph glyph-name="omacron" unicode="&#x14d;" horiz-adv-x="519" 
d="M32 219c0 125 103 228 228 228s227 -103 227 -228s-102 -229 -227 -229s-228 104 -228 229zM122 219c0 -83 55 -149 138 -149c84 0 137 66 137 149c0 81 -53 148 -137 148c-83 0 -138 -67 -138 -148zM101 600c0 9 2 10 10 10h298c9 0 10 -1 10 -10v-44
c0 -9 -1 -10 -10 -10h-298c-9 0 -10 1 -10 10v44z" />
    <glyph glyph-name="Amacron" unicode="&#x100;" horiz-adv-x="562" 
d="M284 443c-1 2 -3 3 -6 3s-5 -1 -6 -3l-76 -218c-1 -4 -2 -6 -2 -6c0 -3 -1 -4 6 -4h157c5 0 7 1 7 3c0 1 -1 3 -2 7zM275 711c1 3 2 4 5 4s4 -1 5 -4l260 -701c1 -1 1 -3 1 -6s-3 -4 -8 -4h-87c-8 0 -10 1 -13 10l-40 105c-3 9 -4 10 -13 10h-214c-7 0 -11 -3 -13 -10
l-37 -105c-3 -9 -5 -10 -13 -10h-84c-5 0 -8 1 -8 4s0 5 1 6zM122 844c0 9 2 10 10 10h298c9 0 10 -1 10 -10v-44c0 -9 -1 -10 -10 -10h-298c-9 0 -10 1 -10 10v44z" />
    <glyph glyph-name="L" unicode="L" horiz-adv-x="452" 
d="M73 690c0 9 1 10 10 10h76c9 0 10 -1 10 -10v-588c0 -9 1 -10 10 -10h232c9 0 10 -1 10 -10v-72c0 -9 -1 -10 -10 -10h-328c-9 0 -10 1 -10 10v680z" />
    <glyph glyph-name="Umacron" unicode="&#x16a;" horiz-adv-x="618" 
d="M447 690c0 9 1 10 10 10h79c9 0 10 -1 10 -10v-471c0 -152 -99 -229 -236 -229s-238 77 -238 229v471c0 9 1 10 10 10h79c9 0 10 -1 10 -10v-452c0 -114 53 -153 139 -153c88 0 137 39 137 153v452zM150 844c0 9 2 10 10 10h298c9 0 10 -1 10 -10v-44
c0 -9 -1 -10 -10 -10h-298c-9 0 -10 1 -10 10v44z" />
    <glyph glyph-name="umacron" unicode="&#x16b;" horiz-adv-x="472" 
d="M236 70c53 0 94 34 94 103v254c0 8 1 10 10 10h68c9 0 10 -2 10 -10v-260c0 -98 -61 -177 -182 -177s-182 79 -182 177v260c0 8 1 10 10 10h68c9 0 10 -2 10 -10v-254c0 -69 41 -103 94 -103zM76 600c0 9 2 10 10 10h298c9 0 10 -1 10 -10v-44c0 -9 -1 -10 -10 -10h-298
c-9 0 -10 1 -10 10v44z" />
    <glyph glyph-name="Aogonek" unicode="&#x104;" horiz-adv-x="562" 
d="M391 -92c0 31 13 65 45 90c3 2 3 5 3 6c0 2 0 4 -1 6l-40 105c-3 9 -4 10 -13 10h-214c-7 0 -11 -3 -13 -10l-37 -105c-3 -9 -5 -10 -13 -10h-84c-5 0 -8 1 -8 4s0 5 1 6l258 701c1 3 2 4 5 4s4 -1 5 -4l260 -701c1 -1 1 -3 1 -6s-3 -4 -8 -4c-39 0 -75 -35 -75 -82
c0 -35 21 -66 73 -66c9 0 10 -1 10 -9v-43c0 -7 -1 -9 -10 -10s-12 -1 -23 -1c-73 0 -122 56 -122 119zM284 443c-1 2 -3 3 -6 3s-5 -1 -6 -3l-76 -218c-1 -4 -2 -6 -2 -6c0 -3 -1 -4 6 -4h157c5 0 7 1 7 3c0 1 -1 3 -2 7z" />
    <glyph glyph-name="Eogonek" unicode="&#x118;" horiz-adv-x="512" 
d="M316 -95c0 26 8 54 25 81c1 2 4 6 4 9s-3 5 -12 5h-250c-9 0 -10 1 -10 10v680c0 9 1 10 10 10h373c9 0 10 -1 10 -10v-72c0 -9 -1 -10 -10 -10h-275c-9 0 -10 -1 -10 -10v-247c0 -9 1 -10 10 -10h265c9 0 10 -1 10 -10v-71c0 -9 -1 -10 -10 -10h-265
c-9 0 -10 -1 -10 -10v-138c0 -9 1 -10 10 -10h280c9 0 10 -1 10 -10v-72c0 -9 -1 -10 -10 -10c-21 0 -38 -7 -49 -19c-17 -18 -24 -37 -24 -63c0 -35 21 -66 73 -66c9 0 10 -1 10 -9v-43c0 -7 -1 -9 -10 -10s-12 -1 -23 -1c-73 0 -122 53 -122 116z" />
    <glyph glyph-name="zero.oldstyle" unicode="&#xe030;" horiz-adv-x="559" 
d="M36 242c0 138 108 252 244 252c135 0 243 -114 243 -252c0 -137 -108 -252 -243 -252c-136 0 -244 115 -244 252zM129 242c0 -94 60 -169 151 -169c92 0 150 75 150 169c0 92 -58 169 -150 169c-91 0 -151 -77 -151 -169z" />
    <glyph glyph-name="one.oldstyle" unicode="&#xe031;" horiz-adv-x="294" 
d="M229 10c0 -9 -1 -10 -10 -10h-68c-9 0 -10 1 -10 10v356c0 11 -1 13 -10 10l-88 -29c-8 -3 -10 -3 -10 6v60c0 9 2 11 10 14l176 62c2 1 4 1 6 1c3 0 4 -3 4 -9v-471z" />
    <glyph glyph-name="two.oldstyle" unicode="&#xe032;" horiz-adv-x="461" 
d="M405 75c9 0 10 -1 10 -10v-55c0 -9 -1 -10 -10 -10h-382c-5 0 -7 2 -7 7c0 7 5 11 6 12l151 121c87 69 151 120 151 188c0 52 -29 88 -92 88c-60 0 -98 -42 -98 -106c0 -7 -1 -10 -10 -10h-69c-6 0 -9 3 -9 9c0 100 72 185 187 185c120 0 181 -69 181 -162
c0 -64 -33 -122 -117 -187l-73 -58c-7 -5 -8 -6 -8 -9c0 -2 3 -3 9 -3h180z" />
    <glyph glyph-name="three.oldstyle" unicode="&#xe033;" horiz-adv-x="479" 
d="M46 336c3 89 74 158 178 158c112 0 188 -70 188 -167c0 -48 -22 -91 -58 -122c-3 -3 -4 -5 -4 -6s1 -3 4 -5c53 -36 87 -93 87 -157c0 -108 -86 -193 -208 -193c-115 0 -188 68 -201 163c-1 5 1 7 8 7h75c4 0 7 -2 8 -6c11 -48 50 -84 110 -84c71 0 116 45 116 113
c0 64 -44 110 -116 110h-50c-8 0 -8 1 -8 9v61c0 8 0 9 8 9h53c56 0 86 49 86 101c0 53 -38 90 -98 90c-55 0 -91 -36 -91 -81c0 -9 -1 -10 -10 -10h-67c-9 0 -10 1 -10 10z" />
    <glyph glyph-name="four.oldstyle" unicode="&#xe034;" horiz-adv-x="478" 
d="M386 -136c0 -8 0 -9 -9 -9h-66c-8 0 -9 1 -9 9v129c0 8 -1 9 -9 9h-296c-4 0 -6 1 -6 3c0 1 1 3 2 5l386 496c1 1 3 2 4 2c2 0 3 -1 3 -3v-421c0 -8 1 -9 9 -9h54c8 0 9 -1 9 -9v-55c0 -8 -1 -9 -9 -9h-54c-8 0 -9 -1 -9 -9v-129zM302 277c0 3 -1 4 -2 4l-1 -1
c-1 0 -1 -1 -2 -1l-149 -195c-2 -3 -3 -5 -3 -6c0 -2 2 -3 5 -3h143c8 0 9 1 9 9v193z" />
    <glyph glyph-name="five.oldstyle" unicode="&#xe035;" horiz-adv-x="454" 
d="M98 -23c15 -23 58 -52 107 -52c68 0 125 50 125 123c0 79 -48 127 -133 127c-56 0 -88 -22 -103 -33c-7 -3 -10 -7 -13 -7s-4 3 -4 9l22 331c1 9 3 10 12 10h267c9 0 10 -1 10 -10v-58c0 -9 -1 -10 -10 -10h-193c-8 0 -9 -1 -10 -9l-8 -142c0 -9 1 -10 10 -10
c19 1 26 2 45 2c128 0 201 -87 201 -199c0 -100 -79 -204 -218 -204c-88 0 -136 35 -171 70c-2 2 -3 4 -3 7c0 2 2 5 5 8l48 48c3 3 6 5 7 5c2 0 4 -2 7 -6z" />
    <glyph glyph-name="six.oldstyle" unicode="&#xe036;" horiz-adv-x="474" 
d="M116 194c0 -68 43 -124 115 -124c73 0 117 56 117 124c0 65 -42 122 -115 122s-117 -57 -117 -122zM221 389c4 0 15 1 23 1c113 0 194 -78 194 -196c0 -114 -76 -204 -207 -204s-205 90 -205 204c0 51 17 107 68 175l188 252c7 8 8 9 16 9h87c4 0 6 -1 6 -3
c0 -1 -1 -3 -3 -6l-171 -226c-3 -4 -2 -6 4 -6z" />
    <glyph glyph-name="seven.oldstyle" unicode="&#xe037;" horiz-adv-x="421" 
d="M34 -145c-4 0 -6 1 -6 4c0 1 1 3 2 6l239 527c1 4 2 6 2 7c0 5 -3 7 -8 7h-242c-8 0 -9 1 -9 9v61c0 8 1 9 9 9h370c4 0 6 -1 6 -4c0 -1 -1 -2 -2 -5l-273 -612c-4 -8 -5 -9 -14 -9h-74z" />
    <glyph glyph-name="eight.oldstyle" unicode="&#xe038;" horiz-adv-x="493" 
d="M129 184c0 -59 50 -114 117 -114c68 0 118 55 118 114c0 64 -45 117 -118 117s-117 -53 -117 -117zM158 476c0 -51 35 -92 88 -92c55 0 91 41 91 92c0 47 -35 89 -90 89c-53 0 -89 -44 -89 -89zM128 343c3 2 4 4 4 5s-1 3 -4 6c-35 31 -56 75 -56 122
c0 91 71 165 175 165s176 -74 176 -165c0 -48 -23 -91 -58 -122c-3 -3 -4 -5 -4 -6s1 -3 4 -5c52 -36 87 -95 87 -159c0 -107 -83 -193 -206 -193c-124 0 -205 86 -205 193c0 64 32 123 87 159z" />
    <glyph glyph-name="nine.oldstyle" unicode="&#xe039;" horiz-adv-x="470" 
d="M354 295c0 66 -44 120 -113 120c-71 0 -115 -54 -115 -120c0 -64 41 -119 113 -119c71 0 115 55 115 119zM249 102c-3 -1 -5 -1 -8 -1h-14c-113 0 -191 85 -191 194c0 112 77 200 205 200c127 0 203 -88 203 -200c0 -51 -16 -104 -65 -172l-189 -259c-7 -8 -8 -9 -16 -9
h-88c-4 0 -6 1 -6 3c0 1 1 3 3 6l170 232c4 4 3 6 -4 6z" />
    <glyph glyph-name="uni01E2" unicode="&#x1e2;" horiz-adv-x="764" 
d="M363 0c-9 0 -10 1 -10 10v105c0 9 -1 10 -10 10h-180c-7 0 -11 -3 -13 -10l-46 -105c-3 -9 -5 -10 -13 -10h-82c-5 0 -8 1 -8 4s0 5 1 6l303 680c3 7 7 10 14 10h385c9 0 10 -1 10 -10v-72c0 -9 -1 -10 -10 -10h-245c-9 0 -10 -1 -10 -10v-247c0 -9 1 -10 10 -10h240
c9 0 10 -1 10 -10v-71c0 -9 -1 -10 -10 -10h-240c-9 0 -10 -1 -10 -10v-138c0 -9 1 -10 10 -10h250c9 0 10 -1 10 -10v-72c0 -9 -1 -10 -10 -10h-346zM196 225c-1 -4 -2 -6 -2 -6c0 -3 3 -4 9 -4h140c9 0 10 1 10 10v337c0 3 -2 4 -5 4s-6 0 -7 -3zM354 843c0 9 2 10 10 10
h298c9 0 10 -1 10 -10v-44c0 -9 -1 -10 -10 -10h-298c-9 0 -10 1 -10 10v44z" />
    <glyph glyph-name="uni01E3" unicode="&#x1e3;" horiz-adv-x="754" 
d="M518 369c-65 0 -110 -48 -118 -107c0 -9 1 -10 10 -10h209c7 0 10 2 10 6v4c-7 61 -36 107 -111 107zM212 64c72 0 100 54 100 90c0 44 -44 72 -100 72c-52 0 -92 -29 -92 -82c0 -52 33 -80 92 -80zM184 -10c-102 0 -154 70 -154 145c0 91 60 159 168 159
c52 0 89 -19 108 -34c1 -1 3 -1 4 -1c3 0 4 3 4 8v19c0 56 -33 87 -105 87c-53 0 -88 -21 -103 -32c-3 -1 -5 -2 -6 -2c-3 0 -5 2 -5 7v61c0 5 3 9 8 12c25 17 69 28 116 28c92 0 133 -50 145 -82c1 -1 2 -2 4 -2c1 0 3 1 4 2c35 47 77 82 152 82c135 0 194 -103 194 -228
v-29c0 -8 -1 -10 -10 -10h-292c-9 0 -11 -1 -11 -9c7 -63 55 -101 135 -101c43 0 102 16 125 42c1 1 3 4 6 4s4 -3 4 -10v-69c0 -5 -1 -9 -8 -14c-25 -19 -76 -33 -127 -33c-84 0 -142 32 -181 81c0 1 -1 2 -4 2c-2 0 -3 0 -4 -1c-29 -37 -84 -82 -167 -82zM225 600
c0 9 2 10 10 10h298c9 0 10 -1 10 -10v-44c0 -9 -1 -10 -10 -10h-298c-9 0 -10 1 -10 10v44z" />
    <glyph glyph-name="uni0259" unicode="&#x259;" horiz-adv-x="484" 
d="M354 265c-7 63 -58 102 -138 102c-40 0 -104 -16 -127 -42c-1 -1 -3 -4 -6 -4s-4 3 -4 10v73c0 5 1 5 8 10c25 19 78 33 129 33c155 0 232 -101 232 -229c0 -125 -83 -228 -208 -228c-134 0 -204 106 -204 228v28c0 8 1 10 10 10h297c9 0 11 1 11 9zM240 69
c66 0 111 48 119 107c0 9 -1 10 -10 10h-214c-11 0 -11 -1 -10 -10c7 -60 43 -107 115 -107z" />
    <glyph glyph-name="uni018F" unicode="&#x18f;" horiz-adv-x="745" 
d="M589 409c-16 141 -121 207 -241 207c-84 0 -153 -34 -213 -90c-4 -4 -5 -8 -12 -8c-5 0 -7 6 -7 19v78c0 7 4 13 13 20c40 29 111 77 219 77c245 0 351 -159 351 -362c0 -197 -131 -360 -329 -360c-212 0 -322 167 -322 360v29c0 13 1 13 17 13h503c17 0 21 2 21 17z
M368 86c124 0 213 93 226 203c0 17 -1 19 -18 19h-406c-19 0 -22 -2 -19 -19c13 -111 82 -203 217 -203z" />
    <glyph glyph-name="uni022B" unicode="&#x22b;" horiz-adv-x="519" 
d="M32 219c0 125 103 228 228 228s227 -103 227 -228s-102 -229 -227 -229s-228 104 -228 229zM122 219c0 -83 55 -149 138 -149c84 0 137 66 137 149c0 81 -53 148 -137 148c-83 0 -138 -67 -138 -148zM363 506c-31 0 -60 25 -60 60c0 33 27 61 60 61c32 0 60 -29 60 -60
s-29 -61 -60 -61zM157 506c-31 0 -60 25 -60 60c0 33 28 61 60 61c33 0 60 -29 60 -60s-28 -61 -60 -61zM101 740c0 9 2 10 10 10h298c9 0 10 -1 10 -10v-44c0 -9 -1 -10 -10 -10h-298c-9 0 -10 1 -10 10v44z" />
    <glyph glyph-name="uni022A" unicode="&#x22a;" horiz-adv-x="792" 
d="M746 350c0 -196 -154 -360 -350 -360s-350 164 -350 360s154 360 350 360s350 -164 350 -360zM154 350c0 -142 101 -263 242 -263s242 121 242 263s-101 263 -242 263s-242 -121 -242 -263zM499 761c-31 0 -60 25 -60 60c0 33 27 61 60 61c32 0 60 -29 60 -60
s-29 -61 -60 -61zM293 761c-31 0 -60 25 -60 60c0 33 28 61 60 61c33 0 60 -29 60 -60s-28 -61 -60 -61zM237 990c0 9 2 10 10 10h298c9 0 10 -1 10 -10v-44c0 -9 -1 -10 -10 -10h-298c-9 0 -10 1 -10 10v44z" />
    <glyph glyph-name="uni022D" unicode="&#x22d;" horiz-adv-x="519" 
d="M32 219c0 125 103 228 228 228s227 -103 227 -228s-102 -229 -227 -229s-228 104 -228 229zM122 219c0 -83 55 -149 138 -149c84 0 137 66 137 149c0 81 -53 148 -137 148c-83 0 -138 -67 -138 -148zM110 506c-9 0 -10 2 -10 10v14c0 53 34 98 93 98c84 0 88 -59 130 -59
c18 0 34 12 34 35v11c0 8 1 10 10 10h44c9 0 10 -2 10 -10v-15c0 -53 -30 -97 -89 -97c-86 0 -90 59 -134 59c-18 0 -34 -13 -34 -36v-10c0 -8 -1 -10 -10 -10h-44zM101 740c0 9 2 10 10 10h298c9 0 10 -1 10 -10v-44c0 -9 -1 -10 -10 -10h-298c-9 0 -10 1 -10 10v44z" />
    <glyph glyph-name="uni022C" unicode="&#x22c;" horiz-adv-x="792" 
d="M746 350c0 -196 -154 -360 -350 -360s-350 164 -350 360s154 360 350 360s350 -164 350 -360zM154 350c0 -142 101 -263 242 -263s242 121 242 263s-101 263 -242 263s-242 -121 -242 -263zM246 762c-9 0 -10 2 -10 10v14c0 53 34 98 93 98c84 0 88 -59 130 -59
c18 0 34 12 34 35v11c0 8 1 10 10 10h44c9 0 10 -2 10 -10v-15c0 -53 -30 -97 -89 -97c-86 0 -90 59 -134 59c-18 0 -34 -13 -34 -36v-10c0 -8 -1 -10 -10 -10h-44zM237 990c0 9 2 10 10 10h298c9 0 10 -1 10 -10v-44c0 -9 -1 -10 -10 -10h-298c-9 0 -10 1 -10 10v44z" />
    <glyph glyph-name="uni022F" unicode="&#x22f;" horiz-adv-x="519" 
d="M32 219c0 125 103 228 228 228s227 -103 227 -228s-102 -229 -227 -229s-228 104 -228 229zM122 219c0 -83 55 -149 138 -149c84 0 137 66 137 149c0 81 -53 148 -137 148c-83 0 -138 -67 -138 -148zM260 516c-32 0 -62 27 -62 62s27 63 62 63s62 -30 62 -62
c0 -33 -29 -63 -62 -63z" />
    <glyph glyph-name="uni022E" unicode="&#x22e;" horiz-adv-x="792" 
d="M746 350c0 -196 -154 -360 -350 -360s-350 164 -350 360s154 360 350 360s350 -164 350 -360zM154 350c0 -142 101 -263 242 -263s242 121 242 263s-101 263 -242 263s-242 -121 -242 -263zM396 759c-32 0 -62 27 -62 62s27 63 62 63s62 -30 62 -62
c0 -33 -29 -63 -62 -63z" />
    <glyph glyph-name="uni0230" unicode="&#x230;" horiz-adv-x="792" 
d="M746 350c0 -196 -154 -360 -350 -360s-350 164 -350 360s154 360 350 360s350 -164 350 -360zM154 350c0 -142 101 -263 242 -263s242 121 242 263s-101 263 -242 263s-242 -121 -242 -263zM396 740c-32 0 -62 27 -62 62s27 63 62 63s62 -30 62 -62
c0 -33 -29 -63 -62 -63zM237 948c0 9 2 10 10 10h298c9 0 10 -1 10 -10v-44c0 -9 -1 -10 -10 -10h-298c-9 0 -10 1 -10 10v44z" />
    <glyph glyph-name="uni0231" unicode="&#x231;" horiz-adv-x="519" 
d="M32 219c0 125 103 228 228 228s227 -103 227 -228s-102 -229 -227 -229s-228 104 -228 229zM122 219c0 -83 55 -149 138 -149c84 0 137 66 137 149c0 81 -53 148 -137 148c-83 0 -138 -67 -138 -148zM101 740c0 9 2 10 10 10h298c9 0 10 -1 10 -10v-44
c0 -9 -1 -10 -10 -10h-298c-9 0 -10 1 -10 10v44zM260 506c-32 0 -62 27 -62 62s27 63 62 63s62 -30 62 -62c0 -33 -29 -63 -62 -63z" />
    <glyph glyph-name="uni0232" unicode="&#x232;" horiz-adv-x="548" 
d="M225 353l-211 337c-1 3 -2 5 -2 6c0 3 2 4 6 4h99c5 0 10 -3 13 -10l139 -227c1 -2 2 -3 5 -3c2 0 4 1 5 3l140 227c5 9 6 10 13 10h98c4 0 6 -1 6 -4c0 -1 -1 -3 -2 -6l-211 -337v-343c0 -9 -1 -10 -10 -10h-78c-9 0 -10 1 -10 10v343zM115 844c0 9 2 10 10 10h298
c9 0 10 -1 10 -10v-44c0 -9 -1 -10 -10 -10h-298c-9 0 -10 1 -10 10v44z" />
    <glyph glyph-name="uni0233" unicode="&#x233;" horiz-adv-x="453" 
d="M223 132c1 -2 2 -3 4 -3c1 0 3 1 4 3l117 295c4 8 5 10 13 10h75c6 0 9 -1 9 -4c0 0 -1 -2 -2 -6l-259 -637c-4 -8 -5 -10 -13 -10h-74c-6 0 -9 1 -9 4c0 0 1 2 2 6l88 218c1 1 1 3 1 5s0 4 -1 5l-168 409c-1 4 -2 6 -2 6c0 3 3 4 9 4h77c8 0 9 -2 13 -10zM67 600
c0 9 2 10 10 10h298c9 0 10 -1 10 -10v-44c0 -9 -1 -10 -10 -10h-298c-9 0 -10 1 -10 10v44z" />
    <glyph glyph-name="uni01DF" unicode="&#x1df;" horiz-adv-x="464" 
d="M318 151c0 43 -48 71 -103 71c-59 0 -99 -32 -99 -79c0 -48 37 -81 99 -81c57 0 103 47 103 89zM30 140c0 97 78 152 168 152c56 0 96 -21 114 -35c1 -1 3 -1 4 -1c3 0 4 3 4 7v23c0 56 -32 87 -104 87c-53 0 -89 -20 -104 -32c-2 -2 -4 -3 -7 -3s-4 3 -4 8v61
c0 5 3 9 8 12c25 17 68 28 115 28c154 0 182 -85 182 -160v-277c0 -8 -1 -10 -10 -10h-63c-9 0 -10 2 -10 10v34c0 1 -1 2 -4 2c-2 0 -3 0 -4 -1c-28 -35 -70 -55 -117 -55c-87 0 -168 50 -168 150zM337 506c-31 0 -60 25 -60 60c0 33 27 61 60 61c32 0 60 -29 60 -60
s-29 -61 -60 -61zM131 506c-31 0 -60 25 -60 60c0 33 28 61 60 61c33 0 60 -29 60 -60s-28 -61 -60 -61zM76 740c0 9 2 10 10 10h298c9 0 10 -1 10 -10v-44c0 -9 -1 -10 -10 -10h-298c-9 0 -10 1 -10 10v44z" />
    <glyph glyph-name="uni01DE" unicode="&#x1de;" horiz-adv-x="562" 
d="M284 443c-1 2 -3 3 -6 3s-5 -1 -6 -3l-76 -218c-1 -4 -2 -6 -2 -6c0 -3 -1 -4 6 -4h157c5 0 7 1 7 3c0 1 -1 3 -2 7zM275 711c1 3 2 4 5 4s4 -1 5 -4l260 -701c1 -1 1 -3 1 -6s-3 -4 -8 -4h-87c-8 0 -10 1 -13 10l-40 105c-3 9 -4 10 -13 10h-214c-7 0 -11 -3 -13 -10
l-37 -105c-3 -9 -5 -10 -13 -10h-84c-5 0 -8 1 -8 4s0 5 1 6zM384 761c-31 0 -60 25 -60 60c0 33 27 61 60 61c32 0 60 -29 60 -60s-29 -61 -60 -61zM178 761c-31 0 -60 25 -60 60c0 33 28 61 60 61c33 0 60 -29 60 -60s-28 -61 -60 -61zM122 990c0 9 2 10 10 10h298
c9 0 10 -1 10 -10v-44c0 -9 -1 -10 -10 -10h-298c-9 0 -10 1 -10 10v44z" />
    <glyph glyph-name="uni01E0" unicode="&#x1e0;" horiz-adv-x="562" 
d="M284 443c-1 2 -3 3 -6 3s-5 -1 -6 -3l-76 -218c-1 -4 -2 -6 -2 -6c0 -3 -1 -4 6 -4h157c5 0 7 1 7 3c0 1 -1 3 -2 7zM275 711c1 3 2 4 5 4s4 -1 5 -4l260 -701c1 -1 1 -3 1 -6s-3 -4 -8 -4h-87c-8 0 -10 1 -13 10l-40 105c-3 9 -4 10 -13 10h-214c-7 0 -11 -3 -13 -10
l-37 -105c-3 -9 -5 -10 -13 -10h-84c-5 0 -8 1 -8 4s0 5 1 6zM281 759c-32 0 -62 27 -62 62s27 63 62 63s62 -30 62 -62c0 -33 -29 -63 -62 -63zM122 990c0 9 2 10 10 10h298c9 0 10 -1 10 -10v-44c0 -9 -1 -10 -10 -10h-298c-9 0 -10 1 -10 10v44z" />
    <glyph glyph-name="uni01E1" unicode="&#x1e1;" horiz-adv-x="464" 
d="M318 151c0 43 -48 71 -103 71c-59 0 -99 -32 -99 -79c0 -48 37 -81 99 -81c57 0 103 47 103 89zM30 140c0 97 78 152 168 152c56 0 96 -21 114 -35c1 -1 3 -1 4 -1c3 0 4 3 4 7v23c0 56 -32 87 -104 87c-53 0 -89 -20 -104 -32c-2 -2 -4 -3 -7 -3s-4 3 -4 8v61
c0 5 3 9 8 12c25 17 68 28 115 28c154 0 182 -85 182 -160v-277c0 -8 -1 -10 -10 -10h-63c-9 0 -10 2 -10 10v34c0 1 -1 2 -4 2c-2 0 -3 0 -4 -1c-28 -35 -70 -55 -117 -55c-87 0 -168 50 -168 150zM80 740c0 9 2 10 10 10h298c9 0 10 -1 10 -10v-44c0 -9 -1 -10 -10 -10
h-298c-9 0 -10 1 -10 10v44zM240 506c-32 0 -62 27 -62 62s27 63 62 63s62 -30 62 -62c0 -33 -29 -63 -62 -63z" />
    <glyph glyph-name="uni1E10" unicode="&#x1e10;" horiz-adv-x="629" 
d="M246 700c85 0 143 -18 190 -47c97 -60 147 -172 147 -303c0 -145 -67 -271 -194 -324c-41 -17 -99 -26 -152 -26h-154c-9 0 -10 1 -10 10v680c0 9 1 10 10 10h163zM474 350c0 95 -28 178 -92 223c-33 24 -89 36 -145 36h-56c-9 0 -10 -1 -10 -10v-498c0 -9 1 -10 10 -10
h57c56 0 107 12 140 36c64 45 96 128 96 223zM193 -76c1 8 2 10 11 10h68c7 0 10 -3 9 -10l-45 -153c-3 -8 -4 -10 -13 -10h-38c-8 0 -7 3 -7 10z" />
    <glyph glyph-name="uni1E11" unicode="&#x1e11;" horiz-adv-x="550" 
d="M398 219c0 81 -55 148 -137 148c-83 0 -139 -67 -139 -148c0 -83 56 -149 139 -149c82 0 137 66 137 149zM398 740c0 8 1 10 10 10h68c9 0 10 -2 10 -10v-730c0 -8 -1 -10 -10 -10h-68c-9 0 -10 2 -10 10v40c0 1 -1 2 -4 2c-2 0 -3 0 -4 -1c-35 -35 -80 -61 -141 -61
c-124 0 -217 104 -217 229s93 228 217 228c61 0 105 -24 141 -61c1 -1 2 -1 4 -1c3 0 4 1 4 2v353zM224 -76c1 8 2 10 11 10h68c7 0 10 -3 9 -10l-45 -153c-3 -8 -4 -10 -13 -10h-38c-8 0 -7 3 -7 10z" />
    <glyph glyph-name="Wgrave" unicode="&#x1e80;" horiz-adv-x="841" 
d="M423 433c-1 2 -3 3 -5 3c-3 0 -4 -1 -5 -3l-150 -444c-1 -3 -2 -4 -5 -4s-4 1 -5 4l-233 701c-1 3 -2 5 -2 7s2 3 6 3h94c5 0 9 -3 12 -10l126 -416c1 -2 2 -3 5 -3c2 0 4 1 5 3l143 431c3 7 7 10 12 10s9 -3 12 -10l144 -431c1 -2 2 -3 5 -3c2 0 4 1 5 3l128 416
c3 7 7 10 12 10h90c4 0 6 -1 6 -3s-1 -4 -2 -7l-238 -701c-1 -3 -2 -4 -5 -4s-4 1 -5 4zM379 884l96 -124c5 -6 8 -10 -2 -10h-71c-8 0 -10 2 -18 10l-121 124c-8 9 -5 10 4 10h96c8 0 10 -2 16 -10z" />
    <glyph glyph-name="wgrave" unicode="&#x1e81;" horiz-adv-x="648" 
d="M217 -9c-2 -6 -5 -9 -10 -9c-3 0 -6 3 -9 9l-188 436c-1 4 -2 6 -2 6c0 3 3 4 9 4h74c8 0 9 -2 13 -10l99 -251c1 -2 3 -3 6 -3s5 1 6 3l101 266c3 7 5 10 8 10s5 -3 8 -10l102 -266c1 -2 3 -3 6 -3s5 1 6 3l98 251c4 8 5 10 13 10h74c6 0 9 -1 9 -4c0 0 -1 -2 -2 -6
l-188 -436c-3 -6 -6 -9 -9 -9c-4 0 -7 3 -10 9l-100 253c-1 2 -3 3 -6 3s-5 -1 -6 -3zM287 640l96 -124c5 -6 8 -10 -2 -10h-71c-8 0 -10 2 -18 10l-121 124c-8 9 -5 10 4 10h96c8 0 10 -2 16 -10z" />
    <glyph glyph-name="Wacute" unicode="&#x1e82;" horiz-adv-x="841" 
d="M423 433c-1 2 -3 3 -5 3c-3 0 -4 -1 -5 -3l-150 -444c-1 -3 -2 -4 -5 -4s-4 1 -5 4l-233 701c-1 3 -2 5 -2 7s2 3 6 3h94c5 0 9 -3 12 -10l126 -416c1 -2 2 -3 5 -3c2 0 4 1 5 3l143 431c3 7 7 10 12 10s9 -3 12 -10l144 -431c1 -2 2 -3 5 -3c2 0 4 1 5 3l128 416
c3 7 7 10 12 10h90c4 0 6 -1 6 -3s-1 -4 -2 -7l-238 -701c-1 -3 -2 -4 -5 -4s-4 1 -5 4zM465 884c6 8 8 10 16 10h96c9 0 12 -1 4 -10l-121 -124c-8 -8 -10 -10 -18 -10h-71c-10 0 -7 4 -2 10z" />
    <glyph glyph-name="wacute" unicode="&#x1e83;" horiz-adv-x="648" 
d="M217 -9c-2 -6 -5 -9 -10 -9c-3 0 -6 3 -9 9l-188 436c-1 4 -2 6 -2 6c0 3 3 4 9 4h74c8 0 9 -2 13 -10l99 -251c1 -2 3 -3 6 -3s5 1 6 3l101 266c3 7 5 10 8 10s5 -3 8 -10l102 -266c1 -2 3 -3 6 -3s5 1 6 3l98 251c4 8 5 10 13 10h74c6 0 9 -1 9 -4c0 0 -1 -2 -2 -6
l-188 -436c-3 -6 -6 -9 -9 -9c-4 0 -7 3 -10 9l-100 253c-1 2 -3 3 -6 3s-5 -1 -6 -3zM362 640c6 8 8 10 16 10h96c9 0 12 -1 4 -10l-121 -124c-8 -8 -10 -10 -18 -10h-71c-10 0 -7 4 -2 10z" />
    <glyph glyph-name="Wdieresis" unicode="&#x1e84;" horiz-adv-x="841" 
d="M423 433c-1 2 -3 3 -5 3c-3 0 -4 -1 -5 -3l-150 -444c-1 -3 -2 -4 -5 -4s-4 1 -5 4l-233 701c-1 3 -2 5 -2 7s2 3 6 3h94c5 0 9 -3 12 -10l126 -416c1 -2 2 -3 5 -3c2 0 4 1 5 3l143 431c3 7 7 10 12 10s9 -3 12 -10l144 -431c1 -2 2 -3 5 -3c2 0 4 1 5 3l128 416
c3 7 7 10 12 10h90c4 0 6 -1 6 -3s-1 -4 -2 -7l-238 -701c-1 -3 -2 -4 -5 -4s-4 1 -5 4zM523 761c-31 0 -60 25 -60 60c0 33 27 61 60 61c32 0 60 -29 60 -60s-29 -61 -60 -61zM317 761c-31 0 -60 25 -60 60c0 33 28 61 60 61c33 0 60 -29 60 -60s-28 -61 -60 -61z" />
    <glyph glyph-name="wdieresis" unicode="&#x1e85;" horiz-adv-x="648" 
d="M217 -9c-2 -6 -5 -9 -10 -9c-3 0 -6 3 -9 9l-188 436c-1 4 -2 6 -2 6c0 3 3 4 9 4h74c8 0 9 -2 13 -10l99 -251c1 -2 3 -3 6 -3s5 1 6 3l101 266c3 7 5 10 8 10s5 -3 8 -10l102 -266c1 -2 3 -3 6 -3s5 1 6 3l98 251c4 8 5 10 13 10h74c6 0 9 -1 9 -4c0 0 -1 -2 -2 -6
l-188 -436c-3 -6 -6 -9 -9 -9c-4 0 -7 3 -10 9l-100 253c-1 2 -3 3 -6 3s-5 -1 -6 -3zM427 518c-31 0 -60 25 -60 60c0 33 27 61 60 61c32 0 60 -29 60 -60s-29 -61 -60 -61zM221 518c-31 0 -60 25 -60 60c0 33 28 61 60 61c33 0 60 -29 60 -60s-28 -61 -60 -61z" />
    <glyph glyph-name="Ygrave" unicode="&#x1ef2;" horiz-adv-x="548" 
d="M225 353l-211 337c-1 3 -2 5 -2 6c0 3 2 4 6 4h99c5 0 10 -3 13 -10l139 -227c1 -2 2 -3 5 -3c2 0 4 1 5 3l140 227c5 9 6 10 13 10h98c4 0 6 -1 6 -4c0 -1 -1 -3 -2 -6l-211 -337v-343c0 -9 -1 -10 -10 -10h-78c-9 0 -10 1 -10 10v343zM263 884l96 -124
c5 -6 8 -10 -2 -10h-71c-8 0 -10 2 -18 10l-121 124c-8 9 -5 10 4 10h96c8 0 10 -2 16 -10z" />
    <glyph glyph-name="ygrave" unicode="&#x1ef3;" horiz-adv-x="453" 
d="M223 132c1 -2 2 -3 4 -3c1 0 3 1 4 3l117 295c4 8 5 10 13 10h75c6 0 9 -1 9 -4c0 0 -1 -2 -2 -6l-259 -637c-4 -8 -5 -10 -13 -10h-74c-6 0 -9 1 -9 4c0 0 1 2 2 6l88 218c1 1 1 3 1 5s0 4 -1 5l-168 409c-1 4 -2 6 -2 6c0 3 3 4 9 4h77c8 0 9 -2 13 -10zM191 640
l96 -124c5 -6 8 -10 -2 -10h-71c-8 0 -10 2 -18 10l-121 124c-8 9 -5 10 4 10h96c8 0 10 -2 16 -10z" />
    <glyph glyph-name="uni1E9E" unicode="&#x1e9e;" horiz-adv-x="615" 
d="M407 589c1 3 2 5 2 6c0 2 -2 4 -5 6c-20 11 -47 21 -94 21c-87 0 -142 -44 -142 -157v-455c0 -9 -1 -10 -10 -10h-78c-9 0 -10 1 -10 10v471c0 152 103 229 240 229c101 0 180 -37 220 -89v-3l-112 -188c-2 -3 -3 -6 -3 -7c0 -3 1 -4 4 -5c69 -8 164 -64 164 -196
c0 -130 -77 -232 -261 -232h-39c-9 0 -10 1 -10 10v68c0 9 1 10 10 10h43c100 0 151 55 151 139c0 88 -56 133 -159 133h-34c-3 0 -4 2 -4 5c0 1 1 4 3 7z" />
    <glyph glyph-name="E" unicode="E" horiz-adv-x="512" 
d="M73 690c0 9 1 10 10 10h373c9 0 10 -1 10 -10v-72c0 -9 -1 -10 -10 -10h-275c-9 0 -10 -1 -10 -10v-247c0 -9 1 -10 10 -10h265c9 0 10 -1 10 -10v-71c0 -9 -1 -10 -10 -10h-265c-9 0 -10 -1 -10 -10v-138c0 -9 1 -10 10 -10h280c9 0 10 -1 10 -10v-72
c0 -9 -1 -10 -10 -10h-378c-9 0 -10 1 -10 10v680z" />
    <glyph glyph-name="uni0280" unicode="&#x280;" horiz-adv-x="431" 
d="M222 231c63 0 94 25 94 74c0 54 -37 69 -103 69h-51c-9 0 -10 -1 -10 -10v-123c0 -9 1 -10 10 -10h60zM152 10c0 -9 -1 -10 -10 -10h-66c-9 0 -12 1 -12 10v427c0 9 1 10 10 10h137c93 0 196 -24 196 -142c0 -69 -56 -122 -132 -132c-3 0 -4 -2 -4 -4c0 -1 1 -3 2 -4
l137 -155c6 -7 6 -10 -4 -10h-92c-9 0 -8 1 -16 10l-134 156c-3 4 -6 6 -8 6c-3 0 -4 -3 -4 -9v-153z" />
    <glyph glyph-name="F" unicode="F" horiz-adv-x="490" 
d="M73 690c0 9 1 10 10 10h361c9 0 10 -1 10 -10v-72c0 -9 -1 -10 -10 -10h-263c-9 0 -10 -1 -10 -10v-247c0 -9 1 -10 10 -10h255c9 0 10 -1 10 -10v-71c0 -9 -1 -10 -10 -10h-255c-9 0 -10 -1 -10 -10v-230c0 -9 -1 -10 -10 -10h-78c-9 0 -10 1 -10 10v680z" />
    <glyph glyph-name="O" unicode="O" horiz-adv-x="792" 
d="M746 350c0 -196 -154 -360 -350 -360s-350 164 -350 360s154 360 350 360s350 -164 350 -360zM154 350c0 -142 101 -263 242 -263s242 121 242 263s-101 263 -242 263s-242 -121 -242 -263z" />
    <glyph glyph-name="Gcaron" unicode="&#x1e6;" horiz-adv-x="661" 
d="M406 613c-169 0 -252 -123 -252 -263c0 -141 85 -267 256 -267c35 0 74 4 99 16c3 1 5 4 5 7v169c0 9 -1 10 -10 10h-131c-9 0 -10 1 -10 10v69c0 9 1 10 10 10h227c9 0 10 -1 10 -10v-313c0 -4 -2 -8 -6 -11c-45 -37 -126 -50 -194 -50c-227 0 -364 164 -364 360
s137 360 360 360c64 0 115 -13 163 -40c5 -3 8 -6 8 -10v-107c0 -5 -1 -7 -4 -7c-2 0 -4 1 -5 2c-41 41 -97 65 -162 65zM421 760c-5 -7 -12 -10 -19 -10h-76c-8 0 -14 3 -19 10l-108 124c-2 3 -3 5 -3 7s2 3 6 3h62c9 0 12 -5 17 -10l75 -75c1 -1 3 -2 6 -2s5 1 6 2l73 75
c5 5 8 10 17 10h64c4 0 6 -1 6 -3s-1 -4 -3 -7z" />
    <glyph glyph-name="uni01CD" unicode="&#x1cd;" horiz-adv-x="562" 
d="M284 443c-1 2 -3 3 -6 3s-5 -1 -6 -3l-76 -218c-1 -4 -2 -6 -2 -6c0 -3 -1 -4 6 -4h157c5 0 7 1 7 3c0 1 -1 3 -2 7zM275 711c1 3 2 4 5 4s4 -1 5 -4l260 -701c1 -1 1 -3 1 -6s-3 -4 -8 -4h-87c-8 0 -10 1 -13 10l-40 105c-3 9 -4 10 -13 10h-214c-7 0 -11 -3 -13 -10
l-37 -105c-3 -9 -5 -10 -13 -10h-84c-5 0 -8 1 -8 4s0 5 1 6zM340 760c-5 -7 -12 -10 -19 -10h-76c-8 0 -14 3 -19 10l-108 124c-2 3 -3 5 -3 7s2 3 6 3h62c9 0 12 -5 17 -10l75 -75c1 -1 3 -2 6 -2s5 1 6 2l73 75c5 5 8 10 17 10h64c4 0 6 -1 6 -3s-1 -4 -3 -7z" />
    <glyph glyph-name="uni01CE" unicode="&#x1ce;" horiz-adv-x="464" 
d="M318 151c0 43 -48 71 -103 71c-59 0 -99 -32 -99 -79c0 -48 37 -81 99 -81c57 0 103 47 103 89zM30 140c0 97 78 152 168 152c56 0 96 -21 114 -35c1 -1 3 -1 4 -1c3 0 4 3 4 7v23c0 56 -32 87 -104 87c-53 0 -89 -20 -104 -32c-2 -2 -4 -3 -7 -3s-4 3 -4 8v61
c0 5 3 9 8 12c25 17 68 28 115 28c154 0 182 -85 182 -160v-277c0 -8 -1 -10 -10 -10h-63c-9 0 -10 2 -10 10v34c0 1 -1 2 -4 2c-2 0 -3 0 -4 -1c-28 -35 -70 -55 -117 -55c-87 0 -168 50 -168 150zM291 516c-5 -7 -12 -10 -19 -10h-76c-8 0 -14 3 -19 10l-108 124
c-2 3 -3 5 -3 7s2 3 6 3h62c9 0 12 -5 17 -10l75 -75c1 -1 3 -2 6 -2s5 1 6 2l73 75c5 5 8 10 17 10h64c4 0 6 -1 6 -3s-1 -4 -3 -7z" />
    <glyph glyph-name="uni01E8" unicode="&#x1e8;" horiz-adv-x="562" 
d="M171 10c0 -9 -1 -10 -10 -10h-78c-9 0 -10 1 -10 10v680c0 9 1 10 10 10h78c9 0 10 -1 10 -10v-279c0 -5 2 -7 6 -7s7 2 9 5l220 281c7 8 7 10 16 10h104c5 0 8 -1 8 -3c0 -1 -1 -3 -4 -7l-244 -309c-1 -1 -2 -3 -2 -5s1 -4 2 -5l255 -361c3 -5 5 -7 5 -8s-3 -2 -9 -2
h-104c-9 0 -8 1 -16 10l-230 332c-2 3 -5 4 -8 4c-5 0 -8 -2 -8 -7v-329zM330 760c-5 -7 -12 -10 -19 -10h-76c-8 0 -14 3 -19 10l-108 124c-2 3 -3 5 -3 7s2 3 6 3h62c9 0 12 -5 17 -10l75 -75c1 -1 3 -2 6 -2s5 1 6 2l73 75c5 5 8 10 17 10h64c4 0 6 -1 6 -3s-1 -4 -3 -7z
" />
    <glyph glyph-name="uni01E9" unicode="&#x1e9;" horiz-adv-x="439" 
d="M152 275c0 -5 2 -7 6 -7s7 2 9 5l128 154c7 8 7 10 16 10h90c5 0 8 -1 8 -3c0 -1 -1 -3 -4 -7l-154 -182c-1 -1 -2 -3 -2 -5s1 -4 2 -5l167 -225c3 -5 5 -7 5 -8s-3 -2 -9 -2h-90c-9 0 -8 1 -16 10l-140 196c-2 3 -5 4 -8 4c-5 0 -8 -2 -8 -7v-193c0 -8 -1 -10 -10 -10
h-68c-9 0 -10 2 -10 10v680c0 8 1 10 10 10h68c9 0 10 -2 10 -10v-415zM281 760c-5 -7 -12 -10 -19 -10h-76c-8 0 -14 3 -19 10l-108 124c-2 3 -3 5 -3 7s2 3 6 3h62c9 0 12 -5 17 -10l75 -75c1 -1 3 -2 6 -2s5 1 6 2l73 75c5 5 8 10 17 10h64c4 0 6 -1 6 -3s-1 -4 -3 -7z
" />
    <glyph glyph-name="uogonek" unicode="&#x173;" horiz-adv-x="472" 
d="M199 -95c0 24 7 52 22 77c1 2 2 4 2 5c0 2 -2 4 -8 4c-107 8 -161 83 -161 176v260c0 8 1 10 10 10h68c9 0 10 -2 10 -10v-254c0 -69 41 -103 94 -103s94 34 94 103v254c0 8 1 10 10 10h68c9 0 10 -2 10 -10v-260c0 -58 -22 -110 -64 -142c-20 -15 -50 -31 -65 -52
c-12 -16 -18 -33 -18 -55c0 -35 21 -66 73 -66c9 0 10 -1 10 -9v-43c0 -7 -1 -9 -10 -10s-12 -1 -23 -1c-73 0 -122 53 -122 116z" />
    <glyph glyph-name="uni2016" unicode="&#x2016;" horiz-adv-x="392" 
d="M68 740c0 8 1 10 10 10h56c9 0 10 -2 10 -10v-980c0 -8 -1 -10 -10 -10h-56c-9 0 -10 2 -10 10v980zM248 740c0 8 1 10 10 10h56c9 0 10 -2 10 -10v-980c0 -8 -1 -10 -10 -10h-56c-9 0 -10 2 -10 10v980z" />
    <glyph glyph-name="onethird" unicode="&#x2153;" horiz-adv-x="715" 
d="M91 25l396 686c4 7 6 7 13 3l43 -25c6 -4 8 -6 4 -14l-396 -686c-4 -7 -6 -7 -13 -3l-43 25c-6 4 -8 6 -4 14zM199 344c0 -8 0 -9 -9 -9h-60c-8 0 -9 1 -9 9v263c0 11 -1 13 -10 10l-61 -21c-8 -3 -10 -3 -10 6v51c0 9 2 11 10 14l139 48c11 3 10 1 10 -8v-363zM472 281
c0 -9 -1 -10 -10 -10h-48c-9 0 -10 1 -10 10c3 65 51 107 123 107c75 0 120 -49 120 -100c0 -31 -12 -49 -33 -65c-3 -3 -4 -5 -4 -6s1 -3 4 -5c31 -21 51 -57 51 -93c0 -69 -50 -118 -138 -118c-80 0 -133 48 -133 118c0 9 1 10 10 10h51c9 0 10 -1 10 -10
c0 -30 30 -52 62 -52c37 0 61 17 61 50c0 29 -20 50 -61 50h-33c-9 0 -10 1 -10 10v45c0 9 1 10 10 10h26c35 0 53 11 53 42c0 30 -19 50 -50 50c-28 0 -48 -15 -51 -43z" />
    <glyph glyph-name="twothirds" unicode="&#x2154;" horiz-adv-x="792" 
d="M549 281c0 -9 -1 -10 -10 -10h-48c-9 0 -10 1 -10 10c3 65 51 107 123 107c75 0 120 -49 120 -100c0 -31 -12 -49 -33 -65c-3 -3 -4 -5 -4 -6s1 -3 4 -5c31 -21 51 -57 51 -93c0 -69 -50 -118 -138 -118c-80 0 -133 48 -133 118c0 9 1 10 10 10h51c9 0 10 -1 10 -10
c0 -30 30 -52 62 -52c37 0 61 17 61 50c0 29 -20 50 -61 50h-33c-9 0 -10 1 -10 10v45c0 9 1 10 10 10h26c35 0 53 11 53 42c0 30 -19 50 -50 50c-28 0 -48 -15 -51 -43zM52 587c0 76 45 128 129 128c87 0 131 -51 131 -128c0 -43 -28 -94 -87 -155l-22 -22
c-2 -2 -3 -4 -3 -5c0 -2 2 -3 5 -3h91c9 0 10 -1 10 -10v-47c0 -9 -1 -10 -10 -10h-242c-3 0 -4 1 -4 4c0 4 3 6 3 7l114 123c37 41 68 77 68 114c0 42 -22 62 -56 62c-32 0 -53 -20 -53 -58c0 -9 -1 -10 -10 -10h-54c-9 0 -10 1 -10 10zM168 25l396 686c4 7 6 7 13 3
l43 -25c6 -4 8 -6 4 -14l-396 -686c-4 -7 -6 -7 -13 -3l-43 25c-6 4 -8 6 -4 14z" />
    <glyph glyph-name="uni1E5A" unicode="&#x1e5a;" horiz-adv-x="545" 
d="M250 374c88 0 126 44 126 120c0 79 -50 118 -130 118h-67c-9 0 -10 -1 -10 -10v-218c0 -9 1 -10 10 -10h71zM169 10c0 -9 -1 -10 -10 -10h-75c-9 0 -12 1 -12 10v680c0 9 1 10 10 10h159c75 0 133 -16 173 -49c45 -37 64 -93 64 -157c0 -101 -62 -174 -169 -195
c-3 -1 -4 -2 -4 -4c0 -1 1 -3 2 -4l217 -281c3 -5 5 -7 5 -8s-3 -2 -9 -2h-100c-9 0 -8 1 -16 10l-223 292c-3 4 -6 6 -8 6c-3 0 -4 -3 -4 -9v-289zM262 -210c-32 0 -62 27 -62 62s27 63 62 63s62 -30 62 -62c0 -33 -29 -63 -62 -63z" />
    <glyph glyph-name="uni1E5B" unicode="&#x1e5b;" horiz-adv-x="319" 
d="M74 0c-9 0 -10 2 -10 10v417c0 8 1 10 10 10h68c9 0 10 -2 10 -10v-53c0 -1 1 -2 4 -2c2 0 3 0 4 1c19 36 73 74 131 74c9 0 10 -2 10 -10v-72c0 -7 -2 -11 -5 -11c-4 0 -12 2 -27 2c-76 0 -117 -65 -117 -173v-173c0 -8 -1 -10 -10 -10h-68zM112 -210
c-32 0 -62 27 -62 62s27 63 62 63s62 -30 62 -62c0 -33 -29 -63 -62 -63z" />
    <glyph glyph-name="uni1E37" unicode="&#x1e37;" horiz-adv-x="224" 
d="M68 740c0 8 1 10 10 10h68c9 0 10 -2 10 -10v-730c0 -8 -1 -10 -10 -10h-68c-9 0 -10 2 -10 10v730zM114 -210c-32 0 -62 27 -62 62s27 63 62 63s62 -30 62 -62c0 -33 -29 -63 -62 -63z" />
    <glyph glyph-name="uni1E36" unicode="&#x1e36;" horiz-adv-x="452" 
d="M73 690c0 9 1 10 10 10h76c9 0 10 -1 10 -10v-588c0 -9 1 -10 10 -10h232c9 0 10 -1 10 -10v-72c0 -9 -1 -10 -10 -10h-328c-9 0 -10 1 -10 10v680zM242 -210c-32 0 -62 27 -62 62s27 63 62 63s62 -30 62 -62c0 -33 -29 -63 -62 -63z" />
    <glyph glyph-name="uni1E43" unicode="&#x1e43;" horiz-adv-x="778" 
d="M414 370c1 -1 2 -2 4 -2c1 0 3 1 4 2c30 36 73 77 140 77c121 0 158 -74 158 -169v-268c0 -8 -1 -10 -10 -10h-68c-9 0 -10 2 -10 10v248c0 69 -20 109 -85 109c-68 0 -111 -47 -111 -128v-229c0 -8 -1 -10 -10 -10h-68c-9 0 -10 2 -10 10v248c0 69 -20 109 -85 109
c-68 0 -111 -47 -111 -128v-229c0 -8 -1 -10 -10 -10h-68c-9 0 -10 2 -10 10v417c0 8 1 10 10 10h68c9 0 10 -2 10 -10v-40c0 -1 1 -2 4 -2c2 0 3 0 4 1c29 36 68 61 120 61c77 0 115 -30 134 -77zM389 -210c-32 0 -62 27 -62 62s27 63 62 63s62 -30 62 -62
c0 -33 -29 -63 -62 -63z" />
    <glyph glyph-name="uni1E42" unicode="&#x1e42;" horiz-adv-x="776" 
d="M417 123c-3 -3 -6 -5 -8 -5c-3 0 -5 2 -8 5l-190 268c-2 2 -4 3 -7 3c-5 0 -8 -2 -8 -6v-378c0 -9 -1 -10 -10 -10h-77c-9 0 -10 1 -10 10v698c0 5 1 7 3 7s4 -1 7 -5l294 -430c3 -3 5 -4 6 -4c2 0 4 1 6 4l294 430c3 4 5 5 7 5s3 -2 3 -7v-698c0 -9 -1 -10 -10 -10h-77
c-9 0 -10 1 -10 10v378c0 4 -3 6 -8 6c-3 0 -5 -1 -7 -3zM388 -210c-32 0 -62 27 -62 62s27 63 62 63s62 -30 62 -62c0 -33 -29 -63 -62 -63z" />
    <glyph glyph-name="uni1E47" unicode="&#x1e47;" horiz-adv-x="506" 
d="M448 10c0 -8 -1 -10 -10 -10h-68c-9 0 -10 2 -10 10v248c0 69 -25 109 -90 109c-68 0 -118 -47 -118 -128v-229c0 -8 -1 -10 -10 -10h-68c-9 0 -10 2 -10 10v417c0 9 1 10 10 10h68c9 0 10 -2 10 -10v-40c0 -1 1 -2 4 -2c2 0 3 0 4 1c38 36 70 61 131 61
c121 0 157 -74 157 -169v-268zM250 -210c-32 0 -62 27 -62 62s27 63 62 63s62 -30 62 -62c0 -33 -29 -63 -62 -63z" />
    <glyph glyph-name="uni1E46" unicode="&#x1e46;" horiz-adv-x="590" 
d="M176 433c-2 2 -4 3 -7 3c-5 0 -8 -2 -8 -6v-420c0 -9 -1 -10 -10 -10h-74c-9 0 -10 1 -10 10v698c0 5 1 7 3 7s4 -1 7 -5l337 -443c2 -2 4 -3 7 -3c5 0 8 2 8 6v420c0 9 1 10 10 10h74c9 0 10 -1 10 -10v-698c0 -5 -1 -7 -3 -7s-4 2 -7 5zM303 -210c-32 0 -62 27 -62 62
s27 63 62 63s62 -30 62 -62c0 -33 -29 -63 -62 -63z" />
    <glyph glyph-name="uni1E17" unicode="&#x1e17;" horiz-adv-x="484" 
d="M130 172c7 -63 58 -102 138 -102c40 0 104 16 127 42c1 1 3 4 6 4s4 -3 4 -10v-69c0 -5 -1 -9 -8 -14c-25 -19 -78 -33 -129 -33c-155 0 -232 101 -232 229c0 125 83 228 208 228c134 0 204 -106 204 -228v-28c0 -8 -1 -10 -10 -10h-297c-9 0 -11 -1 -11 -9zM244 368
c-66 0 -111 -48 -119 -107c0 -9 1 -10 10 -10h214c11 0 11 1 10 10c-7 60 -43 107 -115 107zM83 547c0 9 2 10 10 10h298c9 0 10 -1 10 -10v-44c0 -9 -1 -10 -10 -10h-298c-9 0 -10 1 -10 10v44zM282 740c6 8 8 10 16 10h96c9 0 12 -1 4 -10l-121 -124
c-8 -8 -10 -10 -18 -10h-71c-10 0 -7 4 -2 10z" />
    <glyph glyph-name="uni1E16" unicode="&#x1e16;" horiz-adv-x="512" 
d="M276 990c6 8 8 10 16 10h96c9 0 12 -1 4 -10l-101 -104c-8 -8 -10 -10 -18 -10h-71c-10 0 -7 4 -2 10zM73 690c0 9 1 10 10 10h373c9 0 10 -1 10 -10v-72c0 -9 -1 -10 -10 -10h-275c-9 0 -10 -1 -10 -10v-247c0 -9 1 -10 10 -10h265c9 0 10 -1 10 -10v-71
c0 -9 -1 -10 -10 -10h-265c-9 0 -10 -1 -10 -10v-138c0 -9 1 -10 10 -10h280c9 0 10 -1 10 -10v-72c0 -9 -1 -10 -10 -10h-378c-9 0 -10 1 -10 10v680zM117 816c0 9 2 10 10 10h298c9 0 10 -1 10 -10v-44c0 -9 -1 -10 -10 -10h-298c-9 0 -10 1 -10 10v44z" />
    <glyph glyph-name="uni1E53" unicode="&#x1e53;" horiz-adv-x="519" 
d="M32 219c0 125 103 228 228 228s227 -103 227 -228s-102 -229 -227 -229s-228 104 -228 229zM122 219c0 -83 55 -149 138 -149c84 0 137 66 137 149c0 81 -53 148 -137 148c-83 0 -138 -67 -138 -148zM101 547c0 9 2 10 10 10h298c9 0 10 -1 10 -10v-44
c0 -9 -1 -10 -10 -10h-298c-9 0 -10 1 -10 10v44zM294 740c6 8 8 10 16 10h96c9 0 12 -1 4 -10l-121 -124c-8 -8 -10 -10 -18 -10h-71c-10 0 -7 4 -2 10z" />
    <glyph glyph-name="uni1E52" unicode="&#x1e52;" horiz-adv-x="792" 
d="M416 990c6 8 8 10 16 10h96c9 0 12 -1 4 -10l-101 -104c-8 -8 -10 -10 -18 -10h-71c-10 0 -7 4 -2 10zM746 350c0 -196 -154 -360 -350 -360s-350 164 -350 360s154 360 350 360s350 -164 350 -360zM154 350c0 -142 101 -263 242 -263s242 121 242 263s-101 263 -242 263
s-242 -121 -242 -263zM237 816c0 9 2 10 10 10h298c9 0 10 -1 10 -10v-44c0 -9 -1 -10 -10 -10h-298c-9 0 -10 1 -10 10v44z" />
    <glyph glyph-name="uni2155" unicode="&#x2155;" horiz-adv-x="677" 
d="M418 375c1 5 2 6 8 6h179c6 0 6 -1 6 -6v-52c0 -5 0 -6 -6 -6h-123c-5 0 -6 -1 -7 -6l-5 -60c0 -6 1 -6 6 -6c7 0 16 1 28 1c75 0 123 -50 123 -119c0 -62 -48 -126 -134 -126c-54 0 -84 22 -105 43c-1 1 -2 3 -2 4c0 2 1 3 3 5l45 39c0 1 2 2 3 2s1 -1 3 -3
c7 -11 29 -26 53 -26c35 0 61 24 61 61c0 39 -32 60 -74 60c-27 0 -60 -11 -68 -16c-4 -2 -5 -2 -7 -2s-2 1 -2 4zM91 25l396 686c4 7 6 7 13 3l43 -25c6 -4 8 -6 4 -14l-396 -686c-4 -7 -6 -7 -13 -3l-43 25c-6 4 -8 6 -4 14zM199 344c0 -8 0 -9 -9 -9h-60c-8 0 -9 1 -9 9
v263c0 11 -1 13 -10 10l-61 -21c-8 -3 -10 -3 -10 6v51c0 9 2 11 10 14l139 48c11 3 10 1 10 -8v-363z" />
    <glyph glyph-name="uni2156" unicode="&#x2156;" horiz-adv-x="754" 
d="M158 25l396 686c4 7 6 7 13 3l43 -25c6 -4 8 -6 4 -14l-396 -686c-4 -7 -6 -7 -13 -3l-43 25c-6 4 -8 6 -4 14zM52 587c0 76 45 128 129 128c87 0 131 -51 131 -128c0 -43 -28 -94 -87 -155l-22 -22c-2 -2 -3 -4 -3 -5c0 -2 2 -3 5 -3h91c9 0 10 -1 10 -10v-47
c0 -9 -1 -10 -10 -10h-242c-3 0 -4 1 -4 4c0 4 3 6 3 7l114 123c37 41 68 77 68 114c0 42 -22 62 -56 62c-32 0 -53 -20 -53 -58c0 -9 -1 -10 -10 -10h-54c-9 0 -10 1 -10 10zM495 375c1 5 2 6 8 6h179c6 0 6 -1 6 -6v-52c0 -5 0 -6 -6 -6h-123c-5 0 -6 -1 -7 -6l-5 -60
c0 -6 1 -6 6 -6c7 0 16 1 28 1c75 0 123 -50 123 -119c0 -62 -48 -126 -134 -126c-54 0 -84 22 -105 43c-1 1 -2 3 -2 4c0 2 1 3 3 5l45 39c0 1 2 2 3 2s1 -1 3 -3c7 -11 29 -26 53 -26c35 0 61 24 61 61c0 39 -32 60 -74 60c-27 0 -60 -11 -68 -16c-4 -2 -5 -2 -7 -2
s-2 1 -2 4z" />
    <glyph glyph-name="uni2157" unicode="&#x2157;" horiz-adv-x="766" 
d="M507 375c1 5 2 6 8 6h179c6 0 6 -1 6 -6v-52c0 -5 0 -6 -6 -6h-123c-5 0 -6 -1 -7 -6l-5 -60c0 -6 1 -6 6 -6c7 0 16 1 28 1c75 0 123 -50 123 -119c0 -62 -48 -126 -134 -126c-54 0 -84 22 -105 43c-1 1 -2 3 -2 4c0 2 1 3 3 5l45 39c0 1 2 2 3 2s1 -1 3 -3
c7 -11 29 -26 53 -26c35 0 61 24 61 61c0 39 -32 60 -74 60c-27 0 -60 -11 -68 -16c-4 -2 -5 -2 -7 -2s-2 1 -2 4zM170 25l396 686c4 7 6 7 13 3l43 -25c6 -4 8 -6 4 -14l-396 -686c-4 -7 -6 -7 -13 -3l-43 25c-6 4 -8 6 -4 14zM128 608c0 -9 -1 -10 -10 -10h-48
c-9 0 -10 1 -10 10c3 65 51 107 123 107c75 0 120 -49 120 -100c0 -31 -12 -49 -33 -65c-3 -3 -4 -5 -4 -6s1 -3 4 -5c31 -21 51 -57 51 -93c0 -69 -50 -118 -138 -118c-80 0 -133 48 -133 118c0 9 1 10 10 10h51c9 0 10 -1 10 -10c0 -30 30 -52 62 -52c37 0 61 17 61 50
c0 29 -20 50 -61 50h-33c-9 0 -10 1 -10 10v45c0 9 1 10 10 10h26c35 0 53 11 53 42c0 30 -19 50 -50 50c-28 0 -48 -15 -51 -43z" />
    <glyph glyph-name="uni2158" unicode="&#x2158;" horiz-adv-x="745" 
d="M0 390c-7 0 -12 3 -7 9l261 322c2 2 3 3 5 3s4 -1 4 -4v-260c0 -9 1 -10 10 -10h30c9 0 10 -1 10 -10v-40c0 -9 -1 -10 -10 -10h-30c-9 0 -10 -1 -10 -10v-35c0 -9 -1 -10 -10 -10h-50c-9 0 -10 1 -10 10v35c0 9 -1 10 -10 10h-183zM193 546c0 3 -1 5 -2 5s-3 -1 -4 -3
l-67 -87c-3 -4 -4 -6 -4 -7c0 -2 2 -3 6 -3h61c9 0 10 1 10 10v85zM149 25l396 686c4 7 6 7 13 3l43 -25c6 -4 8 -6 4 -14l-396 -686c-4 -7 -6 -7 -13 -3l-43 25c-6 4 -8 6 -4 14zM486 375c1 5 2 6 8 6h179c6 0 6 -1 6 -6v-52c0 -5 0 -6 -6 -6h-123c-5 0 -6 -1 -7 -6l-5 -60
c0 -6 1 -6 6 -6c7 0 16 1 28 1c75 0 123 -50 123 -119c0 -62 -48 -126 -134 -126c-54 0 -84 22 -105 43c-1 1 -2 3 -2 4c0 2 1 3 3 5l45 39c0 1 2 2 3 2s1 -1 3 -3c7 -11 29 -26 53 -26c35 0 61 24 61 61c0 39 -32 60 -74 60c-27 0 -60 -11 -68 -16c-4 -2 -5 -2 -7 -2
s-2 1 -2 4z" />
    <glyph glyph-name="uni2159" unicode="&#x2159;" horiz-adv-x="689" 
d="M622 377l-105 -126c-1 -1 -1 -3 -1 -4s1 -1 4 -1c70 0 119 -52 119 -119c0 -69 -52 -126 -133 -126s-134 57 -134 126c0 65 30 87 123 199l42 50c3 4 6 5 11 5h74c1 0 2 -1 2 -1c0 -1 -1 -2 -2 -3zM446 127c0 -34 24 -62 60 -62s61 28 61 62s-24 62 -61 62
s-60 -28 -60 -62zM111 25l396 686c4 7 6 7 13 3l43 -25c6 -4 8 -6 4 -14l-396 -686c-4 -7 -6 -7 -13 -3l-43 25c-6 4 -8 6 -4 14zM219 344c0 -8 0 -9 -9 -9h-60c-8 0 -9 1 -9 9v263c0 11 -1 13 -10 10l-61 -21c-8 -3 -10 -3 -10 6v51c0 9 2 11 10 14l139 48c11 3 10 1 10 -8
v-363z" />
    <glyph glyph-name="uni215A" unicode="&#x215a;" horiz-adv-x="717" 
d="M82 702c1 5 2 6 8 6h179c6 0 6 -1 6 -6v-52c0 -5 0 -6 -6 -6h-123c-5 0 -6 -1 -7 -6l-5 -60c0 -6 1 -6 6 -6c7 0 16 1 28 1c75 0 123 -50 123 -119c0 -62 -48 -126 -134 -126c-54 0 -84 22 -105 43c-1 1 -2 3 -2 4c0 2 1 3 3 5l45 39c0 1 2 2 3 2s1 -1 3 -3
c7 -11 29 -26 53 -26c35 0 61 24 61 61c0 39 -32 60 -74 60c-27 0 -60 -11 -68 -16c-4 -2 -5 -2 -7 -2s-2 1 -2 4zM139 25l396 686c4 7 6 7 13 3l43 -25c6 -4 8 -6 4 -14l-396 -686c-4 -7 -6 -7 -13 -3l-43 25c-6 4 -8 6 -4 14zM650 377l-105 -126c-1 -1 -1 -3 -1 -4
s1 -1 4 -1c70 0 119 -52 119 -119c0 -69 -52 -126 -133 -126s-134 57 -134 126c0 65 30 87 123 199l42 50c3 4 6 5 11 5h74c1 0 2 -1 2 -1c0 -1 -1 -2 -2 -3zM474 127c0 -34 24 -62 60 -62s61 28 61 62s-24 62 -61 62s-60 -28 -60 -62z" />
    <glyph glyph-name="oneeighth" unicode="&#x215b;" horiz-adv-x="710" 
d="M471 122c0 -29 25 -55 57 -55s56 26 56 55c0 31 -21 58 -56 58s-57 -27 -57 -58zM485 286c0 -26 17 -45 43 -45c27 0 45 19 45 45c0 23 -18 44 -45 44c-26 0 -43 -21 -43 -44zM452 210c3 2 4 3 0 6c-22 17 -38 40 -38 72c0 57 43 100 114 100s115 -43 115 -100
c0 -33 -17 -55 -39 -72c-3 -3 -3 -4 0 -6c32 -20 56 -49 56 -90c0 -67 -48 -119 -132 -119s-132 52 -132 119c0 41 23 70 56 90zM91 25l396 686c4 7 6 7 13 3l43 -25c6 -4 8 -6 4 -14l-396 -686c-4 -7 -6 -7 -13 -3l-43 25c-6 4 -8 6 -4 14zM199 344c0 -8 0 -9 -9 -9h-60
c-8 0 -9 1 -9 9v263c0 11 -1 13 -10 10l-61 -21c-8 -3 -10 -3 -10 6v51c0 9 2 11 10 14l139 48c11 3 10 1 10 -8v-363z" />
    <glyph glyph-name="threeeighths" unicode="&#x215c;" horiz-adv-x="789" 
d="M550 122c0 -29 25 -55 57 -55s56 26 56 55c0 31 -21 58 -56 58s-57 -27 -57 -58zM564 286c0 -26 17 -45 43 -45c27 0 45 19 45 45c0 23 -18 44 -45 44c-26 0 -43 -21 -43 -44zM531 210c3 2 4 3 0 6c-22 17 -38 40 -38 72c0 57 43 100 114 100s115 -43 115 -100
c0 -33 -17 -55 -39 -72c-3 -3 -3 -4 0 -6c32 -20 56 -49 56 -90c0 -67 -48 -119 -132 -119s-132 52 -132 119c0 41 23 70 56 90zM170 25l396 686c4 7 6 7 13 3l43 -25c6 -4 8 -6 4 -14l-396 -686c-4 -7 -6 -7 -13 -3l-43 25c-6 4 -8 6 -4 14zM128 608c0 -9 -1 -10 -10 -10
h-48c-9 0 -10 1 -10 10c3 65 51 107 123 107c75 0 120 -49 120 -100c0 -31 -12 -49 -33 -65c-3 -3 -4 -5 -4 -6s1 -3 4 -5c31 -21 51 -57 51 -93c0 -69 -50 -118 -138 -118c-80 0 -133 48 -133 118c0 9 1 10 10 10h51c9 0 10 -1 10 -10c0 -30 30 -52 62 -52
c37 0 61 17 61 50c0 29 -20 50 -61 50h-33c-9 0 -10 1 -10 10v45c0 9 1 10 10 10h26c35 0 53 11 53 42c0 30 -19 50 -50 50c-28 0 -48 -15 -51 -43z" />
    <glyph glyph-name="fiveeighths" unicode="&#x215d;" horiz-adv-x="758" 
d="M139 25l396 686c4 7 6 7 13 3l43 -25c6 -4 8 -6 4 -14l-396 -686c-4 -7 -6 -7 -13 -3l-43 25c-6 4 -8 6 -4 14zM519 122c0 -29 25 -55 57 -55s56 26 56 55c0 31 -21 58 -56 58s-57 -27 -57 -58zM533 286c0 -26 17 -45 43 -45c27 0 45 19 45 45c0 23 -18 44 -45 44
c-26 0 -43 -21 -43 -44zM500 210c3 2 4 3 0 6c-22 17 -38 40 -38 72c0 57 43 100 114 100s115 -43 115 -100c0 -33 -17 -55 -39 -72c-3 -3 -3 -4 0 -6c32 -20 56 -49 56 -90c0 -67 -48 -119 -132 -119s-132 52 -132 119c0 41 23 70 56 90zM82 702c1 5 2 6 8 6h179
c6 0 6 -1 6 -6v-52c0 -5 0 -6 -6 -6h-123c-5 0 -6 -1 -7 -6l-5 -60c0 -6 1 -6 6 -6c7 0 16 1 28 1c75 0 123 -50 123 -119c0 -62 -48 -126 -134 -126c-54 0 -84 22 -105 43c-1 1 -2 3 -2 4c0 2 1 3 3 5l45 39c0 1 2 2 3 2s1 -1 3 -3c7 -11 29 -26 53 -26c35 0 61 24 61 61
c0 39 -32 60 -74 60c-27 0 -60 -11 -68 -16c-4 -2 -5 -2 -7 -2s-2 1 -2 4z" />
    <glyph glyph-name="seveneighths" unicode="&#x215e;" horiz-adv-x="700" 
d="M132 335h-69c-3 0 -4 1 -4 2c0 2 0 3 1 4l137 292c0 2 1 3 1 4c0 3 -2 5 -4 5h-148c-5 0 -6 0 -6 5v55c0 5 1 6 6 6h249c2 0 3 -1 3 -2c0 -2 0 -3 -1 -4l-157 -362c-2 -4 -3 -5 -8 -5zM81 25l396 686c4 7 6 7 13 3l43 -25c6 -4 8 -6 4 -14l-396 -686c-4 -7 -6 -7 -13 -3
l-43 25c-6 4 -8 6 -4 14zM461 122c0 -29 25 -55 57 -55s56 26 56 55c0 31 -21 58 -56 58s-57 -27 -57 -58zM475 286c0 -26 17 -45 43 -45c27 0 45 19 45 45c0 23 -18 44 -45 44c-26 0 -43 -21 -43 -44zM442 210c3 2 4 3 0 6c-22 17 -38 40 -38 72c0 57 43 100 114 100
s115 -43 115 -100c0 -33 -17 -55 -39 -72c-3 -3 -3 -4 0 -6c32 -20 56 -49 56 -90c0 -67 -48 -119 -132 -119s-132 52 -132 119c0 41 23 70 56 90z" />
    <glyph glyph-name="uni215F" unicode="&#x215f;" horiz-adv-x="708" 
d="M91 25l396 686c4 7 6 7 13 3l43 -25c6 -4 8 -6 4 -14l-396 -686c-4 -7 -6 -7 -13 -3l-43 25c-6 4 -8 6 -4 14zM199 344c0 -8 0 -9 -9 -9h-60c-8 0 -9 1 -9 9v263c0 11 -1 13 -10 10l-61 -21c-8 -3 -10 -3 -10 6v51c0 9 2 11 10 14l139 48c11 3 10 1 10 -8v-363z" />
    <glyph glyph-name="uni1E5C" unicode="&#x1e5c;" horiz-adv-x="545" 
d="M250 374c88 0 126 44 126 120c0 79 -50 118 -130 118h-67c-9 0 -10 -1 -10 -10v-218c0 -9 1 -10 10 -10h71zM169 10c0 -9 -1 -10 -10 -10h-75c-9 0 -12 1 -12 10v680c0 9 1 10 10 10h159c75 0 133 -16 173 -49c45 -37 64 -93 64 -157c0 -101 -62 -174 -169 -195
c-3 -1 -4 -2 -4 -4c0 -1 1 -3 2 -4l217 -281c3 -5 5 -7 5 -8s-3 -2 -9 -2h-100c-9 0 -8 1 -16 10l-223 292c-3 4 -6 6 -8 6c-3 0 -4 -3 -4 -9v-289zM262 -210c-32 0 -62 27 -62 62s27 63 62 63s62 -30 62 -62c0 -33 -29 -63 -62 -63zM82 844c0 9 2 10 10 10h298
c9 0 10 -1 10 -10v-44c0 -9 -1 -10 -10 -10h-298c-9 0 -10 1 -10 10v44z" />
    <glyph glyph-name="uni1E5D" unicode="&#x1e5d;" horiz-adv-x="319" 
d="M74 0c-9 0 -10 2 -10 10v417c0 8 1 10 10 10h68c9 0 10 -2 10 -10v-53c0 -1 1 -2 4 -2c2 0 3 0 4 1c19 36 73 74 131 74c9 0 10 -2 10 -10v-72c0 -7 -2 -11 -5 -11c-4 0 -12 2 -27 2c-76 0 -117 -65 -117 -173v-173c0 -8 -1 -10 -10 -10h-68zM112 -210
c-32 0 -62 27 -62 62s27 63 62 63s62 -30 62 -62c0 -33 -29 -63 -62 -63zM23 600c0 9 2 10 10 10h298c9 0 10 -1 10 -10v-44c0 -9 -1 -10 -10 -10h-298c-9 0 -10 1 -10 10v44z" />
    <glyph glyph-name="uni1E38" unicode="&#x1e38;" horiz-adv-x="452" 
d="M73 690c0 9 1 10 10 10h76c9 0 10 -1 10 -10v-588c0 -9 1 -10 10 -10h232c9 0 10 -1 10 -10v-72c0 -9 -1 -10 -10 -10h-328c-9 0 -10 1 -10 10v680zM242 -210c-32 0 -62 27 -62 62s27 63 62 63s62 -30 62 -62c0 -33 -29 -63 -62 -63zM62 844c0 9 2 10 10 10h298
c9 0 10 -1 10 -10v-44c0 -9 -1 -10 -10 -10h-298c-9 0 -10 1 -10 10v44z" />
    <glyph glyph-name="uni1E39" unicode="&#x1e39;" horiz-adv-x="224" 
d="M68 740c0 8 1 10 10 10h68c9 0 10 -2 10 -10v-730c0 -8 -1 -10 -10 -10h-68c-9 0 -10 2 -10 10v730zM114 -210c-32 0 -62 27 -62 62s27 63 62 63s62 -30 62 -62c0 -33 -29 -63 -62 -63zM-45 876c0 9 2 10 10 10h298c9 0 10 -1 10 -10v-44c0 -9 -1 -10 -10 -10h-298
c-9 0 -10 1 -10 10v44z" />
    <glyph glyph-name="uni1E24" unicode="&#x1e24;" horiz-adv-x="592" 
d="M519 10c0 -9 -1 -10 -10 -10h-78c-9 0 -10 1 -10 10v230c0 9 -1 10 -10 10h-230c-9 0 -10 -1 -10 -10v-230c0 -9 -1 -10 -10 -10h-78c-9 0 -10 1 -10 10v680c0 9 1 10 10 10h78c9 0 10 -1 10 -10v-339c0 -9 1 -10 10 -10h230c9 0 10 1 10 10v339c0 9 1 10 10 10h78
c9 0 10 -1 10 -10v-680zM296 -210c-32 0 -62 27 -62 62s27 63 62 63s62 -30 62 -62c0 -33 -29 -63 -62 -63z" />
    <glyph glyph-name="uni1E25" unicode="&#x1e25;" horiz-adv-x="516" 
d="M458 10c0 -8 -1 -10 -10 -10h-68c-9 0 -10 2 -10 10v248c0 69 -31 109 -96 109c-68 0 -122 -47 -122 -128v-229c0 -8 -1 -10 -10 -10h-68c-9 0 -10 2 -10 10v730c0 8 1 10 10 10h68c9 0 10 -2 10 -10v-353c0 -1 1 -2 4 -2c2 0 3 0 4 1c34 37 70 61 131 61
c121 0 167 -74 167 -169v-268zM259 -210c-32 0 -62 27 -62 62s27 63 62 63s62 -30 62 -62c0 -33 -29 -63 -62 -63z" />
    <glyph glyph-name="uni1E6C" unicode="&#x1e6c;" horiz-adv-x="462" 
d="M26 690c0 9 1 10 10 10h390c9 0 10 -1 10 -10v-72c0 -9 -1 -10 -10 -10h-136c-9 0 -10 -1 -10 -10v-588c0 -9 -1 -10 -10 -10h-78c-9 0 -10 1 -10 10v588c0 9 -1 10 -10 10h-136c-9 0 -10 1 -10 10v72zM231 -210c-32 0 -62 27 -62 62s27 63 62 63s62 -30 62 -62
c0 -33 -29 -63 -62 -63z" />
    <glyph glyph-name="uni1E6D" unicode="&#x1e6d;" horiz-adv-x="264" 
d="M34 359c-9 0 -10 2 -10 10v58c0 8 1 10 10 10h40c9 0 10 1 10 10v133c0 7 3 12 10 16l65 40c3 1 4 3 7 3s5 -3 5 -8v-184c0 -9 1 -10 10 -10h61c9 0 10 -2 10 -10v-58c0 -8 -1 -10 -10 -10h-61c-9 0 -10 -1 -10 -10v-339c0 -8 -1 -10 -10 -10h-67c-9 0 -10 2 -10 10v339
c0 9 -1 10 -10 10h-40zM130 -210c-32 0 -62 27 -62 62s27 63 62 63s62 -30 62 -62c0 -33 -29 -63 -62 -63z" />
    <glyph glyph-name="uni1E0C" unicode="&#x1e0c;" horiz-adv-x="629" 
d="M246 700c85 0 143 -18 190 -47c97 -60 147 -172 147 -303c0 -145 -67 -271 -194 -324c-41 -17 -99 -26 -152 -26h-154c-9 0 -10 1 -10 10v680c0 9 1 10 10 10h163zM474 350c0 95 -28 178 -92 223c-33 24 -89 36 -145 36h-56c-9 0 -10 -1 -10 -10v-498c0 -9 1 -10 10 -10
h57c56 0 107 12 140 36c64 45 96 128 96 223zM281 -210c-32 0 -62 27 -62 62s27 63 62 63s62 -30 62 -62c0 -33 -29 -63 -62 -63z" />
    <glyph glyph-name="uni1E0D" unicode="&#x1e0d;" horiz-adv-x="550" 
d="M398 219c0 81 -55 148 -137 148c-83 0 -139 -67 -139 -148c0 -83 56 -149 139 -149c82 0 137 66 137 149zM398 740c0 8 1 10 10 10h68c9 0 10 -2 10 -10v-730c0 -8 -1 -10 -10 -10h-68c-9 0 -10 2 -10 10v40c0 1 -1 2 -4 2c-2 0 -3 0 -4 -1c-35 -35 -80 -61 -141 -61
c-124 0 -217 104 -217 229s93 228 217 228c61 0 105 -24 141 -61c1 -1 2 -1 4 -1c3 0 4 1 4 2v353zM270 -210c-32 0 -62 27 -62 62s27 63 62 63s62 -30 62 -62c0 -33 -29 -63 -62 -63z" />
    <glyph glyph-name="uni1E44" unicode="&#x1e44;" horiz-adv-x="590" 
d="M176 433c-2 2 -4 3 -7 3c-5 0 -8 -2 -8 -6v-420c0 -9 -1 -10 -10 -10h-74c-9 0 -10 1 -10 10v698c0 5 1 7 3 7s4 -1 7 -5l337 -443c2 -2 4 -3 7 -3c5 0 8 2 8 6v420c0 9 1 10 10 10h74c9 0 10 -1 10 -10v-698c0 -5 -1 -7 -3 -7s-4 2 -7 5zM295 759c-32 0 -62 27 -62 62
s27 63 62 63s62 -30 62 -62c0 -33 -29 -63 -62 -63z" />
    <glyph glyph-name="uni1E45" unicode="&#x1e45;" horiz-adv-x="505" 
d="M447 10c0 -8 -1 -10 -10 -10h-68c-9 0 -10 2 -10 10v248c0 69 -25 109 -90 109c-68 0 -118 -47 -118 -128v-229c0 -8 -1 -10 -10 -10h-68c-9 0 -10 2 -10 10v417c0 9 1 10 10 10h68c9 0 10 -2 10 -10v-40c0 -1 1 -2 4 -2c2 0 3 0 4 1c38 36 70 61 131 61
c121 0 157 -74 157 -169v-268zM252 516c-32 0 -62 27 -62 62s27 63 62 63s62 -30 62 -62c0 -33 -29 -63 -62 -63z" />
    <glyph glyph-name="H22073" unicode="&#x25a1;" horiz-adv-x="810" 
d="M82 0c-9 0 -10 1 -10 10v680c0 9 1 10 10 10h646c9 0 10 -1 10 -10v-680c0 -9 -1 -10 -10 -10h-646zM129 46h552c7 0 8 1 8 8v592c0 7 -1 8 -8 8h-552c-7 0 -8 -1 -8 -8v-592c0 -7 1 -8 8 -8z" />
    <glyph glyph-name="gcircumflex" unicode="&#x11d;" horiz-adv-x="548" 
d="M122 219c0 -83 55 -149 137 -149c83 0 139 66 139 149c0 81 -56 148 -139 148c-82 0 -137 -67 -137 -148zM120 -190c-6 3 -9 7 -9 12v74c0 7 1 10 4 10c1 0 3 -1 6 -3c31 -21 75 -41 140 -41c95 0 137 44 137 152v36c0 1 -1 2 -4 2c-2 0 -3 0 -4 -1
c-35 -37 -80 -61 -141 -61c-124 0 -217 104 -217 229s93 228 217 228c61 0 106 -24 141 -61c1 -1 2 -1 4 -1c3 0 4 1 4 2v40c0 8 1 10 10 10h68c9 0 10 -2 10 -10v-409c0 -153 -75 -236 -224 -236c-64 0 -113 13 -142 28zM221 640c7 8 11 10 19 10h76c7 0 14 -3 19 -10
l108 -124c2 -3 3 -5 3 -7s-2 -3 -6 -3h-62c-9 0 -12 5 -17 10l-75 75c-1 1 -3 2 -6 2s-5 -1 -6 -2l-73 -75c-5 -5 -8 -10 -17 -10h-64c-4 0 -6 1 -6 3s1 4 3 7z" />
    <glyph glyph-name="gbreve" unicode="&#x11f;" horiz-adv-x="548" 
d="M122 219c0 -83 55 -149 137 -149c83 0 139 66 139 149c0 81 -56 148 -139 148c-82 0 -137 -67 -137 -148zM120 -190c-6 3 -9 7 -9 12v74c0 7 1 10 4 10c1 0 3 -1 6 -3c31 -21 75 -41 140 -41c95 0 137 44 137 152v36c0 1 -1 2 -4 2c-2 0 -3 0 -4 -1
c-35 -37 -80 -61 -141 -61c-124 0 -217 104 -217 229s93 228 217 228c61 0 106 -24 141 -61c1 -1 2 -1 4 -1c3 0 4 1 4 2v40c0 8 1 10 10 10h68c9 0 10 -2 10 -10v-409c0 -153 -75 -236 -224 -236c-64 0 -113 13 -142 28zM276 501c-79 0 -153 36 -152 139c0 8 1 10 10 10h52
c7 0 10 -3 10 -10c1 -57 37 -77 80 -77s79 20 80 77c0 7 3 10 10 10h52c9 0 10 -2 10 -10c1 -103 -73 -139 -152 -139z" />
    <glyph glyph-name="gdotaccent" unicode="&#x121;" horiz-adv-x="548" 
d="M122 219c0 -83 55 -149 137 -149c83 0 139 66 139 149c0 81 -56 148 -139 148c-82 0 -137 -67 -137 -148zM120 -190c-6 3 -9 7 -9 12v74c0 7 1 10 4 10c1 0 3 -1 6 -3c31 -21 75 -41 140 -41c95 0 137 44 137 152v36c0 1 -1 2 -4 2c-2 0 -3 0 -4 -1
c-35 -37 -80 -61 -141 -61c-124 0 -217 104 -217 229s93 228 217 228c61 0 106 -24 141 -61c1 -1 2 -1 4 -1c3 0 4 1 4 2v40c0 8 1 10 10 10h68c9 0 10 -2 10 -10v-409c0 -153 -75 -236 -224 -236c-64 0 -113 13 -142 28zM268 516c-32 0 -62 27 -62 62s27 63 62 63
s62 -30 62 -62c0 -33 -29 -63 -62 -63z" />
    <glyph glyph-name="gcommaaccent" unicode="&#x123;" horiz-adv-x="548" 
d="M122 219c0 -83 55 -149 137 -149c83 0 139 66 139 149c0 81 -56 148 -139 148c-82 0 -137 -67 -137 -148zM120 -190c-6 3 -9 7 -9 12v74c0 7 1 10 4 10c1 0 3 -1 6 -3c31 -21 75 -41 140 -41c95 0 137 44 137 152v36c0 1 -1 2 -4 2c-2 0 -3 0 -4 -1
c-35 -37 -80 -61 -141 -61c-124 0 -217 104 -217 229s93 228 217 228c61 0 106 -24 141 -61c1 -1 2 -1 4 -1c3 0 4 1 4 2v40c0 8 1 10 10 10h68c9 0 10 -2 10 -10v-409c0 -153 -75 -236 -224 -236c-64 0 -113 13 -142 28zM315 516c-1 -8 -2 -10 -11 -10h-68
c-7 0 -10 3 -9 10l45 153c3 8 4 10 13 10h38c8 0 7 -3 7 -10z" />
    <glyph glyph-name="gcaron" unicode="&#x1e7;" horiz-adv-x="548" 
d="M122 219c0 -83 55 -149 137 -149c83 0 139 66 139 149c0 81 -56 148 -139 148c-82 0 -137 -67 -137 -148zM120 -190c-6 3 -9 7 -9 12v74c0 7 1 10 4 10c1 0 3 -1 6 -3c31 -21 75 -41 140 -41c95 0 137 44 137 152v36c0 1 -1 2 -4 2c-2 0 -3 0 -4 -1
c-35 -37 -80 -61 -141 -61c-124 0 -217 104 -217 229s93 228 217 228c61 0 106 -24 141 -61c1 -1 2 -1 4 -1c3 0 4 1 4 2v40c0 8 1 10 10 10h68c9 0 10 -2 10 -10v-409c0 -153 -75 -236 -224 -236c-64 0 -113 13 -142 28zM332 516c-5 -7 -12 -10 -19 -10h-76
c-8 0 -14 3 -19 10l-108 124c-2 3 -3 5 -3 7s2 3 6 3h62c9 0 12 -5 17 -10l75 -75c1 -1 3 -2 6 -2s5 1 6 2l73 75c5 5 8 10 17 10h64c4 0 6 -1 6 -3s-1 -4 -3 -7z" />
    <glyph glyph-name="jcircumflex" unicode="&#x135;" horiz-adv-x="218" 
d="M156 -70c0 -103 -38 -150 -121 -150c-13 0 -24 0 -31 1l-12 2c-8 3 -10 3 -10 12v59c0 7 3 9 10 8c9 -2 17 -3 25 -3c36 0 51 25 51 68v500c0 8 1 10 10 10h68c9 0 10 -2 10 -10v-497zM61 641c7 8 11 10 19 10h60c7 0 14 -3 19 -10l86 -125c2 -3 3 -5 3 -7s-2 -3 -6 -3
h-57c-9 0 -12 5 -17 10l-50 70c-1 1 -3 2 -6 2s-5 -1 -6 -2l-48 -70c-5 -5 -8 -10 -17 -10h-59c-4 0 -6 1 -6 3s1 4 3 7z" />
    <glyph glyph-name="Oslashacute" unicode="&#x1fe;" horiz-adv-x="792" 
d="M438 884c6 8 8 10 16 10h96c9 0 12 -1 4 -10l-121 -124c-8 -8 -10 -10 -18 -10h-71c-10 0 -7 4 -2 10zM121 126c-47 63 -75 140 -75 224c0 196 154 360 350 360c87 0 164 -32 225 -84l68 68c2 2 4 3 6 3s4 -1 6 -3l39 -39c2 -2 3 -4 3 -6s-1 -4 -3 -6l-70 -70
c48 -61 76 -139 76 -223c0 -196 -154 -360 -350 -360c-88 0 -165 31 -225 84l-68 -68c-2 -2 -4 -3 -6 -3s-4 1 -6 3l-39 39c-2 2 -3 4 -3 6s1 4 3 6zM600 494c-1 2 -3 3 -4 3s-3 -1 -5 -3l-344 -344c-2 -2 -3 -3 -3 -4s1 -3 3 -5c40 -35 90 -54 149 -54
c141 0 242 121 242 263c0 53 -13 101 -38 144zM545 550c2 2 3 3 3 4s-1 3 -3 5c-40 35 -90 54 -149 54c-141 0 -242 -121 -242 -263c0 -53 14 -101 38 -144c1 -2 3 -3 4 -3s3 1 5 3z" />
    <glyph glyph-name="oslashacute" unicode="&#x1ff;" horiz-adv-x="519" 
d="M32 219c0 125 103 228 228 228c53 0 101 -19 140 -50l40 40c2 2 4 3 6 3c1 0 3 -1 6 -3l25 -25c2 -2 3 -4 3 -6s-1 -4 -3 -6l-40 -40c31 -39 50 -88 50 -141c0 -125 -102 -229 -227 -229c-55 0 -103 19 -142 51l-41 -41c-2 -2 -4 -3 -6 -3c-1 0 -3 1 -6 3l-25 25
c-2 2 -3 4 -3 6s1 4 3 6l41 41c-31 39 -49 88 -49 141zM397 219c0 30 -8 58 -21 81l-202 -202c24 -19 52 -28 86 -28c85 0 137 66 137 149zM122 219c0 -31 7 -58 20 -81l201 201c-23 19 -50 28 -83 28c-84 0 -138 -67 -138 -148zM306 640c6 8 8 10 16 10h96c9 0 12 -1 4 -10
l-121 -124c-8 -8 -10 -10 -18 -10h-71c-10 0 -7 4 -2 10z" />
    <glyph glyph-name="uni2002" unicode="&#x2002;" horiz-adv-x="444" 
 />
    <glyph glyph-name="uni2003" unicode="&#x2003;" horiz-adv-x="888" 
 />
    <glyph glyph-name="uni2004" unicode="&#x2004;" horiz-adv-x="296" 
 />
    <glyph glyph-name="uni2005" unicode="&#x2005;" horiz-adv-x="222" 
 />
    <glyph glyph-name="uni2008" unicode="&#x2008;" horiz-adv-x="250" 
 />
    <glyph glyph-name="uni2009" unicode="&#x2009;" horiz-adv-x="148" 
 />
    <glyph glyph-name="uni200A" unicode="&#x200a;" horiz-adv-x="74" 
 />
    <glyph glyph-name="minute" unicode="&#x2032;" horiz-adv-x="225" 
d="M84 484h-45c-8 0 -7 3 -5 10l57 196c2 8 5 10 14 10h80c7 0 9 -4 6 -10l-92 -196c-4 -8 -6 -10 -15 -10z" />
    <glyph glyph-name="second" unicode="&#x2033;" horiz-adv-x="393" 
d="M84 484h-45c-8 0 -7 3 -5 10l57 196c2 8 5 10 14 10h80c7 0 9 -4 6 -10l-92 -196c-4 -8 -6 -10 -15 -10zM252 484h-45c-8 0 -7 3 -5 10l57 196c2 8 5 10 14 10h80c7 0 9 -4 6 -10l-92 -196c-4 -8 -6 -10 -15 -10z" />
    <glyph glyph-name="s_z" unicode="&#xe073;" horiz-adv-x="512" 
d="M167 -199c-6 3 -9 5 -9 12v74c0 7 1 10 4 10c1 0 3 -1 6 -3c31 -20 76 -32 118 -32c89 0 125 67 125 137c0 76 -62 130 -162 130h-23c-3 0 -4 2 -4 5c0 2 1 4 3 6l117 209c1 2 2 4 2 5c0 3 -3 5 -9 5h-175c-9 0 -10 -1 -10 -10v-339c0 -8 -1 -10 -10 -10h-68
c-9 0 -10 2 -10 10v600c0 103 39 156 122 156c15 0 31 -2 46 -6c10 -3 10 -4 10 -11v-59c0 -7 -3 -10 -10 -8c-10 3 -20 4 -29 4c-33 0 -51 -25 -51 -68v-171c0 -9 1 -10 10 -10h320c5 0 7 -4 4 -9l-130 -227c-1 -3 -2 -5 -2 -7c0 -3 1 -4 4 -5c59 -16 144 -64 144 -195
c0 -125 -84 -212 -212 -212c-45 0 -91 7 -121 19z" />
    <glyph glyph-name="t_z" unicode="&#xe074;" horiz-adv-x="533" 
d="M356 359h-175c-9 0 -10 -1 -10 -10v-339c0 -8 -1 -10 -10 -10h-67c-9 0 -10 2 -10 10v339c0 9 -1 10 -10 10h-40c-9 0 -10 2 -10 10v58c0 8 1 10 10 10h40c9 0 10 1 10 10v133c0 7 3 12 10 16l65 40c3 1 4 3 7 3s5 -3 5 -8v-184c0 -9 1 -10 10 -10h320c5 0 7 -4 4 -9
l-130 -227c-1 -3 -2 -5 -2 -7c0 -3 1 -4 4 -5c59 -16 144 -64 144 -195c0 -125 -84 -212 -212 -212c-45 0 -91 7 -121 19c-6 3 -9 5 -9 12v74c0 7 1 10 4 10c1 0 3 -1 6 -3c31 -20 76 -32 118 -32c89 0 125 67 125 137c0 76 -62 130 -162 130h-23c-3 0 -4 2 -4 5
c0 2 1 4 3 6l117 209c1 2 2 4 2 5c0 3 -3 5 -9 5z" />
    <glyph glyph-name="exclamdown" unicode="&#xa1;" horiz-adv-x="284" 
d="M197 10c0 -9 0 -10 -9 -10h-92c-9 0 -9 1 -9 10l20 491c0 9 2 10 11 10h48c9 0 11 -1 11 -10zM142 712c33 0 62 -26 62 -62c0 -35 -27 -62 -62 -62s-62 28 -62 61c0 35 27 63 62 63z" />
    <glyph glyph-name="uni01F6" unicode="&#x1f6;" horiz-adv-x="839" 
d="M598 80c53 0 89 38 89 107v240c0 8 1 10 10 10h78c9 0 10 -2 10 -10v-256c0 -98 -66 -181 -187 -181s-187 83 -187 181v73c-1 5 -3 6 -10 6h-220c-9 0 -10 -1 -10 -10v-230c0 -9 -1 -10 -10 -10h-78c-9 0 -10 1 -10 10v680c0 9 1 10 10 10h78c9 0 10 -1 10 -10v-339
c0 -9 1 -10 10 -10h220c9 0 10 1 10 10v339c0 9 1 10 10 10h78c9 0 10 -1 10 -10v-503c0 -69 36 -107 89 -107z" />
    <glyph glyph-name="uni0195" unicode="&#x195;" horiz-adv-x="768" 
d="M542 70c53 0 84 34 84 103v254c0 8 1 10 10 10h68c9 0 10 -2 10 -10v-260c0 -98 -51 -177 -172 -177s-182 79 -182 177v91c0 69 -21 109 -86 109c-68 0 -122 -47 -122 -128v-229c0 -8 -1 -10 -10 -10h-68c-9 0 -10 2 -10 10v730c0 8 1 10 10 10h68c9 0 10 -2 10 -10v-353
c0 -1 1 -2 4 -2c2 0 3 0 4 1c38 36 70 61 131 61c121 0 157 -74 157 -169v-105c0 -69 41 -103 94 -103z" />
    <glyph glyph-name="napostrophe" unicode="&#x149;" horiz-adv-x="632" 
d="M574 10c0 -8 -1 -10 -10 -10h-68c-9 0 -10 2 -10 10v248c0 69 -25 109 -90 109c-68 0 -118 -47 -118 -128v-229c0 -8 -1 -10 -10 -10h-68c-9 0 -10 2 -10 10v417c0 9 1 10 10 10h68c9 0 10 -2 10 -10v-40c0 -1 1 -2 4 -2c2 0 3 0 4 1c38 36 70 61 131 61
c121 0 157 -74 157 -169v-268zM60 690c1 8 2 10 11 10h78c7 0 10 -3 9 -10l-57 -196c-3 -8 -3 -10 -12 -10h-43c-8 0 -8 3 -8 10z" />
    <glyph glyph-name="four.superior" unicode="&#x2074;" horiz-adv-x="333" 
d="M15 500c-7 0 -12 3 -7 9l261 322c2 2 3 3 5 3s4 -1 4 -4v-260c0 -9 1 -10 10 -10h30c9 0 10 -1 10 -10v-40c0 -9 -1 -10 -10 -10h-30c-9 0 -10 -1 -10 -10v-35c0 -9 -1 -10 -10 -10h-50c-9 0 -10 1 -10 10v35c0 9 -1 10 -10 10h-183zM208 656c0 3 -1 5 -2 5s-3 -1 -4 -3
l-67 -87c-3 -4 -4 -6 -4 -7c0 -2 2 -3 6 -3h61c9 0 10 1 10 10v85z" />
    <glyph glyph-name="five.superior" unicode="&#x2075;" horiz-adv-x="333" 
d="M78 812c1 5 2 6 8 6h179c6 0 6 -1 6 -6v-52c0 -5 0 -6 -6 -6h-123c-5 0 -6 -1 -7 -6l-5 -60c0 -6 1 -6 6 -6c7 0 16 1 28 1c75 0 123 -50 123 -119c0 -62 -48 -126 -134 -126c-54 0 -84 22 -105 43c-1 1 -2 3 -2 4c0 2 1 3 3 5l45 39c0 1 2 2 3 2s1 -1 3 -3
c7 -11 29 -26 53 -26c35 0 61 24 61 61c0 39 -32 60 -74 60c-27 0 -60 -11 -68 -16c-4 -2 -5 -2 -7 -2s-2 1 -2 4z" />
    <glyph glyph-name="six.superior" unicode="&#x2076;" horiz-adv-x="333" 
d="M283 814l-105 -126c-1 -1 -1 -3 -1 -4s1 -1 4 -1c70 0 119 -52 119 -119c0 -69 -52 -126 -133 -126s-134 57 -134 126c0 65 30 87 123 199l42 50c3 4 6 5 11 5h74c1 0 2 -1 2 -1c0 -1 -1 -2 -2 -3zM107 564c0 -34 24 -62 60 -62s61 28 61 62s-24 62 -61 62
s-60 -28 -60 -62z" />
    <glyph glyph-name="seven.superior" unicode="&#x2077;" horiz-adv-x="333" 
d="M129 445h-69c-3 0 -4 1 -4 2c0 2 0 3 1 4l137 292c0 2 1 3 1 4c0 3 -2 5 -4 5h-148c-5 0 -6 0 -6 5v55c0 5 1 6 6 6h249c2 0 3 -1 3 -2c0 -2 0 -3 -1 -4l-157 -362c-2 -4 -3 -5 -8 -5z" />
    <glyph glyph-name="eight.superior" unicode="&#x2078;" horiz-adv-x="333" 
d="M109 559c0 -29 25 -55 57 -55s56 26 56 55c0 31 -21 58 -56 58s-57 -27 -57 -58zM123 723c0 -26 17 -45 43 -45c27 0 45 19 45 45c0 23 -18 44 -45 44c-26 0 -43 -21 -43 -44zM90 647c3 2 4 3 0 6c-22 17 -38 40 -38 72c0 57 43 100 114 100s115 -43 115 -100
c0 -33 -17 -55 -39 -72c-3 -3 -3 -4 0 -6c32 -20 56 -49 56 -90c0 -67 -48 -119 -132 -119s-132 52 -132 119c0 41 23 70 56 90z" />
    <glyph glyph-name="nine.superior" unicode="&#x2079;" horiz-adv-x="333" 
d="M54 449l101 124c1 1 1 3 1 4s-1 1 -4 1c-70 0 -119 54 -119 121c0 69 52 126 133 126s134 -57 134 -126c0 -65 -27 -87 -120 -199l-41 -50c-3 -4 -6 -5 -11 -5h-74c-1 0 -2 1 -2 1c0 1 1 2 2 3zM227 699c0 34 -24 62 -60 62s-61 -28 -61 -62s24 -62 61 -62s60 28 60 62z
" />
    <glyph glyph-name="uni261E" unicode="&#x261e;" horiz-adv-x="1226" 
d="M312 128l16 252c0 9 3 11 9 15c46 29 207 111 385 111h422c35 0 60 -21 60 -50v-12c0 -26 -24 -50 -60 -50h-229l-1 -4c20 -8 35 -25 35 -46v-20c0 -26 -20 -50 -56 -50h-17l-1 -4c21 -7 27 -25 27 -46v-20c0 -26 -24 -50 -60 -50h-17l-1 -4c21 -9 26 -24 26 -45
c0 -26 -24 -52 -60 -52h-184c-95 0 -253 51 -287 63c-5 2 -7 3 -7 12zM253 80c-4 -35 -11 -45 -38 -45l-147 14c-35 4 -46 11 -46 38c0 5 0 11 32 312c4 35 11 45 38 45l147 -14c35 -3 46 -11 46 -38c0 -5 0 -11 -32 -312z" />
    </font>
</defs>
</svg>
